<?xml version="1.0" encoding="UTF-8"?>
<svg width="100px" height="100px" viewBox="0 0 100 100" version="1.1" xmlns="http://www.w3.org/2000/svg" xmlns:xlink="http://www.w3.org/1999/xlink">
    <!-- Generator: Sketch 50.2 (55047) - http://www.bohemiancoding.com/sketch -->
    <title>Homepage/Icons/Age Based</title>
    <desc>Created with Sketch.</desc>
    <defs>
        <path d="M11.0502797,88.5027968 C7.47527968,88.5027968 4.55027968,85.5777968 4.55027968,82.0027968 C4.55027968,78.4277968 7.47527968,75.5027968 11.0502797,75.5027968 C14.6252797,75.5027968 17.5502797,78.4277968 17.5502797,82.0027968 C17.5502797,85.5777968 14.6252797,88.5027968 11.0502797,88.5027968 Z" id="path-1"></path>
        <path d="M33.2513984,63.5265383 C29.6763984,63.5265383 26.7513984,60.6015383 26.7513984,57.0265383 C26.7513984,53.4515383 29.6763984,50.5265383 33.2513984,50.5265383 C36.8263984,50.5265383 39.7513984,53.4515383 39.7513984,57.0265383 C39.7513984,60.6015383 36.8263984,63.5265383 33.2513984,63.5265383 Z" id="path-2"></path>
        <path d="M61.0027968,71.8519578 C57.4277968,71.8519578 54.5027968,68.9269578 54.5027968,65.3519578 C54.5027968,61.7769578 57.4277968,58.8519578 61.0027968,58.8519578 C64.5777968,58.8519578 67.5027968,61.7769578 67.5027968,65.3519578 C67.5027968,68.9269578 64.5777968,71.8519578 61.0027968,71.8519578 Z" id="path-3"></path>
    </defs>
    <g id="Homepage/Icons/Age-Based" stroke="none" stroke-width="1" fill="none" fill-rule="evenodd">
        <path d="M88.8044749,21 C82.6991673,21 77.7039156,25.9952517 77.7039156,32.1005594 C77.7039156,34.4594282 78.5364575,36.6795401 79.7852704,38.622138 L65.7708142,55.411734 C64.3832443,54.7179491 62.7181604,54.3016781 61.0530765,54.3016781 C57.0291237,54.3016781 53.5601989,56.52179 51.6176011,59.7132008 L44.4022375,57.4930889 C44.4022375,57.3543319 44.4022375,57.2155749 44.4022375,57.0768179 C44.4022375,50.9715103 39.4069857,45.9762586 33.3016781,45.9762586 C27.1963704,45.9762586 22.2011187,50.9715103 22.2011187,57.0768179 C22.2011187,59.2969298 22.8949037,61.5170417 24.1437166,63.3208826 L16.2345681,72.3400871 C14.5694842,71.3687881 12.9044003,70.9525171 11.1005594,70.9525171 C4.99525171,70.9525171 0,75.9477689 0,82.0530765 C0,88.1583842 4.99525171,93.1536359 11.1005594,93.1536359 C17.205867,93.1536359 22.2011187,88.1583842 22.2011187,82.0530765 C22.2011187,79.8329646 21.5073338,77.6128528 20.2585208,75.8090119 L28.1676694,66.7898074 C29.6939963,67.6223493 31.3590802,68.0386203 33.1629211,68.0386203 C37.1868739,68.0386203 40.6557987,65.8185084 42.5983966,62.6270976 L49.8137602,64.8472095 C49.8137602,64.9859665 49.8137602,65.1247235 49.8137602,65.2634805 C49.8137602,71.3687881 54.8090119,76.3640398 60.9143195,76.3640398 C67.0196272,76.3640398 72.0148789,71.3687881 72.0148789,65.2634805 C72.0148789,62.9046116 71.1823369,60.6844997 69.933524,58.7419018 L83.9479802,41.9523058 C85.3355501,42.6460908 87.000634,43.0623617 88.6657179,43.0623617 C94.7710256,43.0623617 99.7662773,38.06711 99.7662773,31.9618024 C99.7662773,25.8564947 94.9097826,21 88.8044749,21 Z" id="Shape" fill="#1F2D3D" fill-rule="nonzero"></path>
        <g id="Path">
            <use fill="#518AEE" xlink:href="#path-1"></use>
            <use fill-opacity="0.75" fill="#FFFFFF" xlink:href="#path-1"></use>
        </g>
        <g id="Path">
            <use fill="#518AEE" xlink:href="#path-2"></use>
            <use fill-opacity="0.5" fill="#FFFFFF" xlink:href="#path-2"></use>
        </g>
        <g id="Path">
            <use fill="#518AEE" xlink:href="#path-3"></use>
            <use fill-opacity="0.25" fill="#FFFFFF" xlink:href="#path-3"></use>
        </g>
        <path d="M88.7541952,38.5502797 C85.1791952,38.5502797 82.2541952,35.6252797 82.2541952,32.0502797 C82.2541952,28.4752797 85.1791952,25.5502797 88.7541952,25.5502797 C92.3291952,25.5502797 95.2541952,28.4752797 95.2541952,32.0502797 C95.2541952,35.6252797 92.3291952,38.5502797 88.7541952,38.5502797 Z" id="Path" fill="#518AEE"></path>
        <path d="M66.6751034,24.7631739 C65.5404402,24.1043372 64.1495627,22.8964699 64.1495627,20.9931639 C64.1495627,19.0898578 65.5038381,17.9185926 66.6751034,17.2231538 C66.8947156,17.1133477 66.9679197,16.8571334 66.8947156,16.6375212 C66.6018993,15.6126641 66.1626748,14.587807 65.6502463,13.672756 C65.5404402,13.4531438 65.2842259,13.3433377 65.0646137,13.4165417 C63.56393,13.8191642 62.2462566,13.3799397 60.8919812,12.0256642 C59.7573179,10.891001 59.4278996,9.53672557 59.8671241,7.85303176 C59.9403281,7.63341952 59.830522,7.37720525 59.6109098,7.26739913 C58.6592568,6.75497058 57.6710017,6.35234815 56.6461446,6.02292979 C56.4265324,5.94972572 56.1703181,6.05953183 56.060512,6.24254203 C55.145461,7.77982768 53.5715733,8.76808274 51.9610836,8.76808274 C50.3505938,8.76808274 48.7767062,7.81642972 47.8616552,6.27914407 C47.7518491,6.05953183 47.4956348,5.98632775 47.2760225,6.05953183 C46.2511654,6.35234815 45.2263083,6.79157262 44.3112574,7.30400117 C44.0916451,7.41380729 43.981839,7.67002156 44.0550431,7.8896338 C44.4942676,9.57332761 44.1648492,10.891001 43.030186,12.0622663 C41.7125126,13.3799397 40.3582371,13.8191642 38.8575535,13.4531438 C38.6379413,13.3799397 38.381727,13.4897458 38.2719209,13.7093581 C37.7594923,14.6610111 37.3568699,15.6492661 37.0274515,16.6741232 C36.9542475,16.8937355 37.0640536,17.1499497 37.2470638,17.2597559 C38.381727,17.9185926 39.7726045,19.1264599 39.7726045,21.0297659 C39.7726045,22.6402556 38.7843494,24.2141433 37.2470638,25.1291943 C37.0274515,25.2390004 36.9542475,25.4952147 37.0274515,25.714827 C37.3202678,26.7396841 37.7594923,27.7645412 38.2719209,28.6795921 C38.381727,28.8992044 38.6379413,29.0090105 38.8575535,28.9358064 C40.5412473,28.4965819 41.8589207,28.8260003 43.030186,29.9606635 C44.1648492,31.0953267 44.4942676,32.4496022 44.0550431,34.133296 C43.981839,34.3529082 44.0916451,34.6091225 44.3112574,34.7189286 C45.2629104,35.2313572 46.2511654,35.6339796 47.2760225,35.963398 C47.4956348,36.036602 47.7518491,35.9267959 47.8616552,35.7437857 C48.7767062,34.2065001 50.3505938,33.218245 51.9610836,33.218245 C53.5349713,33.218245 55.145461,34.2065001 56.060512,35.7437857 C56.1703181,35.8901939 56.3167263,36 56.4997364,36 C56.5363385,36 56.6095426,36 56.6461446,35.963398 C57.6710017,35.6705816 58.6958588,35.2313572 59.6109098,34.7189286 C59.830522,34.6091225 59.9403281,34.3529082 59.8671241,34.133296 C59.4278996,32.4496022 59.7573179,31.1319288 60.8919812,29.9606635 C62.2096546,28.6429901 63.56393,28.2037656 65.0646137,28.569786 C65.2842259,28.6429901 65.5404402,28.533184 65.6502463,28.3135717 C66.1626748,27.3619187 66.5652973,26.3736637 66.8947156,25.3488066 C66.9679197,25.1291943 66.8581136,24.87298 66.6751034,24.7631739 Z M59.0252772,20.9931639 C59.0252772,24.87298 55.8408997,28.0573575 51.9610836,28.0573575 C48.0812674,28.0573575 44.89689,24.87298 44.89689,20.9931639 C44.89689,17.1133477 48.0812674,13.9289703 51.9610836,13.9289703 C55.8408997,13.9289703 59.0252772,17.1133477 59.0252772,20.9931639 Z" id="Shape" fill="#1F2D3D" fill-rule="nonzero"></path>
    </g>
</svg>