<?xml version="1.0" encoding="UTF-8"?>
<svg width="100px" height="100px" viewBox="0 0 100 100" version="1.1" xmlns="http://www.w3.org/2000/svg" xmlns:xlink="http://www.w3.org/1999/xlink">
    <!-- Generator: Sketch 50.2 (55047) - http://www.bohemiancoding.com/sketch -->
    <title>Homepage/Icons/Always Free</title>
    <desc>Created with Sketch.</desc>
    <defs></defs>
    <g id="Homepage/Icons/Always-Free" stroke="none" stroke-width="1" fill="none" fill-rule="evenodd">
        <path d="M25.2079006,18.186531 C26.912115,15.7916218 34.3577301,12.6046658 37.0698334,11.5629929 C66.8372785,0.123360006 99.0634471,31.6175422 88.5265974,62.7119473 C87.7345506,65.0505499 83.8475153,73.66922 81.7810615,74.7559382 L71.6871574,64.7577553 L71.6608809,65.1331329 L65.2325392,71.5614747 L64.8571616,71.5877511 L74.7239623,81.7905148 C73.7517343,83.7856468 65.4070898,87.5844683 63.072241,88.3802689 C32.664777,98.7369374 1.64544746,69.2435179 11.598585,37.2125456 C12.2949105,34.9771719 16.3358506,26.0450615 18.3366133,25.1629241 L28.4323943,35.1629838 L28.4586708,34.7876062 L34.8870125,28.3592645 L35.2623901,28.3311112 L25.2079006,18.186531 Z M0.162705865,54.247182 C2.46940133,81.7135624 26.8239012,101.965185 54.2133292,99.7316881 C81.7979535,97.4812993 102.070222,73.3858099 99.8254637,45.81057 C97.5187682,17.4864518 73.6822894,-1.26929096 45.7842248,0.067053363 C18.5749781,1.36773681 -2.0501452,27.9294571 0.162705865,54.247182 Z" id="Shape" fill="#1F2D3D"></path>
        <path d="M47.8870765,53.1869511 C46.4148818,52.6850665 45.076543,52.1748248 43.8720201,51.6562108 C42.6674971,51.1375967 41.6302846,50.5102504 40.7603513,49.7741531 C39.8904181,49.0380557 39.2128841,48.1597709 38.727729,47.1392723 C38.2425739,46.1187737 38,44.8724457 38,43.4002509 C38,41.1250409 38.7026279,39.2095435 40.1079046,37.6537014 C41.5131814,36.0978592 43.5206896,35.0355528 46.1304893,34.4667503 L46.1304893,30.4015056 C46.4316201,30.3345877 46.9000386,30.2509415 47.5357591,30.1505646 C48.1714795,30.0501877 48.8239197,30 49.4930991,30 C50.797999,30 51.8184823,30.2258447 52.5545797,30.6775408 C53.290677,31.1292369 53.6587202,32.0911679 53.6587202,33.5633626 L53.6587202,34.2158093 C55.7331764,34.4834811 57.3977353,35.0188166 58.6524467,35.8218319 C59.9071581,36.6248472 60.5345044,37.7289767 60.5345044,39.1342535 C60.5345044,40.0041867 60.3337536,40.7486376 59.9322459,41.3676286 C59.5307383,41.9866196 59.0455905,42.5135905 58.476788,42.9485571 C57.7406906,42.4801315 56.7536657,42.0702652 55.5156838,41.718946 C54.2777019,41.3676269 52.9226339,41.1919699 51.4504391,41.1919699 C49.9447854,41.1919699 48.840656,41.4010853 48.1380176,41.8193225 C47.4353792,42.2375596 47.0840652,42.7645305 47.0840652,43.4002509 C47.0840652,43.9021355 47.3015453,44.3120018 47.7365119,44.629862 C48.1714785,44.9477222 48.8239187,45.2404838 49.6938519,45.5081556 L52.3538269,46.3613551 C55.4989701,47.3651242 57.9163445,48.6449107 59.6060226,50.2007528 C61.2957006,51.756595 62.140527,53.8728432 62.140527,56.5495609 C62.140527,58.8247709 61.4211699,60.7569975 59.9824341,62.3462986 C58.5436984,63.9355997 56.4358148,65.0146354 53.6587202,65.5834379 L53.6587202,69.5984944 C53.3575895,69.6654123 52.8891709,69.7490585 52.2534504,69.8494354 C51.61773,69.9498123 50.9652898,70 50.2961104,70 C48.9912105,70 47.9707272,69.7741553 47.2346299,69.3224592 C46.4985325,68.8707631 46.1304893,67.9088321 46.1304893,66.4366374 L46.1304893,65.9347553 C44.9259664,65.8009194 43.8302015,65.5834394 42.8431619,65.2823087 C41.8561222,64.9811779 41.0029312,64.5964055 40.2835634,64.1279799 C39.5641955,63.6595543 39.0037661,63.1074896 38.6022585,62.4717691 C38.2007508,61.8360487 38,61.1166916 38,60.3136763 C38,59.3433661 38.284397,58.515269 38.8531995,57.8293601 C39.422002,57.1434512 40.0409837,56.6164803 40.7101631,56.2484316 C41.6470143,56.984529 42.7929669,57.6202399 44.1480552,58.1555834 C45.5031435,58.690927 46.9836808,58.9585947 48.5897114,58.9585947 C50.229201,58.9585947 51.3835182,58.7076562 52.0526976,58.2057716 C52.721877,57.7038871 53.0564617,57.1183639 53.0564617,56.4491844 C53.0564617,55.780005 52.788794,55.2697634 52.2534504,54.9184442 C51.7181069,54.567125 50.9652913,54.2241757 49.9949812,53.8895859 L47.8870765,53.1869511 Z" id="$" fill="#518AEE"></path>
    </g>
</svg>