<?xml version="1.0" encoding="UTF-8"?>
<svg width="100px" height="100px" viewBox="0 0 100 100" version="1.1" xmlns="http://www.w3.org/2000/svg" xmlns:xlink="http://www.w3.org/1999/xlink">
    <!-- Generator: Sketch 50.2 (55047) - http://www.bohemiancoding.com/sketch -->
    <title>Homepage/Icons/Any Expense</title>
    <desc>Created with Sketch.</desc>
    <defs>
        <path d="M53.838082,30.57527 C54.056709,30.59287 54.261054,30.63617 54.43891,30.704 C54.794622,30.83964 55.047673,31.06846 55.113712,31.35727 C55.245304,31.93466 54.578436,32.53317 53.623483,32.69479 C49.220057,33.44381 45.315774,35.1828 42.630115,37.59429 C39.945555,40.00492 38.799807,42.79954 39.406738,45.45969 C40.013548,48.11983 42.301259,50.33094 45.843971,51.68234 C49.386805,53.03374 53.766793,53.36584 58.17022,52.61694 C59.126149,52.45434 60.005418,52.78814 60.137132,53.36564 C60.270066,53.94214 59.603076,54.54294 58.647025,54.70554 C53.898751,55.51244 49.17892,55.28074 45.174051,54.06414 L43.676742,55.40884 L46.339819,56.42694 C47.109225,56.72024 47.260225,57.38034 46.67844,57.90274 C46.096655,58.42504 45.001444,58.61104 44.232282,58.31754 L36.12135,55.22524 C35.35231,54.93194 35.203384,54.26954 35.785169,53.74704 C36.366954,53.22474 37.459724,53.03874 38.228886,53.33224 L40.894404,54.34794 L42.391713,53.00324 C38.872805,51.34994 36.606333,48.91634 35.952039,46.04858 C35.216446,42.82972 36.600352,39.44933 39.847777,36.53333 C43.096178,33.61647 47.817841,31.51178 53.146679,30.60626 C53.385813,30.56576 53.619455,30.55766 53.838082,30.57526 L53.838082,30.57527 Z" id="path-1"></path>
    </defs>
    <g id="Homepage/Icons/Any-Expense" stroke="none" stroke-width="1" fill="none" fill-rule="evenodd">
        <path d="M50.4764,15.51442 C49.9793333,15.5338236 49.5046178,15.7260716 49.13412,16.05801 L6.6575896,54.20244 C6.21663693,54.497661 5.90133362,54.9464194 5.7730706,55.46134 L5.7608606,55.48734 C5.75660527,55.5032923 5.75253499,55.5192934 5.7486506,55.53534 C5.6961606,55.73404 4.9999956,58.46324 4.9999956,62.11804 C4.9999956,65.91114 5.7653736,68.77224 5.7653736,68.77224 C5.9422402,69.4348633 6.42646186,69.9722951 7.0671266,70.21704 L49.357623,86.34604 C50.1055062,86.6316959 50.9503296,86.4752538 51.546336,85.94074 L94.270797,47.5769 C94.8333704,47.0844118 95.097551,46.3336605 94.9673607,45.597397 C94.8371704,44.8611335 94.3315551,44.2465017 93.634207,43.9768 L93.634207,43.9748 L93.543907,43.9415 L92.165867,43.41458 C92.104867,42.73923 92.055997,42.02165 92.055997,41.19968 C92.055997,39.52429 92.217747,38.08788 92.380217,37.06552 L94.268517,35.37037 C94.8225134,34.8726215 95.0773221,34.1222976 94.9410062,33.3901203 C94.8046903,32.657943 94.2969255,32.049594 93.600917,31.78457 L51.312823,15.65277 C51.0488751,15.5524487 50.7676585,15.5054462 50.485433,15.51448 L50.473223,15.51448 L50.4764,15.51442 Z M89.355165,39.7901 C89.333195,40.24114 89.319765,40.71157 89.319765,41.19916 C89.319765,43.12852 89.52057,44.77129 89.713196,45.93174 L49.668542,81.88994 L9.7907566,66.67884 C9.6412206,66.03584 9.2806266,64.77274 9.2806266,62.11794 C9.2806266,60.87194 9.3795066,59.82724 9.4927846,58.93264 L49.365809,74.13904 C50.1136753,74.4246188 50.9584388,74.2681404 51.554399,73.73364 L89.355531,39.7901 L89.355165,39.7901 Z" id="Shape" fill="#1F2D3D"></path>
        <g id="Path">
            <use fill="#518AEE" xlink:href="#path-1"></use>
            <use fill-opacity="0.5" fill="#FFFFFF" xlink:href="#path-1"></use>
        </g>
        <path d="M58.096246,33.62702 C60.411789,33.64532 62.675086,34.01785 64.669464,34.77857 C71.053962,37.21399 72.309939,42.72814 67.473287,47.07139 C62.63639,51.41464 53.508738,52.96624 47.12424,50.53084 C40.742305,48.09651 39.488403,42.58364 44.325299,38.24039 C47.650483,35.2545 53.001904,33.58666 58.096246,33.62702 Z" id="Path" fill="#518AEE"></path>
    </g>
</svg>