<?xml version="1.0" encoding="UTF-8"?>
<svg width="100px" height="100px" viewBox="0 0 100 100" version="1.1" xmlns="http://www.w3.org/2000/svg" xmlns:xlink="http://www.w3.org/1999/xlink">
    <!-- Generator: Sketch 50.2 (55047) - http://www.bohemiancoding.com/sketch -->
    <title>Homepage/Icons/Avoid Middleman</title>
    <desc>Created with Sketch.</desc>
    <defs>
        <circle id="path-1" cx="32" cy="26" r="5"></circle>
        <circle id="path-2" cx="68" cy="26" r="5"></circle>
    </defs>
    <g id="Homepage/Icons/Avoid-Middleman" stroke="none" stroke-width="1" fill="none" fill-rule="evenodd">
        <path d="M89.4932205,52.3516077 C84.4898967,52.6338294 82.8632331,58.1327078 84.1954528,59.7493714 C84.942118,57.7915974 86.991003,56.4082666 89.0865546,56.4471555 C91.8932159,56.4982665 94.1509894,58.929373 94.1432117,61.7038122 C94.1332117,65.4426939 90.1565526,68.0382446 86.8321144,68.5982435 C83.0598994,69.2337979 78.8543518,68.1249111 75.8121354,65.9371375 C70.9677001,62.4526996 67.5965954,56.9082657 61.5510513,55.2760466 C55.5655071,53.6604941 52.0388471,55.0616025 49.9999621,56.8827102 C47.9621882,55.0616025 44.4355282,53.6604941 38.449984,55.2760466 C32.40444,56.9082657 29.0333352,62.4526996 24.1877889,65.9371375 C21.1455724,68.1249111 16.941136,69.2337979 13.1689209,68.5982435 C9.84448276,68.0382446 5.86782364,65.4426939 5.85671255,61.7038122 C5.84893479,58.929373 8.10781939,56.4982665 10.9144807,56.4471555 C13.0100323,56.4082666 15.0578062,57.7915974 15.8055826,59.7493714 C17.1378023,58.1327078 15.5111387,52.6338294 10.5078148,52.3516077 C2.77227391,51.9149418 -1.43105145,59.3749277 0.443389438,67.1093575 C2.60560756,76.0315627 11.426702,80.7226649 19.0155765,82.3826618 C22.9344579,83.2393268 27.1577832,83.6126595 31.1055535,82.7148834 C37.3110973,81.3026638 44.2833063,78.5571135 49.0188529,74.1560107 C49.3677411,73.8315669 49.6899627,73.4926787 49.9999621,73.1460127 C50.3099615,73.4926787 50.6332942,73.8315669 50.9810714,74.1560107 C55.717729,78.5571135 62.689938,81.3026638 68.8954818,82.7148834 C72.8432521,83.6126595 77.0654663,83.2393268 80.9854589,82.3826618 C88.5743334,80.7226649 97.3943166,76.0315627 99.5565347,67.1093575 C101.430976,59.3749277 97.2287614,51.9149418 89.4932205,52.3516077" id="Shape" fill="#1F2D3D" fill-rule="nonzero"></path>
        <path d="M73.2292339,33.2969652 L72.4322687,32.0261991 L74.9738009,30.4322687 L75.7707661,31.7030348 C77.3011498,34.1432414 78.9276726,37.509148 84.6599114,39.6834471 C90.5053349,41.9006784 93.1167876,42.0034844 98.4990392,42.000037 L99.9990389,41.9990763 L100.00096,44.9990757 L98.5009608,45.0000364 C92.7403148,45.0037262 89.7703873,44.8304699 83.595948,42.4884394 C77.3083239,40.1034768 75.1828936,36.4120879 73.2292339,33.2969652 Z" id="Line" fill="#518AEE" fill-rule="nonzero"></path>
        <g id="Oval-2">
            <use fill="#518AEE" xlink:href="#path-1"></use>
            <use fill-opacity="0.5" fill="#FFFFFF" xlink:href="#path-1"></use>
        </g>
        <g id="Oval-2-Copy-2">
            <use fill="#518AEE" xlink:href="#path-2"></use>
            <use fill-opacity="0.5" fill="#FFFFFF" xlink:href="#path-2"></use>
        </g>
        <path d="M68,33 C71.8659932,33 75,29.8659932 75,26 C75,22.1340068 71.8659932,19 68,19 C64.1340068,19 61,22.1340068 61,26 C61,29.8659932 64.1340068,33 68,33 Z M68,36 C62.4771525,36 58,31.5228475 58,26 C58,20.4771525 62.4771525,16 68,16 C73.5228475,16 78,20.4771525 78,26 C78,31.5228475 73.5228475,36 68,36 Z" id="Oval-2-Copy" fill="#518AEE" fill-rule="nonzero"></path>
    </g>
</svg>