<?xml version="1.0" encoding="UTF-8"?>
<svg width="360px" height="314px" viewBox="0 0 360 314" version="1.1" xmlns="http://www.w3.org/2000/svg" xmlns:xlink="http://www.w3.org/1999/xlink">
    <title>collaborate</title>
    <defs>
        <path d="M212.75281,92.8252464 L187.819416,67.8918522 C185.630279,65.7027159 182.080988,65.7027159 179.891852,67.8918522 C177.702716,70.0809884 177.702716,73.6302795 179.891852,75.8194157 L204.825246,100.75281 C201.746707,103.978038 198.755649,107.290749 195.852074,110.690941 C188.37591,119.4458 175.218067,120.482387 166.463209,113.006224 C165.631936,112.296363 164.857788,111.522214 164.147927,110.690941 C160.027181,105.865398 155.730235,101.216054 151.25709,96.7429095 C146.783946,92.2697649 142.134602,87.9728196 137.309059,83.8520735 C128.5542,76.3759104 127.517613,63.2180675 134.993776,54.463209 C135.703637,53.631936 136.477786,52.8577877 137.309059,52.1479266 C142.134602,48.0271805 146.783946,43.7302351 151.25709,39.2570905 C155.730235,34.7839459 160.02718,30.134602 164.147926,25.3090589 C171.62409,16.5542002 184.781933,15.517613 193.536791,22.9937764 C194.368064,23.7036374 195.142212,24.4777857 195.852073,25.3090587 C199.972819,30.1346019 204.269765,34.7839458 208.74291,39.2570905 C213.216054,43.7302351 217.865398,48.0271804 222.690941,52.1479265 C231.4458,59.6240896 232.482387,72.7819325 225.006224,81.536791 C224.296363,82.368064 223.522214,83.1422123 222.690941,83.8520734 C219.290749,86.755649 215.978038,89.7467067 212.75281,92.8252464 L212.75281,92.8252464 Z" id="path-1"></path>
    </defs>
    <g id="Page-1" stroke="none" stroke-width="1" fill="none" fill-rule="evenodd">
        <g id="collaborate">
            <path d="M75.4789535,234.361261 C72.0679766,236.625241 66.0040177,241.153202 66.0040177,241.153202 C62.9720382,243.039853 61.0770511,240.775872 61.8350459,238.511892 C62.9720382,233.983931 64.1090305,231.342621 66.0040177,226.43733 C67.8990048,221.154709 78.1319355,198.137575 78.1319355,198.137575 C79.2689278,195.118934 78.1319355,192.100294 75.099956,190.590973 C72.0679766,189.458983 69.0359971,190.590973 67.5200074,193.609614 L55.3920896,221.532039 C55.0130922,222.286699 54.2550973,222.664029 53.4971024,222.664029 L53.118105,222.664029 C51.9811127,222.286699 51.6021153,221.532039 51.6021153,220.400049 L62.2140434,185.308352 C62.9720382,182.289712 61.4560485,179.271071 58.4240691,178.139081 C55.3920896,177.384421 52.3601101,178.893741 51.2231179,181.912382 L40.2321923,218.890728 C39.8531949,219.645388 39.0952,220.400049 38.3372052,220.022719 C37.2002129,220.022719 36.8212155,218.890728 36.8212155,218.136068 L42.8851744,185.685682 C43.6431692,182.667042 41.3691846,179.648401 38.3372052,179.271071 C35.3052257,178.516411 32.2732463,180.780392 31.5152514,183.799032 L25.4512925,216.249418 C25.4512925,217.381408 24.3143002,217.758738 23.5563054,217.758738 L23.5563054,217.758738 C22.7983105,217.758738 22.0403156,216.626748 22.0403156,215.872088 L25.0722951,189.836313 C25.4512925,186.817673 23.1773079,183.799032 20.1453285,183.421702 C17.113349,183.044372 14.0813696,185.308352 13.7023721,188.326993 C13.7023721,188.326993 9.91239782,223.418689 8.77540552,236.247911 C8.01741066,244.171843 7.63841323,252.473104 10.6703927,258.133055 C10.6703927,258.133055 10.6703927,258.133055 10.6703927,258.133055 C10.6703927,262.661016 10.2913952,267.943637 9.15440295,271.716938 L0.0584645983,308.317954 C-0.320532833,310.204604 1.19545689,312.091255 3.09044405,312.091255 L36.442218,312.091255 C37.9582077,312.091255 39.0952,310.959265 39.4741975,309.827274 L46.6751487,280.772859 C47.4331435,277.376889 49.3281307,273.603588 51.2231179,270.207617 C51.2231179,270.207617 51.2231179,270.207617 51.2231179,270.207617 C53.8760999,269.452957 56.1500845,267.943637 58.4240691,266.434317 C67.8990048,260.019706 84.1958944,243.417183 84.1958944,243.417183 C86.8488764,241.153202 86.8488764,237.002572 84.5748918,234.361261 C82.3009072,231.719951 78.8899304,232.097281 75.4789535,234.361261 Z" id="Path" fill="#344B66" fill-rule="nonzero"></path>
            <path d="M351.925616,272.247447 C350.780544,268.073334 350.398853,263.140291 350.398853,258.586713 C350.398853,258.586713 350.398853,258.586713 350.398853,258.586713 C353.452378,252.894741 353.070688,244.92598 352.307306,236.957218 C351.162234,223.675949 347.727018,188.38572 347.727018,188.38572 C347.345327,185.350001 344.673493,183.073212 341.238276,183.452677 C338.184751,183.832142 335.894607,186.488395 336.276297,189.903579 L339.329823,215.327723 C339.329823,216.086652 338.948132,217.225047 337.80306,217.225047 L337.80306,217.225047 C336.657988,217.225047 335.894607,216.845582 335.894607,215.707187 L329.787556,183.073212 C329.024174,180.037493 326.35234,178.140169 322.917124,178.519634 C319.863598,178.899099 317.955145,181.934817 318.336835,184.970536 L324.443886,217.604512 C324.443886,218.742906 324.062196,219.501836 322.917124,219.501836 C322.153742,219.501836 321.00867,219.122371 321.00867,218.363441 L309.55795,181.934817 C308.794568,178.899099 305.359352,177.381239 302.305827,178.140169 C299.252301,178.899099 297.725538,182.314282 298.48892,185.350001 L309.176259,220.64023 C309.55795,221.778625 308.794568,222.537554 307.649496,222.917019 L307.267805,222.917019 C306.504424,222.917019 305.741043,222.537554 305.359352,221.778625 L293.14525,193.698227 C292.000178,190.662509 288.564962,189.524114 285.511436,190.662509 C282.457911,191.800903 281.312839,195.216087 282.457911,198.251805 C282.457911,198.251805 292.381869,221.019695 294.290322,225.952738 C296.198776,230.885781 297.343848,233.921499 298.48892,238.095613 C299.252301,240.751866 297.343848,242.649191 294.290322,240.751866 C294.290322,240.751866 288.183271,236.198288 284.748055,233.921499 C281.312839,231.64471 278.259313,231.64471 275.587479,233.921499 C272.915644,236.577753 273.297335,240.751866 275.969169,243.028655 C275.969169,243.028655 292.763559,259.725108 301.924136,266.17601 C304.21428,267.693869 306.886115,269.211729 309.176259,269.970658 C311.084712,273.385842 312.993166,277.18049 313.756547,280.595674 L320.626979,309.814466 C321.00867,311.332325 322.153742,312.091255 323.680505,312.091255 L356.887594,312.091255 C358.796048,312.091255 360.322811,310.193931 359.94112,308.296606 L351.925616,272.247447 Z" id="Path" fill="#344B66" fill-rule="nonzero"></path>
            <path d="M162.996435,168.489703 C159.958161,171.132392 154.641181,176.795297 154.641181,176.795297 C151.982692,179.060459 149.703986,177.550351 150.08377,174.907662 C150.463555,170.377338 151.223123,167.357122 151.982692,162.071744 C153.122044,156.786365 158.818808,132.624636 158.818808,132.624636 C159.578377,129.60442 157.679456,126.584204 154.641181,125.82915 C151.602907,125.074096 148.564633,126.961731 147.805065,129.981947 L140.968948,159.429054 C140.968948,160.184108 140.209379,160.939162 139.070026,160.939162 L138.310458,160.939162 C137.171105,160.939162 136.411537,160.184108 136.411537,159.051527 L140.968948,122.808934 C141.348732,119.788718 139.070026,116.768502 136.031752,116.390975 C132.993478,116.013448 129.955204,118.27861 129.57542,121.298826 L125.018009,159.429054 C125.018009,160.184108 124.25844,160.939162 123.119087,160.939162 C121.979734,160.939162 121.220166,160.184108 121.220166,159.051527 L121.59995,126.206677 C121.59995,123.186461 118.94146,120.543772 115.903186,120.543772 C112.864912,120.543772 110.206422,122.808934 110.206422,126.206677 L109.826638,159.051527 C109.826638,160.184108 109.067069,160.939162 107.927716,160.939162 L107.927716,160.939162 C107.168148,160.939162 106.408579,160.184108 106.028795,159.429054 L104.509658,134.134745 C104.509658,131.114528 101.471384,128.471839 98.4331097,128.849366 C95.3948355,128.849366 92.7363456,131.869582 93.1161299,134.889799 C93.1161299,134.889799 95.3948355,169.999811 96.5341883,182.835729 C97.2937569,190.763797 98.4331097,198.691864 102.230952,203.977242 C102.990521,208.507566 103.750089,213.415417 103.370305,217.945742 L97.2937569,310.062333 C97.2937569,311.949968 98.4331097,313.460076 100.332031,313.460076 L132.613694,313.460076 C134.132831,313.460076 135.651968,312.327495 135.651968,310.817387 L141.728516,220.965958 C142.108301,217.190688 143.247653,213.415417 144.387006,209.640147 C144.387006,209.640147 144.387006,209.640147 144.387006,209.640147 C146.665712,208.507566 148.944417,206.619931 150.843339,204.732296 C158.818808,196.804229 172.491042,177.550351 172.491042,177.550351 C174.769748,174.907662 174.010179,170.754865 171.351689,168.489703 C169.072984,165.09196 166.03471,165.847014 162.996435,168.489703 Z" id="Path" fill="#344B66" fill-rule="nonzero"></path>
            <path d="M261.948978,127.489574 C258.91524,127.111774 256.260719,129.756372 255.881502,132.77877 L254.364633,158.09135 C254.364633,158.84695 253.606198,159.602549 252.468546,159.602549 L252.468546,159.602549 C251.330894,159.602549 250.57246,158.84695 250.57246,157.713551 L250.193242,124.844976 C250.193242,121.822578 247.538721,119.17798 244.504983,119.17798 C241.471245,119.17798 238.816724,121.822578 238.816724,124.844976 L239.195941,157.713551 C239.195941,158.84695 238.437507,159.602549 237.299855,159.602549 C236.54142,159.602549 235.782986,158.84695 235.403768,158.09135 L230.853161,119.93358 C230.473944,116.911182 227.819423,114.644384 224.406467,115.022183 C221.372729,115.399983 219.097425,118.044581 219.476643,121.444778 L224.02725,157.713551 C224.02725,158.84695 223.268815,159.602549 222.131164,159.602549 L221.372729,159.602549 C220.614295,159.602549 219.85586,159.224749 219.476643,158.09135 L212.650732,128.622973 C211.892297,125.600575 208.858559,123.711577 205.824821,124.467176 C202.791082,125.222776 200.894996,128.245173 201.65343,131.267571 C201.65343,131.267571 207.720907,155.446752 208.479342,160.735948 C209.616993,166.025144 209.996211,169.047542 210.375428,173.581138 C210.754645,176.225736 208.479342,178.114735 205.824821,175.470137 C205.824821,175.470137 200.515779,169.803141 197.48204,167.158543 C194.448302,164.513945 191.414564,163.758346 188.760043,165.647345 C185.726305,167.914143 185.347087,171.69214 187.622391,174.714538 C187.622391,174.714538 200.894996,193.982323 209.237776,201.916117 C211.133862,203.805115 213.409166,205.694114 215.68447,206.827513 C215.68447,206.827513 215.68447,206.827513 215.68447,206.827513 C215.68447,206.827513 215.68447,206.827513 215.68447,206.827513 C216.822122,210.60551 217.959774,214.383507 218.338991,218.161504 L224.406467,308.077835 C224.406467,309.589034 225.923336,310.722433 227.440206,310.722433 L260.052892,310.722433 C261.948978,310.722433 263.08663,309.211235 263.08663,307.700036 L257.019153,217.028105 C256.639936,212.872308 257.019153,206.449713 257.777588,201.916117 C261.948978,197.004721 263.08663,188.693127 263.465847,180.759333 C264.603499,167.914143 266.878803,132.77877 266.878803,132.77877 C267.25802,130.134172 264.982716,127.489574 261.948978,127.489574 Z" id="Path" fill="#344B66" fill-rule="nonzero"></path>
            <path d="M33.6073615,118.696786 C34.3669888,119.447901 34.7468025,120.574573 34.3669888,121.701245 L31.7082931,133.343523 C30.9486657,135.972425 33.9871752,137.850212 36.2660572,136.347982 L46.5210265,130.339064 C47.2806539,129.58795 48.7999086,129.58795 49.5595359,130.339064 L59.8145052,136.347982 C62.0933873,137.850212 64.752083,135.596867 64.3722694,133.343523 L61.7135736,121.701245 C61.3337599,120.574573 61.7135736,119.447901 62.473201,118.696786 L71.5887292,110.810082 C73.4877976,109.307852 72.3483566,105.927836 70.0694745,105.552278 L57.9154368,104.425606 C56.7759958,104.425606 56.0163685,103.674492 55.2567411,102.54782 L50.698977,92.0322134 C49.5595359,89.7788693 46.1412128,89.7788693 45.3815855,92.0322134 L40.8238213,102.923377 C40.4440077,104.050049 39.3045666,104.425606 38.1651256,104.801164 L26.0110879,105.927836 C23.3523922,106.303393 22.2129511,109.307852 24.4918332,111.185639 L33.6073615,118.696786 Z" id="Path" fill="#DDE2E8" fill-rule="nonzero"></path>
            <path d="M288.416417,115.733386 L297.58087,123.787063 C298.344575,124.55408 298.726427,125.704605 298.344575,126.85513 L295.671609,138.743891 C294.907905,141.42845 297.962722,143.345992 300.253836,141.811959 L310.563846,135.675824 C311.32755,134.908807 312.854959,134.908807 313.618664,135.675824 L323.928674,141.811959 C326.219787,143.345992 328.892753,141.044942 328.5109,138.743891 L325.837935,126.85513 C325.456083,125.704605 325.837935,124.55408 326.601639,123.787063 L335.766093,115.733386 C337.675354,114.199353 336.529797,110.747777 334.238684,110.364268 L322.019413,109.213743 C320.873856,109.213743 320.110151,108.446726 319.346447,107.296201 L314.76422,96.1744571 C313.618664,93.8734066 310.181994,93.8734066 309.418289,96.1744571 L304.836062,107.296201 C304.45421,108.446726 303.308654,108.830235 302.163097,109.213743 L289.943826,110.364268 C287.652712,110.747777 286.507156,113.815844 288.416417,115.733386 Z" id="Path" fill="#DDE2E8" fill-rule="nonzero"></path>
            <path d="M287.03884,57.9303514 C289.317722,59.464385 291.976418,57.1633345 291.596604,54.8622841 L288.937908,42.9735231 C288.558095,41.8229979 288.937908,40.6724726 289.697536,39.9054558 L298.813064,31.8517791 C300.712132,30.3177454 299.572691,26.8661696 297.293809,26.4826612 L285.139771,25.332136 C284.00033,25.332136 283.240703,24.5651191 282.481076,23.4145939 L277.923312,12.6763582 C276.783871,10.3753077 273.365547,10.3753077 272.60592,12.6763582 L268.048156,23.7981023 C267.668342,24.9486276 266.528901,25.332136 265.38946,25.7156444 L253.235423,26.8661696 C250.576727,27.2496781 249.437286,30.3177454 251.716168,32.2352875 L260.831696,40.2889642 C261.591323,41.0559811 261.971137,42.2065063 261.591323,43.3570316 L258.932628,55.2457925 C258.173,57.9303514 261.21151,59.8478935 263.490392,58.3138598 L273.745361,52.1777251 C274.504988,51.4107083 276.024243,51.4107083 276.783871,52.1777251 L287.03884,57.9303514 Z" id="Path" fill="#DDE2E8" fill-rule="nonzero"></path>
            <path d="M104.068087,44.2952221 L101.409391,32.4064612 C101.029577,31.255936 101.409391,30.1054107 102.169018,29.3383939 L111.284547,21.2847171 C113.183615,19.7506835 112.044174,16.2991077 109.765292,15.9155993 L97.6112543,14.765074 C96.4718133,14.765074 95.7121859,13.9980572 94.9525586,12.847532 L90.3947945,1.72578787 C89.2553534,-0.575262625 85.8370303,-0.575262625 85.077403,1.72578787 L80.5196388,12.847532 C80.1398252,13.9980572 79.0003841,14.3815656 77.8609431,14.765074 L65.7069054,15.9155993 C63.0482097,16.2991077 61.9087686,19.367175 64.1876507,21.2847171 L73.303179,29.3383939 C74.0628063,30.1054107 74.44262,31.255936 74.0628063,32.4064612 L71.4041106,44.2952221 C70.6444832,46.979781 73.6829926,48.8973231 75.9618747,47.3632895 L86.216844,41.2271548 C86.9764714,40.460138 88.4957261,40.460138 89.2553534,41.2271548 L99.5103227,47.3632895 C102.169018,48.8973231 104.827714,46.979781 104.068087,44.2952221 Z" id="Path" fill="#DDE2E8" fill-rule="nonzero"></path>
            <mask id="mask-2" fill="white">
                <use xlink:href="#path-1"></use>
            </mask>
            <use id="Mark" fill="#518AEE" xlink:href="#path-1"></use>
        </g>
    </g>
</svg>