<?xml version="1.0" encoding="UTF-8"?>
<svg width="100px" height="100px" viewBox="0 0 100 100" version="1.1" xmlns="http://www.w3.org/2000/svg" xmlns:xlink="http://www.w3.org/1999/xlink">
    <!-- Generator: Sketch 50.2 (55047) - http://www.bohemiancoding.com/sketch -->
    <title>Homepage/Icons/Early Bird</title>
    <desc>Created with Sketch.</desc>
    <defs>
        <path d="M9.79635434,28.0378298 C9.82870548,29.573621 8.92825248,30.9790578 7.51111642,31.6046539 C7.27994025,31.7368491 7.11420474,31.9577272 7.05313062,32.2150182 C6.99205649,32.4723091 7.04107111,32.7431489 7.18857533,32.963444 C9.02443702,35.7172289 11.9808379,37.5427814 15.2864154,37.9637917 C16.0780349,38.0535623 16.8592882,37.7261391 17.3451883,37.1009599 C18.8312479,35.2131494 19.8701755,33.019089 20.3853097,30.6806766 C20.4329252,30.4353343 20.366221,30.1818178 20.2037532,29.9906518 C20.0412854,29.7994858 19.800388,29.6910662 19.5480753,29.6955538 L19.2392594,29.6955538 C16.1934352,29.6845242 13.2407112,28.6550609 10.8600537,26.774155 C10.6558924,26.6403396 10.39518,26.6243497 10.1758964,26.7321948 C9.95661283,26.8400399 9.81198039,27.0553809 9.79635434,27.2972892 L9.79635434,28.0378298 Z" id="path-1"></path>
        <path d="M7.4431145,14.0281187 C6.22363596,16.3218596 5.58762721,18.8754347 5.59021889,21.4674946 L5.59021889,22.0313925 C5.59113292,22.6101664 5.79213927,23.1711921 6.15981273,23.621177 C8.38986411,26.3618047 11.7813129,27.9187765 15.3350773,27.8334263 C16.0357775,27.8076105 16.5858247,27.2297859 16.5703411,26.5357818 L16.5703411,21.4674946 C16.5711341,21.2562512 16.5848846,21.0452503 16.6115165,20.8356572 C16.6839231,20.3134002 16.4062707,19.8048798 15.9252589,19.5787764 C13.2954877,18.4445322 11.1037194,16.5033376 9.67345182,14.0417066 C9.46022409,13.6278559 9.03172045,13.3662236 8.56245751,13.3633647 C8.09319457,13.3605058 7.66147089,13.6168973 7.4431145,14.0281187 Z" id="path-2"></path>
        <path d="M1.51277666,40.628622 C1.85267242,43.4854761 4.33847899,45.613386 7.24302792,45.5338543 C10.0754026,45.4898857 12.8455803,44.7046468 15.2722423,43.2578809 C15.5691904,43.0813606 15.7336367,42.7485663 15.6921349,42.4081332 C15.6506331,42.0677001 15.4109326,41.7831944 15.0800901,41.6816843 C11.9901109,40.7069564 9.35558799,38.6676604 7.6547825,35.9340021 C7.15029073,35.068487 6.10373131,34.6693361 5.14307955,34.9760551 C2.76463226,35.8104081 1.26694083,38.14239 1.51277666,40.628622 Z" id="path-3"></path>
    </defs>
    <g id="Homepage/Icons/Early-Bird" stroke="none" stroke-width="1" fill="none" fill-rule="evenodd">
        <g id="Group" transform="translate(73.737374, 16.000000)" fill-rule="nonzero">
            <g id="Shape" transform="translate(13.713911, 32.319841) rotate(-20.000000) translate(-13.713911, -32.319841) ">
                <use fill="#518AEE" fill-rule="evenodd" xlink:href="#path-1"></use>
                <use fill-opacity="0.5" fill="#FFFFFF" fill-rule="evenodd" xlink:href="#path-1"></use>
            </g>
            <g id="Shape" transform="translate(11.106564, 20.600051) rotate(-20.000000) translate(-11.106564, -20.600051) ">
                <use fill="#518AEE" fill-rule="evenodd" xlink:href="#path-2"></use>
                <use fill-opacity="0.25" fill="#FFFFFF" fill-rule="evenodd" xlink:href="#path-2"></use>
            </g>
            <path d="M7.31779999,9.84941207 C8.49896669,12.4642667 10.6409012,14.5362019 13.3088291,15.6446519 C13.8349308,15.8528014 14.4345638,15.7503597 14.8597714,15.3796879 C15.8016783,14.5852727 16.9987838,14.1492781 18.236159,14.1499828 C19.8018166,14.1591788 21.2969544,13.5061498 22.3455732,12.3551203 C23.3941919,11.2040909 23.8965159,9.66458098 23.7262201,8.12374862 C23.3424058,5.22039952 20.7562417,3.10510911 17.8038167,3.27966185 C14.2684512,3.37062854 10.8613089,4.60956965 8.10699627,6.80572221 C7.1766092,7.52534931 6.8525584,8.7751146 7.31779999,9.84941207 Z M17.117559,6.7649585 C17.5458399,6.7649585 17.8930302,7.10867685 17.8930302,7.53267492 C17.8930302,7.95667299 17.5458399,8.30039134 17.117559,8.30039134 C16.6892781,8.30039134 16.3420879,7.95667299 16.3420879,7.53267492 C16.3420879,7.32906387 16.4237891,7.13379219 16.5692181,6.98981744 C16.7146472,6.84584268 16.9118913,6.7649585 17.117559,6.7649585 Z" id="Shape" fill="#518AEE" transform="translate(15.433001, 9.510261) rotate(-20.000000) translate(-15.433001, -9.510261) "></path>
            <g id="Shape" transform="translate(8.592477, 40.204753) rotate(-20.000000) translate(-8.592477, -40.204753) ">
                <use fill="#518AEE" fill-rule="evenodd" xlink:href="#path-3"></use>
                <use fill-opacity="0.75" fill="#FFFFFF" fill-rule="evenodd" xlink:href="#path-3"></use>
            </g>
        </g>
        <path d="M71.7997051,30.5326079 L71.2990587,30.5326079 C69.015322,19.3868135 59.0640501,11 47.1373213,11 C34.4682548,11 24.1519797,20.4904059 22.7536225,32.6641038 C22.5908508,33.5040059 22.4749376,34.3951812 22.4749376,35.4157599 C22.4749376,69.5978238 9.84350796,65.8923342 2.74503054,64.7146719 C-4.35344687,63.5370095 2.74503054,89.1304318 32.3398911,89.1304318 C71.7997051,89.1304318 71.7997051,40.2989119 71.7997051,40.2989119 L81.6646586,35.4157599 L71.7997051,30.5326079 Z M52.1555803,35.4582221 C49.5014789,35.4582221 47.3517768,33.332395 47.3517768,30.7024567 C47.3517768,28.0725184 49.5014789,25.9466913 52.1555803,25.9466913 C54.8096817,25.9466913 56.9593837,28.0725184 56.9593837,30.7024567 C56.9593837,33.332395 54.8096817,35.4582221 52.1555803,35.4582221 Z" id="Shape" fill="#1F2D3D" fill-rule="nonzero"></path>
    </g>
</svg>