<?xml version="1.0" encoding="UTF-8"?>
<svg width="100px" height="100px" viewBox="0 0 100 100" version="1.1" xmlns="http://www.w3.org/2000/svg" xmlns:xlink="http://www.w3.org/1999/xlink">
    <!-- Generator: Sketch 50.2 (55047) - http://www.bohemiancoding.com/sketch -->
    <title>Homepage/Icons/Feedback Loop</title>
    <desc>Created with Sketch.</desc>
    <defs>
        <path d="M50,56 C53.3137085,56 56,53.3137085 56,50 C56,46.6862915 53.3137085,44 50,44 C46.6862915,44 44,46.6862915 44,50 C44,53.3137085 46.6862915,56 50,56 Z M50,60 C44.4771525,60 40,55.5228475 40,50 C40,44.4771525 44.4771525,40 50,40 C55.5228475,40 60,44.4771525 60,50 C60,55.5228475 55.5228475,60 50,60 Z" id="path-1"></path>
        <path d="M50,66 C58.836556,66 66,58.836556 66,50 C66,41.163444 58.836556,34 50,34 C41.163444,34 34,41.163444 34,50 C34,58.836556 41.163444,66 50,66 Z M50,70 C38.954305,70 30,61.045695 30,50 C30,38.954305 38.954305,30 50,30 C61.045695,30 70,38.954305 70,50 C70,61.045695 61.045695,70 50,70 Z" id="path-2"></path>
        <path d="M50,76 C64.3594035,76 76,64.3594035 76,50 C76,35.6405965 64.3594035,24 50,24 C35.6405965,24 24,35.6405965 24,50 C24,64.3594035 35.6405965,76 50,76 Z M50,80 C33.4314575,80 20,66.5685425 20,50 C20,33.4314575 33.4314575,20 50,20 C66.5685425,20 80,33.4314575 80,50 C80,66.5685425 66.5685425,80 50,80 Z" id="path-3"></path>
    </defs>
    <g id="Homepage/Icons/Feedback-Loop" stroke="none" stroke-width="1" fill="none" fill-rule="evenodd">
        <g id="Oval" fill-rule="nonzero">
            <use fill="#518AEE" fill-rule="evenodd" xlink:href="#path-1"></use>
            <use fill-opacity="0.75" fill="#FFFFFF" fill-rule="evenodd" xlink:href="#path-1"></use>
        </g>
        <g id="Oval" fill-rule="nonzero">
            <use fill="#518AEE" fill-rule="evenodd" xlink:href="#path-2"></use>
            <use fill-opacity="0.5" fill="#FFFFFF" fill-rule="evenodd" xlink:href="#path-2"></use>
        </g>
        <g id="Oval" fill-rule="nonzero">
            <use fill="#518AEE" fill-rule="evenodd" xlink:href="#path-3"></use>
            <use fill-opacity="0.25" fill="#FFFFFF" fill-rule="evenodd" xlink:href="#path-3"></use>
        </g>
        <path d="M50,86 C69.882251,86 86,69.882251 86,50 C86,30.117749 69.882251,14 50,14 C30.117749,14 14,30.117749 14,50 C14,69.882251 30.117749,86 50,86 Z M50,90 C27.90861,90 10,72.09139 10,50 C10,27.90861 27.90861,10 50,10 C72.09139,10 90,27.90861 90,50 C90,72.09139 72.09139,90 50,90 Z" id="Oval" fill="#518AEE" fill-rule="nonzero"></path>
        <g id="Group-2" transform="translate(49.972754, 50.065777) rotate(45.000000) translate(-49.972754, -50.065777) translate(31.972754, -4.934223)">
            <path d="M34.9186047,74.3139535 C35.8139535,71.8837209 35.3023256,69.4534884 34.5348837,67.1511628 C34.4069767,66.6395349 33.8953488,66 33,66 C31.8488372,66.127907 31.4651163,68.3023256 31.4651163,68.6860465 C31.0813953,71.372093 29.6744186,73.4186047 27.244186,74.4418605 C25.3255814,75.3372093 23.5348837,74.1860465 23.5348837,72.1395349 C23.0232558,55.6395349 22.6395349,39.1395349 22,22.6395349 C22,21.2325581 22.127907,19.8255814 22.8953488,18.6744186 C23.5348837,17.7790698 23.5348837,16.755814 23.1511628,15.7325581 C22.5116279,13.8139535 21.872093,11.8953488 21.4883721,9.97674419 C21.2325581,8.8255814 21.4883721,7.6744186 22.5116279,6.77906977 C23.1511628,6.26744186 23.5348837,5.37209302 23.6627907,4.60465116 C24.0465116,3.06976744 22.5116279,1.27906977 20.9767442,0.895348837 C19.5697674,0.639534884 18.8023256,1.27906977 18.2906977,3.19767442 C17.1395349,7.29069767 16.1162791,11.3837209 14.9651163,15.4767442 C14.5813953,16.627907 14.7093023,17.6511628 15.4767442,18.8023256 C15.9883721,19.5697674 16.372093,20.5930233 16.372093,21.4883721 C16.244186,29.2906977 15.9883721,36.9651163 15.7325581,44.7674419 C15.7325581,44.7674419 15.7325581,44.7674419 15.7325581,44.7674419 C15.4767442,52.6976744 15.3488372,60.627907 14.9651163,68.5581395 C14.9651163,69.4534884 14.5813953,70.6046512 13.9418605,70.9883721 C12.9186047,71.627907 11.7674419,71.372093 10.744186,70.6046512 C8.18604651,68.3023256 6.90697674,65.4883721 7.41860465,62.0348837 C7.54651163,60.755814 7.41860465,59.6046512 6.13953488,59.2209302 C4.73255814,58.8372093 3.96511628,59.6046512 3.45348837,60.8837209 C1.27906977,65.872093 0.895348837,70.9883721 2.94186047,76.1046512 C4.09302326,78.9186047 4.86046512,81.8604651 4.09302326,84.8023256 C3.19767442,87.872093 2.30232558,90.9418605 1.15116279,93.8837209 C0.38372093,95.9302326 2.70616862e-14,97.8488372 0.38372093,100.023256 C1.53488372,105.395349 5.24418605,108.976744 10.744186,109.104651 C15.4767442,109.104651 20.3372093,109.232558 25.0697674,108.976744 C26.9883721,108.848837 29.0348837,108.337209 30.6976744,107.313953 C34.9186047,104.883721 36.3255814,100.406977 34.7906977,94.9069767 C32.6162791,88 32.3604651,81.2209302 34.9186047,74.3139535 Z M25.3255814,103.22093 C24.6860465,103.22093 24.0465116,102.709302 24.0465116,101.94186 C24.0465116,101.302326 24.5581395,100.662791 25.3255814,100.662791 C25.9651163,100.662791 26.6046512,101.174419 26.6046512,101.94186 C26.6046512,102.709302 26.0930233,103.22093 25.3255814,103.22093 Z M29.4186047,99.6395349 C28.7790698,99.6395349 28.1395349,99.127907 28.1395349,98.3604651 C28.1395349,97.7209302 28.6511628,97.0813953 29.4186047,97.0813953 C30.0581395,97.0813953 30.6976744,97.5930233 30.6976744,98.3604651 C30.5697674,99.127907 30.0581395,99.6395349 29.4186047,99.6395349 Z" id="Shape" fill="#1F2D3D" fill-rule="nonzero"></path>
            <path d="M12.9864646,83.4913804 L23.6027436,83.4913804 C24.2422785,83.4913804 24.8818134,84.0030083 24.8818134,84.7704502 C24.8818134,85.4099851 24.3701855,86.0495199 23.6027436,86.0495199 L12.9864646,86.0495199 C12.3469297,86.0495199 11.7073948,85.537892 11.7073948,84.7704502 C11.8353018,84.0030083 12.3469297,83.4913804 12.9864646,83.4913804 Z" id="Path" fill="#FFFFFF"></path>
            <path d="M12.9864646,88.2239385 L23.6027436,88.2239385 C24.2422785,88.2239385 24.8818134,88.7355664 24.8818134,89.5030083 C24.8818134,90.1425432 24.3701855,90.7820781 23.6027436,90.7820781 L12.9864646,90.7820781 C12.3469297,90.7820781 11.7073948,90.2704502 11.7073948,89.5030083 C11.8353018,88.7355664 12.3469297,88.2239385 12.9864646,88.2239385 Z" id="Path" fill="#FFFFFF"></path>
            <path d="M12.9864646,95.3867292 C12.3469297,95.3867292 11.7073948,94.8751013 11.7073948,94.1076595 C11.7073948,93.4681246 12.2190227,92.8285897 12.9864646,92.8285897 L23.6027436,92.8285897 C24.2422785,92.8285897 24.8818134,93.3402176 24.8818134,94.1076595 C24.8818134,94.7471944 24.3701855,95.3867292 23.6027436,95.3867292 L12.9864646,95.3867292 Z" id="Path" fill="#FFFFFF"></path>
            <path d="M17.2674419,3.19767442 L16.627907,5.24418605 L15.4767442,4.86046512 C15.2209302,4.73255814 15.0930233,4.60465116 15.2209302,4.34883721 L15.6046512,3.06976744 C15.7325581,2.81395349 15.8604651,2.68604651 16.1162791,2.81395349 L17.2674419,3.19767442 Z" id="Shape" fill="#555555" fill-rule="nonzero"></path>
            <path d="M16.244186,6.52325581 L15.6046512,8.56976744 L14.4534884,8.18604651 C14.1976744,8.05813953 14.0697674,7.93023256 14.1976744,7.6744186 L14.5813953,6.39534884 C14.7093023,6.13953488 14.8372093,6.01162791 15.0930233,6.13953488 L16.244186,6.52325581 Z" id="Shape" fill="#555555" fill-rule="nonzero"></path>
            <path d="M15.2209302,9.97674419 L14.5813953,12.0232558 L13.4302326,11.6395349 C13.1744186,11.5116279 13.0465116,11.3837209 13.1744186,11.127907 L13.5581395,9.84883721 C13.6860465,9.59302326 13.8139535,9.46511628 14.0697674,9.59302326 L15.2209302,9.97674419 Z" id="Shape" fill="#555555" fill-rule="nonzero"></path>
        </g>
    </g>
</svg>