<?xml version="1.0" encoding="UTF-8"?>
<svg width="200px" height="200px" viewBox="0 0 200 200" version="1.1" xmlns="http://www.w3.org/2000/svg" xmlns:xlink="http://www.w3.org/1999/xlink">
    <!-- Generator: Sketch 50.2 (55047) - http://www.bohemiancoding.com/sketch -->
    <title>Homepage/Illustrations/Growth</title>
    <desc>Created with Sketch.</desc>
    <defs>
        <path d="M89.795122,77.549722 C91.2829268,69.3778916 94.8243902,61.8194669 98.1817073,57.8597694 C133.09878,70.1486119 129.978049,34.0028053 141.020732,10.8129045 C117.508537,22.376148 76.5756098,9.75438354 90.5987805,53.1391075 C100.491463,36.0686284 111.192683,28.4650823 134.3,17.2042733 C111.714634,29.8431107 94.0182927,47.9050386 86.7768293,69.4620367 C85.2009277,71.5446777 83.9157715,75.5227051 89.795122,77.549722 Z" id="path-1"></path>
    </defs>
    <g id="Homepage/Illustrations/Growth" stroke="none" stroke-width="1" fill="none" fill-rule="evenodd">
        <g id="Shape" fill-rule="nonzero">
            <use fill="#518AEE" fill-rule="evenodd" xlink:href="#path-1"></use>
            <use fill-opacity="0.5" fill="#FFFFFF" fill-rule="evenodd" xlink:href="#path-1"></use>
        </g>
        <path d="M82.8658537,78.0233333 C84.3691057,77.7477276 86.7537463,77.6396081 90.0197754,77.6989746 L86.65,69.0478563 C83.1166667,58.8041055 80.1926829,51.5887651 77.8780488,47.4018351 C85.25,10.2755552 66.3756098,5.0549007 24.8731707,6.90731232 C40.6463415,25.8753244 24.7731707,56.0114639 72.3865854,50.3883763 C77.5926829,54.6541669 81.5243902,68.4039634 82.8658537,78.0233333 Z" id="Shape" fill="#518AEE" fill-rule="nonzero"></path>
        <path d="M191.92439,173.795087 C183.337805,167.54396 179.02561,166.686656 170.181707,170.258554 C158.22561,175.086531 149.537805,173.746307 133.806098,185.785154 C120.432927,196.020368 112.739024,195.113064 100.381707,189.331443 C88.7646341,183.894938 79.8670732,182.726662 67.8926829,179.095009 C56.7426829,175.713351 50.2292683,168.471995 41.9060976,162.265989 C28.095122,151.972239 22.55,145.94428 8.70609756,141.899218 C-13.6658537,135.365168 10.8353659,122.158046 39.7914634,136.013939 C47.1158537,138.406586 55.0560976,139.355353 61.8695122,142.572378 C81.545122,151.860046 94.8865854,146.444272 110.543902,141.161424 C116.934146,139.002919 121.515854,134.698105 109.114634,136.509053 C95.5939024,138.483414 83.8231707,139.426083 69.145122,131.706685 C60.9560976,125.772627 57.4829268,119.360527 57.5756098,115.131321 C57.6768293,110.475292 62.104878,108.465566 69.3280488,112.65087 C69.5731707,112.793551 69.8207317,112.941109 70.0719512,113.097205 C80.1097561,119.342234 99.3756098,116.811784 105.987805,114.291089 C125.635366,106.796078 134.137805,110.185053 146.719512,105.636339 C162.779268,99.8315472 174.426829,102.894917 180.692683,112.103317 C182.382927,114.350845 189.70122,121.553177 198.458537,124.295819 C201.891463,125.370194 197.037805,177.516983 191.92439,173.795087 Z" id="Path" fill="#1F2D3D"></path>
        <path d="M145.454878,97.9071855 C131.757317,103.592467 119.443902,100.374222 111.852439,104.435138 C101.378049,110.037494 89.1743902,110.735044 85.2536585,110.582608 C74.3926829,110.155785 60.9560976,96.951102 53.1939024,108.838731 C47.8695122,116.997147 52.5512195,128.042105 66.1097561,136.684661 C43.2378049,131.909121 37.7902439,125.167758 22.1402439,123.923874 C61.2621951,80.0062308 91.6646341,65.6332727 145.454878,97.9071855 Z" id="Path" fill="#778F9B"></path>
    </g>
</svg>