<?xml version="1.0" encoding="UTF-8"?>
<svg width="348px" height="218px" viewBox="0 0 348 218" version="1.1" xmlns="http://www.w3.org/2000/svg" xmlns:xlink="http://www.w3.org/1999/xlink">
    <title>higher-returns</title>
    <g id="Page-1" stroke="none" stroke-width="1" fill="none" fill-rule="evenodd">
        <g id="Group" transform="translate(1.000000, 1.000000)">
            <g id="x" opacity="0.15" transform="translate(0.000000, 1.000000)" stroke="#344B66" stroke-width="2">
                <line x1="173" y1="332.5" x2="173" y2="-13.5" id="Line-2-Copy-2" transform="translate(173.000000, 159.500000) rotate(90.000000) translate(-173.000000, -159.500000) "></line>
                <line x1="173" y1="279.5" x2="173" y2="-66.5" id="Line-2-Copy-3" transform="translate(173.000000, 106.500000) rotate(90.000000) translate(-173.000000, -106.500000) "></line>
                <line x1="173" y1="226.5" x2="173" y2="-119.5" id="Line-2-Copy-4" transform="translate(173.000000, 53.500000) rotate(90.000000) translate(-173.000000, -53.500000) "></line>
                <line x1="173" y1="173.5" x2="173" y2="-172.5" id="Line-2-Copy-5" transform="translate(173.000000, 0.500000) rotate(90.000000) translate(-173.000000, -0.500000) "></line>
            </g>
            <g id="y" opacity="0.15" transform="translate(59.500000, 0.500000)" stroke="#344B66" stroke-width="2">
                <line x1="0.5" y1="213" x2="0.5" y2="1.00502939e-13" id="y-copy"></line>
                <line x1="57.5" y1="213" x2="57.5" y2="1.00502939e-13" id="y-copy-2"></line>
                <line x1="114.5" y1="213" x2="114.5" y2="1.00502939e-13" id="y-copy-3"></line>
                <line x1="171.5" y1="213" x2="171.5" y2="1.00502939e-13" id="y-copy-4"></line>
                <line x1="228.5" y1="213" x2="228.5" y2="1.00502939e-13" id="y-copy-5"></line>
                <line x1="285.5" y1="213" x2="285.5" y2="1.00502939e-13" id="y-copy-6"></line>
            </g>
            <path d="M3,212.50046 C48.4010417,206.38557 101.734375,189.052083 163,160.5 C224.265625,131.947917 277.598958,92.28125 323,41.5" id="Line-2" stroke="#518AEE" stroke-width="6" stroke-linecap="round"></path>
            <path d="M340.101124,46.9300986 L330.127766,36.9567409 C329.252112,36.0810864 327.832395,36.0810864 326.956741,36.9567409 C326.081086,37.8323954 326.081086,39.2521118 326.956741,40.1277663 L336.930099,50.101124 C335.698683,51.3912153 334.50226,52.7162995 333.340829,54.0763764 C330.350364,57.5783199 325.087227,57.9929548 321.585284,55.0024895 C321.252774,54.718545 320.943115,54.4088857 320.659171,54.0763765 C319.010872,52.1461592 317.292094,50.2864217 315.502836,48.4971638 C313.713578,46.707906 311.853841,44.9891278 309.923624,43.3408294 C306.42168,40.3503642 306.007045,35.087227 308.997511,31.5852836 C309.281455,31.2527744 309.591114,30.9431151 309.923623,30.6591707 C311.853841,29.0108722 313.713578,27.2920941 315.502836,25.5028362 C317.292094,23.7135784 319.010872,21.8538408 320.659171,19.9236236 C323.649636,16.4216801 328.912773,16.0070452 332.414716,18.9975105 C332.747226,19.281455 333.056885,19.5911143 333.340829,19.9236235 C334.989128,21.8538408 336.707906,23.7135783 338.497164,25.5028362 C340.286422,27.292094 342.146159,29.0108722 344.076376,30.6591706 C347.57832,33.6496358 347.992955,38.912773 345.002489,42.4147164 C344.718545,42.7472256 344.408886,43.0568849 344.076377,43.3408293 C342.7163,44.5022596 341.391215,45.6986827 340.101124,46.9300986 L340.101124,46.9300986 Z" id="Mark" fill="#518AEE" fill-rule="nonzero"></path>
            <line x1="3.5" y1="212.5" x2="323.5" y2="160.5" id="Line" stroke="#B8C1CB" stroke-width="6" stroke-linecap="round"></line>
            <circle id="Oval-Copy" stroke="#B8C1CB" stroke-width="6" fill="#FFFFFF" fill-rule="nonzero" cx="328" cy="160" r="16"></circle>
            <circle id="Oval-Copy-Copy" fill-opacity="0.5" fill="#B8C1CB" fill-rule="nonzero" cx="328" cy="160" r="16"></circle>
            <line x1="173" y1="387" x2="173" y2="41" id="x" stroke="#344B66" stroke-width="6" transform="translate(173.000000, 214.000000) rotate(90.000000) translate(-173.000000, -214.000000) "></line>
            <line x1="3" y1="213.5" x2="3" y2="0.5" id="y" stroke="#344B66" stroke-width="6"></line>
        </g>
    </g>
</svg>