<?xml version="1.0" encoding="UTF-8"?>
<svg width="200px" height="200px" viewBox="0 0 200 200" version="1.1" xmlns="http://www.w3.org/2000/svg" xmlns:xlink="http://www.w3.org/1999/xlink">
    <!-- Generator: Sketch 50.2 (55047) - http://www.bohemiancoding.com/sketch -->
    <title>Homepage/Illustrations/Interest</title>
    <desc>Created with Sketch.</desc>
    <defs>
        <path d="M75.1648352,23.9340659 C83.2967033,20.8571429 91.8681319,19.0989011 100.43956,18.8791209 C107.472527,18.6593407 118.461538,20.4175824 126.813187,23.0549451 L125.274725,12.0659341 L133.846154,5.47252747 C122.417582,1.95604396 106.153846,-0.461538462 95.8241758,0.197802198 C83.5164835,1.07692308 71.8681319,4.15384615 60.8791209,9.64835165 L58.4615385,10.7472527 L52.7472527,3.71428571 L42.8571429,34.9230769 L76.7032967,33.1648352 L70.5494505,25.6923077 L75.1648352,23.9340659 Z" id="path-1"></path>
        <path d="M26.8131868,103.934066 L26.5934066,99.0989011 C26.1538462,90.3076923 27.032967,81.7362637 29.4505495,73.3846154 C31.4285714,66.5714286 36.4835165,56.6813187 41.5384615,49.6483516 L30.7692308,47.6703297 L27.2527473,37.5604396 C20.2197802,47.4505495 12.967033,62.1758242 10.5494505,72.0659341 C7.69230769,83.9340659 7.03296703,96.2417582 8.57142857,108.32967 L9.01098901,110.967033 L0.43956044,114.263736 L27.032967,133.164835 L35.6043956,100.197802 L26.8131868,103.934066 Z" id="path-2"></path>
        <path d="M87.032967,160.197802 L87.6923077,169.868132 L83.0769231,168.549451 C74.7252747,166.351648 66.8131868,162.835165 59.5604396,157.78022 C53.6263736,153.824176 45.9340659,145.912088 40.6593407,138.879121 L35.6043956,148.549451 L24.8351648,148.769231 C32.0879121,158.43956 43.7362637,169.868132 52.5274725,175.362637 C62.8571429,181.956044 74.2857143,186.131868 86.3736264,188.32967 L89.010989,188.769231 L89.6703297,197.78022 L116.043956,178.21978 L87.032967,160.197802 Z" id="path-3"></path>
        <path d="M186.153846,108.32967 L159.78022,129.868132 L169.230769,132.285714 L166.593407,136.241758 C161.978022,143.494505 156.043956,150.087912 149.230769,155.362637 C143.736264,159.758242 133.626374,164.813187 125.494505,167.67033 L132.967033,175.582418 L129.89011,185.912088 C141.318681,181.956044 155.824176,174.483516 163.736264,167.89011 C173.186813,159.978022 180.879121,150.527473 186.593407,139.758242 L187.912088,137.340659 L196.703297,139.538462 L186.153846,108.32967 Z" id="path-4"></path>
    </defs>
    <g id="Homepage/Illustrations/Interest" stroke="none" stroke-width="1" fill="none" fill-rule="evenodd">
        <g id="Group-2" transform="translate(0.000000, 2.000000)" fill-rule="nonzero">
            <path d="M153.406593,51.4065934 L158.681319,43.2747253 L161.758242,47.010989 C167.252747,53.8241758 171.648352,61.2967033 174.505495,69.4285714 C176.923077,76.021978 178.681319,87.010989 178.681319,95.8021978 L188.571429,90.967033 L197.362637,97.1208791 C197.142857,85.032967 194.505495,68.989011 190.549451,59.3186813 C185.934066,47.8901099 179.340659,37.7802198 170.769231,28.989011 L168.791209,27.010989 L173.626374,19.3186813 L140.879121,19.5384615 L153.406593,51.4065934 Z" id="Shape" fill="#518AEE"></path>
            <g id="Shape">
                <use fill="#518AEE" fill-rule="evenodd" xlink:href="#path-1"></use>
                <use fill-opacity="0.8" fill="#FFFFFF" fill-rule="evenodd" xlink:href="#path-1"></use>
            </g>
            <g id="Shape">
                <use fill="#518AEE" fill-rule="evenodd" xlink:href="#path-2"></use>
                <use fill-opacity="0.6" fill="#FFFFFF" fill-rule="evenodd" xlink:href="#path-2"></use>
            </g>
            <g id="Shape">
                <use fill="#518AEE" fill-rule="evenodd" xlink:href="#path-3"></use>
                <use fill-opacity="0.4" fill="#FFFFFF" fill-rule="evenodd" xlink:href="#path-3"></use>
            </g>
            <g id="Shape">
                <use fill="#518AEE" fill-rule="evenodd" xlink:href="#path-4"></use>
                <use fill-opacity="0.2" fill="#FFFFFF" fill-rule="evenodd" xlink:href="#path-4"></use>
            </g>
        </g>
        <g id="Group" transform="translate(59.000000, 55.000000)">
            <path d="M43,86 C66.7482442,86 86,66.7482442 86,43 C86,19.2517558 66.7482442,0 43,0 C19.2517558,0 0,19.2517558 0,43 C0,66.7482442 19.2517558,86 43,86 Z" id="Oval" stroke="#1F2D3D" stroke-width="5" stroke-dasharray="5"></path>
            <path d="M43,78 C62.3299662,78 78,62.3299662 78,43 C78,23.6700338 62.3299662,8 43,8 C23.6700338,8 8,23.6700338 8,43 C8,62.3299662 23.6700338,78 43,78 Z" id="Oval" fill="#1F2D3D"></path>
            <path d="M41.4153074,45.3902133 C40.3111614,45.0137999 39.3074073,44.6311186 38.4040151,44.2421581 C37.5006228,43.8531976 36.7227134,43.3826878 36.0702635,42.8306148 C35.4178136,42.2785418 34.909663,41.6198282 34.5457967,40.8544542 C34.1819304,40.0890802 34,39.1543343 34,38.0501882 C34,36.3437807 34.5269709,34.9071577 35.5809285,33.740276 C36.6348861,32.5733944 38.1405172,31.7766646 40.097867,31.3500627 L40.097867,28.3011292 C40.3237151,28.2509408 40.675029,28.1882061 41.1518193,28.1129235 C41.6286097,28.0376408 42.1179398,28 42.6198243,28 C43.5984992,28 44.3638617,28.1693835 44.9159348,28.5081556 C45.4680078,28.8469277 45.7440402,29.5683759 45.7440402,30.672522 L45.7440402,31.161857 C47.2998823,31.3626108 48.5483014,31.7641124 49.489335,32.3663739 C50.4303686,32.9686354 50.9008783,33.7967325 50.9008783,34.8506901 C50.9008783,35.50314 50.7503152,36.0614782 50.4491844,36.5257215 C50.1480537,36.9899647 49.7841928,37.3851928 49.357591,37.7114178 C48.8055179,37.3600986 48.0652493,37.0526989 47.1367629,36.7892095 C46.2082764,36.5257201 45.1919754,36.3939774 44.0878294,36.3939774 C42.9585891,36.3939774 42.130492,36.550814 41.6035132,36.8644918 C41.0765344,37.1781697 40.8130489,37.5733979 40.8130489,38.0501882 C40.8130489,38.4266016 40.976159,38.7340013 41.3023839,38.9723965 C41.6286089,39.2107917 42.117939,39.4303629 42.770389,39.6311167 L44.7653701,40.2710163 C47.1242276,41.0238432 48.9372584,41.983683 50.2045169,43.1505646 C51.4717755,44.3174462 52.1053952,45.9046324 52.1053952,47.9121706 C52.1053952,49.6185782 51.5658774,51.0677481 50.4868256,52.259724 C49.4077738,53.4516998 47.8268611,54.2609765 45.7440402,54.6875784 L45.7440402,57.6988708 C45.5181921,57.7490592 45.1668782,57.8117939 44.6900878,57.8870765 C44.2132975,57.9623592 43.7239674,58 43.2220828,58 C42.2434079,58 41.4780454,57.8306165 40.9259724,57.4918444 C40.3738994,57.1530723 40.097867,56.4316241 40.097867,55.327478 L40.097867,54.9510665 C39.1944748,54.8506896 38.3726511,54.6875795 37.6323714,54.4617315 C36.8920917,54.2358834 36.2521984,53.9473041 35.7126725,53.5959849 C35.1731466,53.2446657 34.7528246,52.8306172 34.4516939,52.3538269 C34.1505631,51.8770365 34,51.3375187 34,50.7352572 C34,50.0075246 34.2132977,49.3864518 34.6398996,48.8720201 C35.0665015,48.3575884 35.5307378,47.9623602 36.0326223,47.6863237 C36.7352607,48.2383967 37.5947252,48.7151799 38.6110414,49.1166876 C39.6273577,49.5181952 40.7377606,49.718946 41.9422836,49.718946 C43.1719008,49.718946 44.0376386,49.5307422 44.5395232,49.1543287 C45.0414078,48.7779153 45.2923463,48.3387729 45.2923463,47.8368883 C45.2923463,47.3350038 45.0915955,46.9523225 44.6900878,46.6888331 C44.2885802,46.4253437 43.7239685,46.1681317 42.9962359,45.9171895 L41.4153074,45.3902133 Z" id="$" fill="#FAFAFA"></path>
        </g>
    </g>
</svg>