<?xml version="1.0" encoding="UTF-8"?>
<svg width="100px" height="100px" viewBox="0 0 100 100" version="1.1" xmlns="http://www.w3.org/2000/svg" xmlns:xlink="http://www.w3.org/1999/xlink">
    <!-- Generator: Sketch 50.2 (55047) - http://www.bohemiancoding.com/sketch -->
    <title>Homepage/Icons/Maximize FAFSA</title>
    <desc>Created with Sketch.</desc>
    <defs>
        <path d="M52.7428571,36.9387755 L52.7428571,33.9102041 C52.7428571,33.2564793 53.2728058,32.7265306 53.9265306,32.7265306 L68.8489796,32.7265306 C69.5027044,32.7265306 70.0326531,33.2564793 70.0326531,33.9102041 L70.0326531,36.9387755 C70.0326531,37.5925003 69.5027044,38.122449 68.8489796,38.122449 L53.9265306,38.122449 C53.2728058,38.122449 52.7428571,37.5925003 52.7428571,36.9387755 Z" id="path-1"></path>
        <path d="M52.7428571,26.522449 L52.7428571,23.4857143 C52.7428571,22.8319895 53.2728058,22.3020408 53.9265306,22.3020408 L68.8489796,22.3020408 C69.5027044,22.3020408 70.0326531,22.8319895 70.0326531,23.4857143 L70.0326531,26.4816327 C70.0326531,27.1353575 69.5027044,27.6653061 68.8489796,27.6653061 L53.9265306,27.6653061 C53.2728058,27.6653061 52.7428571,27.1353575 52.7428571,26.4816327 L52.7428571,26.522449 Z" id="path-2"></path>
        <path d="M30.2612245,57.7306122 L30.2612245,54.7428571 C30.2612245,54.0891323 30.7911732,53.5591837 31.444898,53.5591837 L68.8489796,53.5591837 C69.5027044,53.5591837 70.0326531,54.0891323 70.0326531,54.7428571 L70.0326531,57.7387755 C70.0326531,58.0527052 69.907945,58.3537772 69.6859631,58.575759 C69.4639813,58.7977409 69.1629093,58.922449 68.8489796,58.922449 L31.444898,58.922449 C31.1295487,58.9224565 30.827233,58.7966284 30.605015,58.5728779 C30.382797,58.3491274 30.2590497,58.045954 30.2612245,57.7306122 Z" id="path-3"></path>
        <path d="M52.7428571,47.3142857 L52.7428571,44.2857143 C52.7428571,43.9717846 52.8675652,43.6707126 53.0895471,43.4487307 C53.3115289,43.2267489 53.6126009,43.1020408 53.9265306,43.1020408 L68.8489796,43.1020408 C69.1629093,43.1020408 69.4639813,43.2267489 69.6859631,43.4487307 C69.907945,43.6707126 70.0326531,43.9717846 70.0326531,44.2857143 L70.0326531,47.2816327 C70.0326531,47.9353575 69.5027044,48.4653061 68.8489796,48.4653061 L53.9265306,48.4653061 C53.2853482,48.4655501 52.7605449,47.9552242 52.7428571,47.3142857 Z" id="path-4"></path>
        <path d="M30.2612245,68.155102 L30.2612245,65.1591837 C30.2612245,64.845254 30.3859326,64.544182 30.6079144,64.3222001 C30.8298963,64.1002183 31.1309682,63.9755102 31.444898,63.9755102 L38.5306122,63.9755102 C38.844542,63.9755102 39.1456139,64.1002183 39.3675958,64.3222001 C39.5895776,64.544182 39.7142857,64.845254 39.7142857,65.1591837 L39.7142857,68.155102 C39.7142857,68.8088268 39.1843371,69.3387755 38.5306122,69.3387755 L31.444898,69.3387755 C30.7911732,69.3387755 30.2612245,68.8088268 30.2612245,68.155102 Z" id="path-5"></path>
    </defs>
    <g id="Homepage/Icons/Maximize-FAFSA" stroke="none" stroke-width="1" fill="none" fill-rule="evenodd">
        <path d="M22.0816327,10 C19.8274092,10 18,11.8274092 18,14.0816327 L18,85.9183673 C18,88.1725908 19.8274092,90 22.0816327,90 L70.7102041,82.0653061 C77.4404119,80.8083341 82.3211348,74.9363751 82.3265306,68.0897959 L82.3265306,14.0816327 C82.3265306,12.9991164 81.8965027,11.9609371 81.1310481,11.1954825 C80.3655935,10.4300279 79.3274142,10 78.244898,10 L22.0816327,10 Z M74.0979592,68.0897959 C74.1787991,70.2758406 73.0586625,72.3313313 71.1778181,73.4483589 C69.2969737,74.5653865 66.9560875,74.5653865 65.0752431,73.4483589 C63.1943987,72.3313313 62.0742621,70.2758406 62.155102,68.0897959 C62.1752526,66.6578697 61.4434884,65.3201247 60.2268492,64.5647388 C59.01021,63.8093529 57.4866838,63.7468352 56.2122449,64.4 L26.1959184,79.2571429 L26.1959184,18.2285714 L74.0979592,18.2285714 L74.0979592,68.0897959 Z" id="Shape" fill="#1F2D3D" fill-rule="nonzero"></path>
        <g id="Path">
            <use fill="#518AEE" xlink:href="#path-1"></use>
            <use fill-opacity="0.5" fill="#FFFFFF" xlink:href="#path-1"></use>
        </g>
        <g id="Path">
            <use fill="#518AEE" xlink:href="#path-2"></use>
            <use fill-opacity="0.5" fill="#FFFFFF" xlink:href="#path-2"></use>
        </g>
        <g id="Path">
            <use fill="#518AEE" xlink:href="#path-3"></use>
            <use fill-opacity="0.5" fill="#FFFFFF" xlink:href="#path-3"></use>
        </g>
        <g id="Path">
            <use fill="#518AEE" xlink:href="#path-4"></use>
            <use fill-opacity="0.5" fill="#FFFFFF" xlink:href="#path-4"></use>
        </g>
        <g id="Path">
            <use fill="#518AEE" xlink:href="#path-5"></use>
            <use fill-opacity="0.5" fill="#FFFFFF" xlink:href="#path-5"></use>
        </g>
        <path d="M32.9142857,30.7265306 C32.9142857,27.5428571 35.1510204,25.1020408 38.7755102,24.3020408 L38.7755102,22.9469388 C38.7278414,22.2004229 39.0990503,21.4892845 39.7387728,21.1015818 C40.3784953,20.7138791 41.1806884,20.7138791 41.8204109,21.1015818 C42.4601333,21.4892845 42.8313423,22.2004229 42.7836735,22.9469388 L42.7836735,24.0081633 C43.7757516,24.0597911 44.7602115,24.2101947 45.722449,24.4571429 C46.8262469,24.7729228 47.5326809,25.8490125 47.3834903,26.9873574 C47.2342996,28.1257022 46.2744241,28.9834067 45.1265306,29.0040816 C44.9110763,29.0048603 44.696632,28.9746181 44.4897959,28.9142857 C43.5226586,28.6280376 42.5188021,28.4850224 41.5102041,28.4897959 C39.8122449,28.4897959 38.8326531,29.0857143 38.8326531,30.122449 C38.8326531,31.0204082 39.8367347,31.7061224 42.7918367,32.8163265 C46.9959184,34.3020408 48.7918367,36.3265306 48.7918367,39.5918367 C48.7918367,42.8571429 46.3428571,45.5183673 42.6204082,46.2612245 L42.6204082,47.844898 C42.668077,48.5914138 42.296868,49.3025522 41.6571456,49.6902549 C41.0174231,50.0779576 40.21523,50.0779576 39.5755075,49.6902549 C38.935785,49.3025522 38.5645761,48.5914138 38.6122449,47.844898 L38.6122449,46.5387755 C37.2755616,46.455778 35.954118,46.2090354 34.677551,45.8040816 C33.5141981,45.4282719 32.8425966,44.2136733 33.1428571,43.0285714 L33.1836735,42.8653061 C33.4478761,41.8612432 34.3576862,41.1629387 35.3959184,41.1673469 C35.6571552,41.1682475 35.9164416,41.2123813 36.1632653,41.2979592 C37.3368221,41.7064398 38.5696539,41.9188068 39.8122449,41.9265306 C41.7061224,41.9265306 42.8408163,41.2408163 42.8408163,40.0816327 C42.8408163,38.922449 41.8693878,38.1959184 39.3714286,37.355102 C36.3591837,36.3510204 32.9142857,34.677551 32.9142857,30.7183673 L32.9142857,30.7265306 Z" id="Path" fill="#518AEE"></path>
    </g>
</svg>