<?xml version="1.0" encoding="UTF-8"?>
<svg width="200px" height="200px" viewBox="0 0 200 200" version="1.1" xmlns="http://www.w3.org/2000/svg" xmlns:xlink="http://www.w3.org/1999/xlink">
    <!-- Generator: Sketch 50.2 (55047) - http://www.bohemiancoding.com/sketch -->
    <title>Homepage/Illustrations/Network</title>
    <desc>Created with Sketch.</desc>
    <defs>
        <path d="M137.466667,60 C148.133333,60 156.8,51.3333333 156.8,40.8 C156.8,30.2666667 148.133333,21.6 137.466667,21.6 C126.8,21.6 118.133333,30.2666667 118.133333,40.8 C118.133333,51.3333333 126.8,60 137.466667,60 Z" id="path-1"></path>
        <path d="M38.5333333,93.0666667 C38.5333333,82.4 29.8666667,73.8666667 19.2,73.8666667 C8.53333333,73.8666667 0,82.5333333 0,93.0666667 C0,103.733333 8.66666667,112.266667 19.3333333,112.266667 C30,112.266667 38.5333333,103.733333 38.5333333,93.0666667 Z" id="path-2"></path>
        <path d="M102.533333,114.933333 C110.4,114.933333 116.666667,108.533333 116.666667,100.8 C116.666667,93.0666667 110.4,86.6666667 102.533333,86.6666667 C94.6666667,86.6666667 88.4,93.0666667 88.4,100.8 C88.4,108.533333 94.8,114.933333 102.533333,114.933333 Z" id="path-3"></path>
        <path d="M180.666667,92.1333333 C191.333333,92.1333333 200,83.4666667 200,72.9333333 C200,62.4 191.333333,53.7333333 180.666667,53.7333333 C170,53.7333333 161.333333,62.4 161.333333,72.9333333 C161.333333,83.4666667 170.133333,92.1333333 180.666667,92.1333333 Z" id="path-4"></path>
    </defs>
    <g id="Homepage/Illustrations/Network" stroke="none" stroke-width="1" fill="none" fill-rule="evenodd">
        <path d="M19.3333333,134.8 C17.7333333,134.8 16.5333333,136 16.5333333,137.6 C16.5333333,139.2 17.7333333,140.4 19.3333333,140.4 C20.8,140.4 22.1333333,139.2 22.1333333,137.6 C22,136.133333 20.8,134.8 19.3333333,134.8 Z" id="Shape" fill="#778F9B" fill-rule="nonzero"></path>
        <path d="M19.3333333,148.666667 C17.7333333,148.666667 16.5333333,149.866667 16.5333333,151.466667 C16.5333333,153.066667 17.7333333,154.266667 19.3333333,154.266667 C20.8,154.266667 22.1333333,153.066667 22.1333333,151.466667 C22,150 20.8,148.666667 19.3333333,148.666667 Z" id="Shape" fill="#778F9B" fill-rule="nonzero"></path>
        <path d="M19.3333333,120.933333 C17.7333333,120.933333 16.5333333,122.133333 16.5333333,123.733333 C16.5333333,125.333333 17.7333333,126.533333 19.3333333,126.533333 C20.8,126.533333 22.1333333,125.333333 22.1333333,123.733333 C22,122.133333 20.8,120.933333 19.3333333,120.933333 Z" id="Shape" fill="#778F9B" fill-rule="nonzero"></path>
        <path d="M54.1333333,82.2666667 C52.6666667,82.2666667 51.3333333,83.4666667 51.3333333,85.0666667 C51.3333333,86.6666667 52.5333333,87.8666667 54.1333333,87.8666667 C55.7333333,87.8666667 56.9333333,86.6666667 56.9333333,85.0666667 C56.9333333,83.6 55.6,82.2666667 54.1333333,82.2666667 Z" id="Shape" fill="#778F9B" fill-rule="nonzero"></path>
        <path d="M54.1333333,68.4 C52.6666667,68.4 51.3333333,69.6 51.3333333,71.2 C51.3333333,72.8 52.5333333,74 54.1333333,74 C55.7333333,74 56.9333333,72.8 56.9333333,71.2 C56.9333333,69.7333333 55.6,68.4 54.1333333,68.4 Z" id="Shape" fill="#778F9B" fill-rule="nonzero"></path>
        <path d="M54.1333333,96.2666667 C52.6666667,96.2666667 51.3333333,97.4666667 51.3333333,99.0666667 C51.3333333,100.666667 52.5333333,101.866667 54.1333333,101.866667 C55.7333333,101.866667 56.9333333,100.666667 56.9333333,99.0666667 C56.9333333,97.4666667 55.6,96.2666667 54.1333333,96.2666667 Z" id="Shape" fill="#778F9B" fill-rule="nonzero"></path>
        <path d="M54.1333333,110.133333 C52.6666667,110.133333 51.3333333,111.333333 51.3333333,112.933333 C51.3333333,114.533333 52.5333333,115.733333 54.1333333,115.733333 C55.7333333,115.733333 56.9333333,114.533333 56.9333333,112.933333 C56.9333333,111.333333 55.6,110.133333 54.1333333,110.133333 Z" id="Shape" fill="#778F9B" fill-rule="nonzero"></path>
        <path d="M99.7333333,125.2 C99.7333333,126.8 100.933333,128 102.533333,128 C104.133333,128 105.333333,126.8 105.333333,125.2 C105.333333,123.733333 104.133333,122.4 102.533333,122.4 C101.066667,122.4 99.7333333,123.733333 99.7333333,125.2 Z" id="Shape" fill="#778F9B" fill-rule="nonzero"></path>
        <path d="M137.466667,96.2666667 C136,96.2666667 134.666667,97.4666667 134.666667,99.0666667 C134.666667,100.666667 135.866667,101.866667 137.466667,101.866667 C139.066667,101.866667 140.266667,100.666667 140.266667,99.0666667 C140.133333,97.4666667 138.933333,96.2666667 137.466667,96.2666667 Z" id="Shape" fill="#778F9B" fill-rule="nonzero"></path>
        <path d="M137.466667,82.2666667 C136,82.2666667 134.666667,83.4666667 134.666667,85.0666667 C134.666667,86.6666667 135.866667,87.8666667 137.466667,87.8666667 C139.066667,87.8666667 140.266667,86.6666667 140.266667,85.0666667 C140.133333,83.6 138.933333,82.2666667 137.466667,82.2666667 Z" id="Shape" fill="#778F9B" fill-rule="nonzero"></path>
        <path d="M137.466667,110.133333 C136,110.133333 134.666667,111.333333 134.666667,112.933333 C134.666667,114.4 135.866667,115.733333 137.466667,115.733333 C139.066667,115.733333 140.266667,114.533333 140.266667,112.933333 C140.133333,111.333333 138.933333,110.133333 137.466667,110.133333 Z" id="Shape" fill="#778F9B" fill-rule="nonzero"></path>
        <path d="M137.466667,68.4 C136,68.4 134.666667,69.6 134.666667,71.2 C134.666667,72.6666667 135.866667,74 137.466667,74 C139.066667,74 140.266667,72.8 140.266667,71.2 C140.133333,69.7333333 138.933333,68.4 137.466667,68.4 Z" id="Shape" fill="#778F9B" fill-rule="nonzero"></path>
        <path d="M180.666667,128.666667 C179.066667,128.666667 177.866667,129.866667 177.866667,131.466667 C177.866667,132.933333 179.066667,134.266667 180.666667,134.266667 C182.266667,134.266667 183.466667,133.066667 183.466667,131.466667 C183.466667,130 182.266667,128.666667 180.666667,128.666667 Z" id="Shape" fill="#778F9B" fill-rule="nonzero"></path>
        <path d="M180.666667,114.8 C179.066667,114.8 177.866667,116 177.866667,117.6 C177.866667,119.066667 179.066667,120.4 180.666667,120.4 C182.266667,120.4 183.466667,119.2 183.466667,117.6 C183.466667,116 182.266667,114.8 180.666667,114.8 Z" id="Shape" fill="#778F9B" fill-rule="nonzero"></path>
        <path d="M180.666667,100.933333 C179.066667,100.933333 177.866667,102.133333 177.866667,103.733333 C177.866667,105.2 179.066667,106.533333 180.666667,106.533333 C182.266667,106.533333 183.466667,105.333333 183.466667,103.733333 C183.466667,102.133333 182.266667,100.933333 180.666667,100.933333 Z" id="Shape" fill="#778F9B" fill-rule="nonzero"></path>
        <path d="M198.666667,180.4 L188.533333,180.4 L188.533333,151.066667 C188.533333,150.266667 187.866667,149.733333 187.2,149.733333 L170,149.733333 C169.2,149.733333 168.666667,150.4 168.666667,151.066667 L168.666667,167.733333 L151.866667,167.733333 L151.866667,131.6 C151.866667,130.8 151.2,130.266667 150.533333,130.266667 L125.6,130.266667 C124.8,130.266667 124.266667,130.933333 124.266667,131.6 L124.266667,158 L115.733333,158 L115.733333,141.333333 C115.733333,140.533333 115.066667,140 114.4,140 L96.6666667,140 C95.8666667,140 95.3333333,140.666667 95.3333333,141.333333 L95.3333333,174.4 L84.4,174.4 L84.4,155.6 C84.4,154.8 83.7333333,154.266667 83.0666667,154.266667 L67.0666667,154.266667 L67.0666667,131.6 C67.0666667,130.8 66.4,130.266667 65.7333333,130.266667 L43.7333333,130.266667 C42.9333333,130.266667 42.4,130.933333 42.4,131.6 L42.4,181.6 L29.4666667,181.6 L29.4666667,171.333333 C29.4666667,170.533333 28.8,170 28.1333333,170 L9.2,170 C8.4,170 7.86666667,170.666667 7.86666667,171.333333 L7.86666667,194.533333 C7.86666667,195.333333 8.53333333,195.866667 9.2,195.866667 L198.533333,195.866667 C199.333333,195.866667 199.866667,195.2 199.866667,194.533333 L199.866667,181.733333 C200,180.933333 199.333333,180.4 198.666667,180.4 Z" id="Shape" fill="#1F2D3D" fill-rule="nonzero"></path>
        <path d="M54.1333333,59.7333333 C69.4666667,59.7333333 82,47.2 82,31.8666667 C82,16.5333333 69.4666667,4 54.1333333,4 C38.8,4 26.2666667,16.5333333 26.2666667,31.8666667 C26.2666667,47.2 38.8,59.7333333 54.1333333,59.7333333 Z" id="Path" fill="#518AEE"></path>
        <g id="Path">
            <use fill="#518AEE" xlink:href="#path-1"></use>
            <use fill-opacity="0.25" fill="#FFFFFF" xlink:href="#path-1"></use>
        </g>
        <g id="Path">
            <use fill="#518AEE" xlink:href="#path-2"></use>
            <use fill-opacity="0.5" fill="#FFFFFF" xlink:href="#path-2"></use>
        </g>
        <g id="Path">
            <use fill="#518AEE" xlink:href="#path-3"></use>
            <use fill-opacity="0.25" fill="#FFFFFF" xlink:href="#path-3"></use>
        </g>
        <g id="Path">
            <use fill="#518AEE" xlink:href="#path-4"></use>
            <use fill-opacity="0.5" fill="#FFFFFF" xlink:href="#path-4"></use>
        </g>
        <path d="M39.0666667,41.4666667 L39.0666667,27.3333333 L42.4,27.3333333 L42.4,41.4666667 L39.0666667,41.4666667 Z M56,15.4666667 C56.6666667,16.1333333 56.9333333,16.9333333 57.0666667,17.8666667 L57.0666667,18 C57.2,20.1333333 57.0666667,22.1333333 56.6666667,24.2666667 L56.4,25.6 L65.4666667,25.6 C65.8666667,25.6 66.2666667,25.7333333 66.6666667,25.8666667 C67.4666667,26.2666667 68,27.2 68,28.1333333 C68,28.9333333 65.6,39.4666667 65.6,39.4666667 C65.6,40.6666667 64.5333333,41.7333333 63.3333333,41.7333333 L50.6666667,41.7333333 C49.2,41.7333333 47.7333333,41.4666667 46.4,40.8 L46.4,28.1333333 L49.7333333,24.8 C50.6666667,23.8666667 51.3333333,22.8 51.8666667,21.6 C52.4,20.4 52.6666667,19.2 52.6666667,17.8666667 C52.6666667,16.6666667 52.6666667,15.4666667 52.6666667,15.4666667 L53.4666667,14.9333333 C53.7333333,14.8 53.8666667,14.6666667 54.1333333,14.6666667 C54.2666667,14.6666667 54.4,14.6666667 54.5333333,14.6666667 C55.0666667,14.8 55.6,15.0666667 56,15.4666667 Z" id="Shape" fill="#FAFAFA" fill-rule="nonzero"></path>
        <path d="M127.6,37.2 C127.866667,36.5333333 128.266667,36 128.8,35.4666667 C129.333333,34.9333333 129.866667,34.5333333 130.533333,34.2666667 C131.2,34 131.866667,33.8666667 132.666667,33.8666667 C133.466667,33.8666667 134.133333,34 134.8,34.2666667 C135.466667,34.5333333 136,34.9333333 136.533333,35.4666667 C136.666667,35.6 136.8,35.8666667 136.933333,36 C137.066667,36.1333333 137.2,36.4 137.333333,36.5333333 C137.466667,36.2666667 137.6,36.1333333 137.733333,36 C137.866667,35.8666667 138,35.6 138.133333,35.4666667 C138.666667,34.9333333 139.2,34.5333333 139.866667,34.2666667 C140.533333,34 141.2,33.8666667 142,33.8666667 C142.8,33.8666667 143.466667,34 144.133333,34.2666667 C144.8,34.5333333 145.333333,34.9333333 145.866667,35.4666667 C146.4,36 146.8,36.5333333 147.066667,37.2 C147.333333,37.8666667 147.466667,38.5333333 147.466667,39.3333333 C147.466667,40.1333333 147.333333,40.8 147.066667,41.4666667 C147.066667,41.6 146.933333,41.6 146.933333,41.7333333 C146.533333,42.6666667 146,43.6 145.2,44.2666667 C143.2,46.4 140.933333,48.1333333 138.4,49.6 L137.2,50.2666667 L134.533333,48.5333333 C133.066667,47.4666667 131.6,46.4 130.266667,45.0666667 L129.466667,44.2666667 C128.666667,43.4666667 127.866667,42.4 127.466667,41.3333333 C127.466667,41.3333333 127.466667,41.3333333 127.466667,41.3333333 C127.2,40.6666667 127.066667,40 127.066667,39.2 C127.2,38.6666667 127.333333,37.8666667 127.6,37.2 Z" id="Shape" fill="#FAFAFA" fill-rule="nonzero"></path>
        <path d="M20.5333333,81.8666667 C20.9333333,82.2666667 21.2,82.9333333 21.2,83.4666667 L21.2,83.6 C21.2,85.0666667 21.2,86.5333333 20.9333333,87.8666667 L20.8,88.8 L27.0666667,88.8 C27.3333333,88.8 27.6,88.9333333 27.8666667,89.0666667 C28.4,89.3333333 28.8,90 28.8,90.5333333 C28.8,91.0666667 27.2,98.2666667 27.2,98.2666667 C27.2,99.0666667 26.5333333,99.8666667 25.6,99.8666667 L17.0666667,99.8666667 C16,99.8666667 15.0666667,99.6 14.1333333,99.2 L14.1333333,90.5333333 L16.4,88.2666667 C17.0666667,87.6 17.4666667,86.9333333 17.8666667,86.1333333 C18.2666667,85.3333333 18.4,84.4 18.4,83.6 C18.4,82.8 18.4,82 18.4,82 L18.9333333,81.6 C19.0666667,81.4666667 19.2,81.4666667 19.3333333,81.4666667 C19.4666667,81.4666667 19.4666667,81.4666667 19.6,81.4666667 C19.8666667,81.3333333 20.2666667,81.4666667 20.5333333,81.8666667 Z M11.2,90.4 L11.2,99.2 L9.73333333,99.2 L9.73333333,90.4 L11.2,90.4 Z" id="Shape" fill="#FAFAFA" fill-rule="nonzero"></path>
        <path d="M99.2,96 C99.7333333,96 100.266667,96.1333333 100.666667,96.2666667 C101.066667,96.4 101.6,96.8 101.866667,97.0666667 C102,97.2 102.133333,97.3333333 102.133333,97.4666667 C102.133333,97.6 102.266667,97.7333333 102.4,97.8666667 C102.533333,97.7333333 102.533333,97.6 102.666667,97.4666667 C102.8,97.3333333 102.933333,97.2 102.933333,97.0666667 C103.333333,96.6666667 103.733333,96.4 104.133333,96.2666667 C104.533333,96.1333333 105.066667,96 105.6,96 C106.133333,96 106.666667,96.1333333 107.066667,96.2666667 C107.466667,96.4 108,96.8 108.266667,97.0666667 C108.666667,97.4666667 108.933333,97.8666667 109.066667,98.2666667 C109.2,98.6666667 109.333333,99.2 109.333333,99.7333333 C109.333333,100.266667 109.2,100.8 109.066667,101.2 C109.066667,101.2 109.066667,101.333333 108.933333,101.333333 C108.666667,102 108.266667,102.666667 107.733333,103.2 C106.4,104.666667 104.8,106 102.933333,106.933333 L102.133333,107.466667 L100.266667,106.266667 C99.2,105.6 98.1333333,104.8 97.2,103.866667 L96.6666667,103.333333 C96,102.8 95.6,102 95.2,101.333333 C95.2,101.333333 95.2,101.333333 95.2,101.333333 C95.0666667,100.933333 94.9333333,100.4 94.9333333,99.8666667 C94.9333333,99.3333333 95.0666667,98.8 95.2,98.4 C95.3333333,98 95.7333333,97.4666667 96,97.2 C96.4,96.8 96.8,96.5333333 97.2,96.4 C98.1333333,96.1333333 98.6666667,96 99.2,96 Z" id="Shape" fill="#FAFAFA" fill-rule="nonzero"></path>
        <path d="M171.2,79.0666667 L171.2,70.2666667 L172.666667,70.2666667 L172.666667,79.0666667 L171.2,79.0666667 Z M182,61.6 C182.4,62 182.666667,62.6666667 182.666667,63.2 L182.666667,63.3333333 C182.666667,64.8 182.666667,66.2666667 182.4,67.6 L182.266667,68.5333333 L188.533333,68.5333333 C188.533333,68.5333333 188.533333,68.5333333 188.533333,68.5333333 C188.8,68.5333333 189.066667,68.6666667 189.333333,68.8 C189.866667,69.0666667 190.266667,69.7333333 190.266667,70.2666667 C190.266667,70.8 188.666667,78 188.666667,78 C188.666667,78.8 188,79.6 187.066667,79.6 L178.533333,79.6 C177.466667,79.6 176.533333,79.3333333 175.6,78.9333333 L175.6,70.2666667 L177.866667,68 C178.533333,67.3333333 178.933333,66.6666667 179.333333,65.8666667 C179.733333,65.0666667 179.866667,64.1333333 179.866667,63.3333333 C179.866667,62.5333333 179.866667,61.7333333 179.866667,61.7333333 L180.4,61.3333333 C180.533333,61.2 180.666667,61.2 180.8,61.2 C180.933333,61.2 180.933333,61.2 181.066667,61.2 C181.333333,61.2 181.733333,61.3333333 182,61.6 Z" id="Shape" fill="#FAFAFA" fill-rule="nonzero"></path>
    </g>
</svg>