<?xml version="1.0" encoding="UTF-8"?>
<svg width="100px" height="100px" viewBox="0 0 100 100" version="1.1" xmlns="http://www.w3.org/2000/svg" xmlns:xlink="http://www.w3.org/1999/xlink">
    <!-- Generator: Sketch 50.2 (55047) - http://www.bohemiancoding.com/sketch -->
    <title>Homepage/Icons/NY State</title>
    <desc>Created with Sketch.</desc>
    <defs>
        <path d="M86.4380335,37.9395698 L75.6835097,48.5097303 C74.0856948,50.1075452 74.0856948,50.1075452 72.4878798,48.5097303 L65.7893479,41.6882895 C64.9904404,56.5602595 55.8337316,56.9904404 46.4926596,56.9904404 C42.3752134,56.9904404 37.3974053,60.5547969 35.1235917,64.4878798 C34.447593,65.6555138 32.6654148,66.2086036 30.6988733,66.2086036 C27.6261523,71.4322294 26.0283373,78.6223967 25.9668829,86.8572892 L26.8272448,86.8572892 C29.6541482,86.8572892 29.7156026,86.8572892 29.7156026,89.4383749 L29.7156026,91.5892796 C29.7156026,94.1089109 29.7156026,94.1089109 26.8272448,94.1089109 L15.765449,94.1089109 C13,94.1089109 13,94.1089109 13,91.5892796 L13,89.4383749 C13,86.8572892 13,86.8572892 15.765449,86.8572892 L16.7487197,86.8572892 C16.8101741,73.5831342 20.005804,64.4878798 23.3857972,57.4820758 C23.7545237,49.493001 25.4137931,42.7330147 30.8832366,38.3697508 L30.8832366,28.1068624 L80.1082281,28.1068624 L86.4380335,34.6824855 C88.0358484,36.3417549 88.0358484,36.3417549 86.4380335,37.9395698 Z" id="path-1"></path>
    </defs>
    <g id="Homepage/Icons/NY-State" stroke="none" stroke-width="1" fill="none" fill-rule="evenodd">
        <g id="Shape" fill-rule="nonzero" transform="translate(50.318197, 61.107887) scale(-1, 1) rotate(-180.000000) translate(-50.318197, -61.107887) ">
            <use fill="#518AEE" fill-rule="evenodd" xlink:href="#path-1"></use>
            <use fill-opacity="0.5" fill="#FFFFFF" fill-rule="evenodd" xlink:href="#path-1"></use>
        </g>
        <path d="M21.0505292,5.35336292 C24.6148856,5.35336292 28.3021509,7.99590304 28.3021509,12.9122567 C28.3021509,18.6889723 23.0785251,23.7282349 19.268351,25.7562308 C22.771253,17.8286104 14.4134517,19.2420621 14.4134517,12.1748037 C14.4134517,7.68863093 17.7319904,5.35336292 21.0505292,5.35336292 Z" id="Path" fill="#518AEE" transform="translate(21.357801, 15.554797) rotate(180.000000) translate(-21.357801, -15.554797) "></path>
        <path d="M38.9337658,59.0722089 C38.2577672,58.642028 38.0119495,58.0274838 38.0119495,57.2285763 C38.1963127,48.6864117 42.2523045,42.9096961 47.7832025,42.9096961 C53.252646,42.9096961 57.493001,48.870775 57.493001,57.5358484 C57.493001,58.3347559 57.2471833,58.9493001 56.5711847,59.3794811 C51.5319222,62.6980198 43.9730283,62.575111 38.9337658,59.0722089 Z" id="Path" fill="#1F2D3D" transform="translate(47.752475, 52.348062) rotate(180.000000) translate(-47.752475, -52.348062) "></path>
        <path d="M36.5370434,24.0674615 C44.0344828,29.0452696 51.4704677,29.1681784 58.9679071,24.3132792 C61.5489928,22.4081921 65.6664391,24.1903703 65.7278935,25.8496397 C65.6664391,27.8161812 61.3646296,28.1849077 59.1522704,28.4307254 C57.493001,28.6150887 57.2471833,30.0899948 58.2304541,31.2576288 C61.4875384,35.0063485 63.2697166,38.3863416 62.4708091,39.308158 C61.3646296,40.2299743 57.3700922,38.0176151 53.0068283,33.7158056 C52.2693752,32.9783526 50.4257426,33.4699879 50.3642882,35.0678029 C50.1799249,40.9674273 49.0737453,45.146328 47.6602936,45.146328 C46.1853875,45.146328 45.1406623,40.9674273 44.9562991,35.0063485 C44.8948447,33.4699879 43.1126664,32.9168981 42.3752134,33.5928968 C37.950495,37.7717974 33.9559577,39.9841566 32.9726869,39.1237947 C32.0508706,38.0790695 34.1403209,34.4532587 37.7046774,30.5201757 C38.5650393,29.5983594 38.5035848,28.3078165 37.0901332,28.1234533 C35.0621372,27.8161812 29.9614203,27.8161812 29.8385114,25.603822 C29.8999659,23.9445526 34.0788665,22.10092 36.5370434,24.0674615 Z" id="Path" fill="#1F2D3D" transform="translate(47.783202, 34.182168) rotate(180.000000) translate(-47.783202, -34.182168) "></path>
    </g>
</svg>