<?xml version="1.0" encoding="UTF-8"?>
<svg width="100px" height="100px" viewBox="0 0 100 100" version="1.1" xmlns="http://www.w3.org/2000/svg" xmlns:xlink="http://www.w3.org/1999/xlink">
    <!-- Generator: Sketch 50.2 (55047) - http://www.bohemiancoding.com/sketch -->
    <title>Homepage/Icons/Friends and Family</title>
    <desc>Created with Sketch.</desc>
    <defs>
        <path d="M62.98006,72.02312 C61.98039,76.02442 62.98006,82.02652 67.9784,84.02712 C72.97674,86.02782 77.97507,83.02682 80.97408,79.02542 L62.98006,72.02312 Z" id="path-1"></path>
        <path d="M51.89,62.98902 C51.18238,63.02902 50.51204,63.47612 50.20306,64.11442 C50.23976,64.04142 49.24058,64.87282 47.92257,65.17712 C46.60455,65.48172 45.05747,65.29142 44.89232,65.20812 C43.95145,64.72982 42.66014,65.15312 42.18491,66.09642 C41.70968,67.03922 42.13681,68.33022 43.08042,68.80302 C44.91461,69.72082 46.86637,69.53022 48.79727,69.08442 C50.72818,68.63852 52.72806,67.96982 53.76437,65.89582 C54.39641,64.65472 53.28053,62.92392 51.89,62.98862 L51.89,62.98902 Z" id="path-2"></path>
    </defs>
    <g id="Homepage/Icons/Friends-and-Family" stroke="none" stroke-width="1" fill="none" fill-rule="evenodd">
        <path d="M42.98671,4.0002 C20.92633,4.0002 3,21.9386 3,44.0138 C3,61.13382 12.94998,77.19762 28.30409,82.90202 C29.625,83.13672 30.86388,82.91902 31.83416,82.46412 C35.37025,83.48872 39.12757,84.02712 42.98671,84.02712 C47.57113,84.02712 51.97253,83.23332 56.07611,81.80762 C58.90461,90.07132 66.77139,96.00002 75.97574,96.00002 C87.54619,96.00002 97,86.60232 97,75.02412 C97,67.45052 92.9425,60.81422 86.9096,57.11182 C87.40979,55.40712 89.46248,54.28032 90.97075,52.01632 C88.63788,53.57262 86.30011,54.50942 85.37886,56.26772 C84.14477,55.64442 82.86231,55.13882 81.50515,54.76722 C82.45952,51.34452 82.97341,47.73812 82.97341,44.0136 C82.97341,21.9384 65.04708,4 42.98671,4 L42.98671,4.0002 Z M71.97707,22.6627 C76.36854,28.6328 78.97474,36.0198 78.97474,44.0138 C78.97474,47.4997 78.45796,50.86222 77.53772,54.04842 C77.02622,54.01042 76.49654,54.01742 75.97574,54.01742 C64.4053,54.01742 54.95148,63.44632 54.95148,75.02452 C54.95148,76.00062 55.04038,76.95952 55.17016,77.90052 C51.36285,79.26942 47.26942,80.02622 42.98671,80.02622 C39.04089,79.86922 35.29717,79.30522 31.99036,78.36942 C22.80846,70.44082 19.44128,62.72972 19.11964,50.79752 C31.86722,49.79232 43.36437,48.29832 52.67099,44.0765 C61.60012,40.0259 68.46349,33.2961 71.97707,22.6629 L71.97707,22.6627 Z M75.97574,57.98732 C85.38514,57.98732 92.93885,65.60862 92.93885,75.02432 C92.93885,84.44002 85.38514,92.03012 75.97574,92.03012 C66.56635,92.03012 59.01263,84.44002 59.01263,75.02432 C59.01263,65.60862 66.56635,57.98732 75.97574,57.98732 Z" id="Shape" fill="#1F2D3D" fill-rule="nonzero"></path>
        <path d="M67.9784,63.02002 C66.3221,63.02002 64.9794,64.36362 64.9794,66.02102 C64.9794,67.67852 66.3221,69.02212 67.9784,69.02212 C69.6347,69.02212 70.9774,67.67852 70.9774,66.02102 C70.9774,64.36362 69.6347,63.02002 67.9784,63.02002 Z" id="Path" fill="#518AEE"></path>
        <path d="M79.97441,66.02102 C78.31811,66.02102 76.97541,67.36462 76.97541,69.02212 C76.97541,70.67952 78.31811,72.02312 79.97441,72.02312 C81.63071,72.02312 82.97341,70.67952 82.97341,69.02212 C82.97341,67.36462 81.63071,66.02102 79.97441,66.02102 Z" id="Path" fill="#518AEE"></path>
        <g id="Path">
            <use fill="#518AEE" xlink:href="#path-1"></use>
            <use fill-opacity="0.5" fill="#FFFFFF" xlink:href="#path-1"></use>
        </g>
        <path d="M58.98139,46.0144 C56.77298,46.0144 54.98272,47.80602 54.98272,50.01582 C54.98272,52.22572 56.77298,54.01722 58.98139,54.01722 C61.18979,54.01722 62.98006,52.22572 62.98006,50.01582 C62.98006,47.80602 61.18979,46.0144 58.98139,46.0144 Z" id="Path" fill="#518AEE"></path>
        <path d="M32.99003,52.01652 C30.78162,52.01652 28.99136,53.80802 28.99136,56.01782 C28.99136,58.22772 30.78162,60.01922 32.99003,60.01922 C35.19843,60.01922 36.9887,58.22772 36.9887,56.01782 C36.9887,53.80802 35.19843,52.01652 32.99003,52.01652 Z" id="Path" fill="#518AEE"></path>
        <g id="Path">
            <use fill="#518AEE" xlink:href="#path-2"></use>
            <use fill-opacity="0.5" fill="#FFFFFF" xlink:href="#path-2"></use>
        </g>
    </g>
</svg>