<?xml version="1.0" encoding="UTF-8"?>
<svg width="200px" height="200px" viewBox="0 0 200 200" version="1.1" xmlns="http://www.w3.org/2000/svg" xmlns:xlink="http://www.w3.org/1999/xlink">
    <!-- Generator: Sketch 50.2 (55047) - http://www.bohemiancoding.com/sketch -->
    <title>Homepage/Illustrations/Penny</title>
    <desc>Created with Sketch.</desc>
    <defs>
        <path d="M107.840103,19.5019789 C95.8663231,7.52602538 76.4491482,7.52602538 64.4558035,19.5106745 C52.47985,31.486628 52.47985,50.9081507 64.4558035,62.8841042 C65.7883974,64.2145242 67.2253379,65.3732069 68.7209734,66.4058041 C79.581722,65.6101608 91.0315944,65.9536352 102.396685,67.1884041 C104.33362,65.9797219 106.166208,64.5601725 107.844451,62.8841042 C119.822578,50.9081507 119.822578,31.4822802 107.840103,19.5019789 Z" id="path-1"></path>
    </defs>
    <g id="Homepage/Illustrations/Penny" stroke="none" stroke-width="1" fill="none" fill-rule="evenodd">
        <path d="M165.532938,112.187903 C163.813392,112.187903 162.424277,110.796614 162.424277,109.079242 C162.424277,107.361869 163.813392,105.977102 165.532938,105.977102 C167.243789,105.977102 168.637251,107.361869 168.637251,109.079242 C168.637251,110.796614 167.245963,112.187903 165.532938,112.187903 Z M197.989098,127.529036 C196.960849,126.098617 195.306519,125.235583 193.552191,125.209497 C193.165239,125.170367 189.395716,124.879066 185.247936,120.894327 C184.356641,119.281302 182.054493,111.52704 177.091505,103.835822 C174.156755,99.238047 170.017671,94.4402743 164.439472,90.2598861 C164.665557,87.427309 165.143812,85.199073 165.615546,83.6186558 C165.937281,82.5425808 166.2438,81.757807 166.452493,81.2817253 C166.554666,81.0404236 166.630752,80.8839037 166.67423,80.7926003 C167.748131,78.8969693 167.617698,76.5404738 166.343799,74.7644066 C165.048161,72.9905133 162.856881,72.1383489 160.713427,72.5774745 C160.382996,72.6513867 156.985207,73.3035533 153.130902,75.4948333 C151.011361,76.6556899 148.520084,78.6426243 146.737495,81.444767 C126.972498,75.1078811 103.620585,71.1079256 81.3295286,71.0992301 C64.2666752,71.1187951 47.827728,73.4122478 34.0670117,79.0904454 C28.9257647,81.1078142 24.6518992,83.5273525 21.1236777,86.233844 C21.371501,85.5860252 21.5367166,84.9186413 21.5432382,84.220823 C21.5454121,82.988228 21.078026,81.7338942 20.178036,80.8556431 C19.2932633,79.9491315 18.0411033,79.4860931 16.8193778,79.4969626 C15.0541801,79.4969626 13.452024,80.3534748 12.1085607,81.6817208 C11.1346585,82.6012758 10.5890124,84.0121297 10.6150991,85.2468985 C10.6694463,86.0403679 10.8281402,86.7686207 11.0607463,87.427309 C10.0151058,87.7860007 8.99555194,88.0099112 8.23686474,87.9729551 C7.48035143,87.9816507 7.13905089,87.7860007 7.12818144,87.7577401 C7.12818144,87.7273057 7.00644367,87.7860007 6.96731367,86.9620968 C6.96731367,85.4164618 5.72384927,84.162128 4.17821431,84.162128 C2.63475325,84.162128 1.39128885,85.4164618 1.39128885,86.9620968 C1.34781107,88.9077273 2.10215049,90.8837922 3.56735156,92.0598661 C5.00863984,93.2381138 6.69557757,93.5598494 8.23686474,93.5620233 C10.3890147,93.507676 12.5411646,92.9576822 14.4867951,92.1055177 C14.5802723,92.1816039 14.6541845,92.2685594 14.7367923,92.3446455 C9.57380637,98.6402275 7.42383032,105.783626 7.60208921,112.727027 C7.82165198,127.672513 15.1802656,141.924528 14.8954862,150.237479 C14.8954862,151.69181 14.7085318,152.883101 14.3802746,153.874395 C12.8781174,158.380866 12.2194291,162.659079 12.2194291,166.593818 C12.3889924,185.395783 26.436662,194.406552 26.9475258,194.797852 C29.2257613,196.271748 32.243119,195.900013 34.0844028,193.913079 C35.9343822,191.928319 36.0735111,188.878353 34.4387467,186.724029 C34.4387467,186.724029 34.2539662,186.482727 33.8670139,185.904473 C32.6431145,184.256665 30.4496607,179.800193 30.6040068,177.882823 C30.6061807,177.308916 30.7061796,177.078484 30.7713963,176.96979 L30.7779179,176.952398 C34.2822267,170.611165 36.9495883,166.750338 38.7365249,164.869924 C40.6538948,162.941685 40.8299798,163.276464 40.9560654,163.206899 C41.216932,163.096031 43.1473453,163.774284 46.3320924,165.18079 C49.5016223,166.493819 53.9537467,168.065541 59.7362909,168.36119 C61.1188842,168.426406 62.4949558,168.454667 63.8753752,168.454667 C79.3491159,168.409015 96.2076237,164.646014 107.11185,164.702535 C110.381379,164.691665 113.018306,165.048183 114.626984,165.632959 C115.735667,166.054694 116.300878,166.409038 116.657396,166.819903 C117.303041,171.606806 119.607363,176.202407 121.7356,180.761052 C124.159486,185.708823 126.53772,189.758777 126.583372,189.834864 C127.087714,190.700071 127.802924,191.39789 128.681175,191.882667 L134.881106,195.334802 C135.746314,195.81958 136.681086,196.041316 137.607162,196.041316 C139.474533,196.041316 141.304947,195.102196 142.359283,193.395693 C143.926657,190.858765 143.217969,187.528368 140.759301,185.845778 C140.759301,185.845778 140.644085,185.778387 140.250611,185.441434 C138.904974,184.454489 136.802824,181.711041 136.989778,180.343665 L136.909344,179.508892 C136.509349,177.178483 136.344133,175.135027 136.344133,173.306787 C136.37022,167.869891 137.752813,164.578623 138.954973,162.572124 C139.418012,161.822132 139.863659,161.261269 140.211481,160.872143 C145.552726,159.804763 163.5047,155.806982 192.269597,145.348403 C193.856536,144.767974 195.119565,143.474511 195.649994,141.868007 L198.76735,132.561589 C199.32604,130.863782 199.039087,128.985542 197.989098,127.529036 Z" id="Shape" fill="#1F2D3D" fill-rule="nonzero"></path>
        <path d="M118.472593,86.7860118 C106.011862,84.4621246 93.2359176,83.1990952 81.3295286,83.1990952 C69.0209701,83.1990952 57.7950082,84.5295152 48.3320702,87.0599218 C48.1016379,87.1164429 47.8559885,87.1468773 47.6146868,87.1468773 C46.379918,87.1468773 45.2516697,86.3229735 44.912543,85.0795091 C44.5190692,83.5795258 45.4103636,82.0578036 46.8994774,81.6556342 C56.9428438,78.9839248 68.6274962,77.6187226 81.3295286,77.6187226 C93.6163482,77.6187226 106.716202,78.9078387 119.500842,81.3056381 C121.011695,81.5838959 122.00951,83.0404014 121.733426,84.5599496 C121.439951,86.0708024 119.983446,87.0707912 118.472593,86.7860118 Z" id="Path" fill="#778F9B"></path>
        <g id="Path">
            <use fill="#518AEE" xlink:href="#path-1"></use>
            <use fill-opacity="0.5" fill="#FFFFFF" xlink:href="#path-1"></use>
        </g>
        <path d="M62.1471336,67.0492752 C61.827572,66.7449308 61.4862714,66.486238 61.1797531,66.173198 C54.27983,59.2645793 50.838564,50.2407668 50.8298684,41.1995632 C50.838564,32.1474902 54.2733083,23.1236777 61.1797531,16.2259284 C68.0775023,9.32817922 77.1034887,5.89126099 86.1468662,5.87821766 C95.1880698,5.89126099 104.222752,9.32817922 111.127023,16.2259284 C118.022598,23.1084605 121.46169,32.1474902 121.470386,41.1973893 C121.46169,50.2320713 118.022598,59.2667532 111.127023,66.173198 C110.468334,66.8340602 109.77269,67.4231841 109.072698,68.0275252 C110.659637,68.2514357 112.244401,68.4840418 113.820471,68.7405607 C121.402995,61.1254282 125.198605,51.155974 125.198605,41.1973893 C125.198605,31.2061963 121.381256,21.1997861 113.759602,13.5868274 C106.1336,5.96517321 96.1315376,2.14565055 86.1468662,2.15434611 C76.1665426,2.14565055 66.1536107,5.96517321 58.542826,13.595523 C50.9276934,21.2084816 47.0994752,31.2083702 47.1103446,41.1995632 C47.0994752,50.7125007 50.6124795,60.2276121 57.5537065,67.6949202 C59.068907,67.4623141 60.5906292,67.229708 62.1471336,67.0492752 Z" id="Path" fill="#518AEE"></path>
    </g>
</svg>