<?xml version="1.0" encoding="UTF-8"?>
<svg width="245px" height="663px" viewBox="0 0 245 663" version="1.1" xmlns="http://www.w3.org/2000/svg" xmlns:xlink="http://www.w3.org/1999/xlink">
    <!-- Generator: Sketch 53.2 (72643) - https://sketchapp.com -->
    <title>rocket</title>
    <desc>Created with Sketch.</desc>
    <defs>
        <linearGradient x1="50%" y1="0%" x2="50%" y2="100%" id="linearGradient-1">
            <stop stop-color="#F3B942" offset="0%"></stop>
            <stop stop-color="#EF815F" offset="100%"></stop>
        </linearGradient>
        <ellipse id="path-2" cx="122.055048" cy="205.851509" rx="41.9660194" ry="42.0190996"></ellipse>
        <ellipse id="path-4" cx="41.9660194" cy="42.0190996" rx="41.9660194" ry="42.0190996"></ellipse>
    </defs>
    <g id="rocket" stroke="none" stroke-width="1" fill="none" fill-rule="evenodd">
        <path d="M57.1293402,332.656796 L6.96970801,366.430222 C6.00040745,367.082871 5.36496783,368.126744 5.23038384,369.287511 L0.447879426,410.535913 C0.193447483,412.730351 1.76613338,414.715553 3.96057169,414.969985 C5.24959018,415.119439 6.5310109,414.634303 7.3978603,413.668654 L21.0552718,398.454638 C21.5823112,397.867529 22.2712043,397.449392 23.0352911,397.252825 L80.2474512,382.534587 C82.3869277,381.984191 83.6751323,379.803619 83.1247366,377.664142 C83.0635027,377.426116 82.9804612,377.19424 82.8766658,376.971456 L62.9891922,334.28551 C62.0562368,332.283039 59.6766036,331.416026 57.6741328,332.348981 C57.4847761,332.437203 57.3026213,332.540123 57.1293402,332.656796 Z" id="Left-wing" fill="#778F9B"></path>
        <path d="M217.799243,332.656796 L167.639611,366.430222 C166.67031,367.082871 166.034871,368.126744 165.900287,369.287511 L161.117782,410.535913 C160.86335,412.730351 162.436036,414.715553 164.630475,414.969985 C165.919493,415.119439 167.200914,414.634303 168.067763,413.668654 L181.725175,398.454638 C182.252214,397.867529 182.941107,397.449392 183.705194,397.252825 L240.917354,382.534587 C243.056831,381.984191 244.345035,379.803619 243.79464,377.664142 C243.733406,377.426116 243.650364,377.19424 243.546569,376.971456 L223.659095,334.28551 C222.72614,332.283039 220.346507,331.416026 218.344036,332.348981 C218.154679,332.437203 217.972524,332.540123 217.799243,332.656796 Z" id="Right-wing" fill="#778F9B" transform="translate(202.624770, 376.532998) scale(-1, 1) translate(-202.624770, -376.532998) "></path>
        <polygon id="Fire" fill="url(#linearGradient-1)" points="88.5653918 399 156.910052 399 184.871217 662.410641 60.6042267 662.410641"></polygon>
        <rect id="Booster" fill="#B8C1CB" x="80.6042267" y="380" width="84" height="19" rx="4"></rect>
        <path d="M46.6042267,248 C46.6042267,140.79131 70.7529041,58.6381294 119.050259,1.54045903 L119.05026,1.54045968 C120.476959,-0.1462002 123.000835,-0.356939829 124.687495,1.06975954 C124.857201,1.21330892 125.014646,1.37075402 125.158195,1.54045969 C173.45555,58.63813 197.604227,140.79131 197.604227,248 C197.604227,303.01207 187.992339,347.664068 168.768563,381.955996 L168.768554,381.955991 C168.060895,383.218333 166.726585,384 165.27942,384 L78.9290414,384.000012 C77.4818675,384.000012 76.1475506,383.21834 75.4398879,381.955991 C56.2161138,347.664064 46.6042267,303.012067 46.6042267,248 Z" id="Body" fill="#DDE2E8"></path>
        <rect id="Front-wing" fill="#778F9B" x="116" y="330.042335" width="12" height="85" rx="4"></rect>
        <path d="M68.8017,93 C80.7376238,57.519127 97.487143,27.0326145 119.050259,1.54045903 C120.476959,-0.1462002 123.000835,-0.356939829 124.687495,1.06975954 C124.857201,1.21330892 125.014646,1.37075402 125.158195,1.54045969 C146.721311,27.032615 163.47083,57.5191273 175.406752,93 L68.8017,93 L68.8017,93 Z" id="Nosecone" fill="#778F9B"></path>
        <mask id="mask-3" fill="white">
            <use xlink:href="#path-2"></use>
        </mask>
        <ellipse stroke-opacity="0.25" stroke="#000000" stroke-width="4" cx="122.055048" cy="205.851509" rx="43.9660194" ry="44.0190996"></ellipse>
        <path d="M118.089028,247.68542 L118.089028,241.83241 C118.089028,240.73241 117.189028,239.83241 116.089028,239.83241 C114.989028,239.83241 114.089028,240.73241 114.089028,241.83241 L114.089028,247.114578 C112.731286,246.853353 111.396816,246.526613 110.089028,246.137771 L110.089028,239.83241 C110.089028,237.61991 111.876528,235.83241 114.089028,235.83241 L130.089028,235.83241 C132.301528,235.83241 134.089028,237.61991 134.089028,239.83241 L134.089028,246.117501 C130.277019,247.257996 126.237484,247.870609 122.055048,247.870609 C120.717504,247.870609 119.394575,247.807956 118.089028,247.68542 Z M94.3922391,237.4503 C85.6243358,229.748928 80.0890284,218.447456 80.0890284,205.851509 C80.0890284,182.645001 98.8778553,163.83241 122.055048,163.83241 C145.23224,163.83241 164.021067,182.645001 164.021067,205.851509 C164.021067,218.419655 158.510167,229.699033 149.775866,237.399253 C148.371465,230.255289 142.399694,224.781643 135.039028,224.00741 C131.301528,226.41991 126.864028,227.83241 122.089028,227.83241 C117.314028,227.83241 112.876528,226.41991 109.139028,224.00741 C101.76084,224.783486 95.7781677,230.281376 94.3922391,237.4503 Z M102.089028,211.83241 L103.776528,211.83241 C106.864028,218.89491 113.889028,223.83241 122.089028,223.83241 C130.289028,223.83241 137.314028,218.89491 140.401528,211.83241 L142.089028,211.83241 C143.189028,211.83241 144.089028,210.93241 144.089028,209.83241 L144.089028,197.83241 C144.089028,196.73241 143.189028,195.83241 142.089028,195.83241 L140.401528,195.83241 C137.314028,188.76991 130.289028,183.832409 122.089028,183.832409 C113.889028,183.832409 106.864028,188.76991 103.776528,195.83241 L102.089028,195.83241 C100.989028,195.83241 100.089028,196.73241 100.089028,197.83241 L100.089028,209.83241 C100.089028,210.93241 100.989028,211.83241 102.089028,211.83241 Z M107.089028,200.83241 C107.089028,198.06991 109.776528,195.83241 113.089028,195.83241 L131.089028,195.83241 C134.401528,195.83241 137.089028,198.06991 137.089028,200.83241 L137.089028,203.83241 C137.089028,210.45741 131.714028,215.83241 125.089028,215.83241 L119.089028,215.83241 C112.464028,215.83241 107.089028,210.45741 107.089028,203.83241 L107.089028,200.83241 Z M116.089028,209.83241 L117.589028,205.33241 L122.089028,203.83241 L117.589028,202.33241 L116.089028,197.83241 L114.589028,202.33241 L110.089028,203.83241 L114.589028,205.33241 L116.089028,209.83241 Z M128.089028,239.83241 C126.989028,239.83241 126.089028,240.73241 126.089028,241.83241 C126.089028,242.93241 126.989028,243.83241 128.089028,243.83241 C129.189028,243.83241 130.089028,242.93241 130.089028,241.83241 C130.089028,240.73241 129.189028,239.83241 128.089028,239.83241 Z" id="Window" fill="#FAFAFA"></path>
        <g id="Astronaut" transform="translate(80.089028, 163.832410)">
            <mask id="mask-5" fill="white">
                <use xlink:href="#path-4"></use>
            </mask>
            <g id="Mask"></g>
            <path d="M21.9999999,48 L23.6874999,48 C26.7749999,55.0625 33.8,60 42,60 C50.2,60 57.2250001,55.0625 60.3125001,48 L62.0000001,48 C63.1000001,48 64.0000001,47.1 64.0000001,46 L64.0000001,33.9999999 C64.0000001,32.8999999 63.1000001,31.9999999 62.0000001,31.9999999 L60.3125001,31.9999999 C57.2250001,24.9374999 50.2,19.9999999 42,19.9999999 C33.8,19.9999999 26.7749999,24.9374999 23.6874999,31.9999999 L21.9999999,31.9999999 C20.8999999,31.9999999 19.9999999,32.8999999 19.9999999,33.9999999 L19.9999999,46 C19.9999999,47.1 20.8999999,48 21.9999999,48 Z M26.9999999,36.9999999 C26.9999999,34.2374999 29.6874999,31.9999999 33,31.9999999 L51,31.9999999 C54.3125001,31.9999999 57.0000001,34.2374999 57.0000001,36.9999999 L57.0000001,39.9999999 C57.0000001,46.625 51.625,52 45,52 L39,52 C32.375,52 26.9999999,46.625 26.9999999,39.9999999 L26.9999999,36.9999999 Z M36,46 L37.5,41.5 L42,39.9999999 L37.5,38.4999999 L36,33.9999999 L34.5,38.4999999 L30,39.9999999 L34.5,41.5 L36,46 Z M54.9500001,60.175 C51.2125,62.5875 46.775,64 42,64 C37.225,64 32.7875,62.5875 29.0499999,60.175 C20.6124999,61.0625 13.9999999,68.1250001 13.9999999,76.8000001 L13.9999999,78.0000001 C13.9999999,81.3125001 16.6874999,84.0000001 19.9999999,84.0000001 L30,84.0000001 L30,76.0000001 C30,73.7875001 31.7875,72.0000001 34,72.0000001 L50,72.0000001 C52.2125,72.0000001 54.0000001,73.7875001 54.0000001,76.0000001 L54.0000001,84.0000001 L64.0000001,84.0000001 C67.3125001,84.0000001 70.0000001,81.3125001 70.0000001,78.0000001 L70.0000001,76.8000001 C70.0000001,68.1250001 63.3875001,61.0625 54.9500001,60.175 Z M48,76.0000001 C46.9,76.0000001 46,76.9000001 46,78.0000001 C46,79.1000001 46.9,80.0000001 48,80.0000001 C49.1,80.0000001 50,79.1000001 50,78.0000001 C50,76.9000001 49.1,76.0000001 48,76.0000001 Z M36,76.0000001 C34.9,76.0000001 34,76.9000001 34,78.0000001 L34,84.0000001 L38,84.0000001 L38,78.0000001 C38,76.9000001 37.1,76.0000001 36,76.0000001 Z" fill="#101B2F" fill-rule="nonzero" mask="url(#mask-5)"></path>
        </g>
    </g>
</svg>