<?xml version="1.0" encoding="UTF-8"?>
<svg width="100px" height="100px" viewBox="0 0 100 100" version="1.1" xmlns="http://www.w3.org/2000/svg" xmlns:xlink="http://www.w3.org/1999/xlink">
    <!-- Generator: Sketch 50.2 (55047) - http://www.bohemiancoding.com/sketch -->
    <title>Homepage/Icons/Save</title>
    <desc>Created with Sketch.</desc>
    <defs></defs>
    <g id="Homepage/Icons/Save" stroke="none" stroke-width="1" fill="none" fill-rule="evenodd">
        <path d="M31.9708866,57.8010587 C32.0397,54.8561976 32.2849581,51.6396118 32.4402294,49.2576092 L32.7243052,43.7631231 C32.1596824,43.9625055 31.596824,44.161888 30.4746361,44.3930304 C29.3542126,44.6224085 27.6744596,44.8888399 25.8800176,45.2558447 C24.0838112,45.624614 22.1746802,46.102779 20.2761359,46.2456992 C18.379356,46.3868549 16.4984561,46.1962947 15.1945302,46.086899 C13.8923688,45.9775033 13.1707102,45.9457433 12.5108072,45.8098809 C11.8491398,45.6704896 11.2456992,45.4234671 10.6457874,45.1729157 C10.4993383,46.0569034 10.3511248,46.940891 10.2329069,48.3824438 C10.1182179,49.822232 10.0352889,51.8231142 10.0070578,53.7675342 C9.98411998,55.7137186 10.01588,57.6016762 10.2593736,59.7278341 C10.5063961,61.8504632 10.9616233,64.2042347 11.466255,66.7838553 C11.9673577,69.363476 12.5196295,72.1671813 13.1389502,74.6391707 C13.7582708,77.1129246 14.4464049,79.2531981 15.0816056,81.3370093 L16.881341,87.4755183 C17.6735774,87.173798 18.4640494,86.8738421 19.3639171,86.6338774 C20.2655492,86.3921482 21.2730481,86.2139391 22.4464049,86.0939568 C23.6179974,85.9775033 24.9554477,85.9228055 26.6210851,85.9916189 C28.2849581,86.0621967 30.2787825,86.2562858 31.9391266,86.4362594 C33.6012351,86.6179974 34.9280988,86.7856198 35.9814733,86.8297309 C37.0383767,86.8738421 37.8217909,86.794442 38.0458756,86.663873 C38.2752536,86.5368328 37.9470666,86.3550948 37.7335686,86.2086458 L37.3048081,85.7992942 L36.9360388,85.2840759 L36.3573004,84.5641817 C36.1473313,84.2783414 35.9373622,83.9342744 35.6850463,83.3149537 C35.4344949,82.6903397 35.1363035,81.7887075 34.7093075,80.0471989 C34.2840759,78.3039259 33.7212175,75.7243052 33.2695192,73.2576092 C32.8178209,70.7926775 32.470225,68.4424349 32.2443758,65.9316277 C32.0132333,63.419056 31.9020732,60.7459197 31.9708866,57.8010587 Z" id="Shape" fill="#1F2D3D"></path>
        <path d="M35.4380238,53.3299515 C35.3303926,55.8848699 35.316277,58.8861932 35.4697839,61.8945743 C35.6215262,64.9047199 35.940891,67.9219232 36.4296427,70.8314954 C36.9201588,73.7428319 37.5782973,76.5535951 38.1093957,78.5227172 C38.640494,80.490075 39.03573,81.6193207 39.4362594,82.7468019 C41.2236436,82.4856639 43.0163211,82.2298191 44.7472431,82.0798412 C46.4746361,81.9316277 48.1455668,81.889281 49.9770622,81.9669166 C51.8085576,82.0427878 53.802382,82.2386414 55.7344508,82.596824 C57.6682841,82.9550066 59.5333039,83.4772828 61.2395236,83.8831054 C62.9492722,84.2853992 64.4949272,84.5747684 66.3193648,84.818262 C68.1420379,85.0617556 70.2452581,85.2611381 72.419056,85.1835024 C74.5910895,85.1093957 76.830172,84.7600353 78.2329069,84.4830172 C79.6356418,84.2059991 80.1985002,84.0101456 80.7807675,83.3678871 C81.3630348,82.7220997 81.9664755,81.6369652 82.2876048,80.5941773 C82.6104985,79.5478606 82.6510807,78.5527128 82.4605205,77.7657697 C82.2734892,76.9788266 81.8500221,76.4036171 81.4300838,75.830172 C82.328187,75.6431407 83.2245258,75.4614027 84.0185267,75.1049846 C84.8107631,74.7503308 85.5024261,74.2209969 86.0299956,73.5752095 C86.5558006,72.9294221 86.9228055,72.1689457 87.1274813,71.2320247 C87.3356859,70.2933392 87.3815615,69.1835024 87.2492281,68.3436259 C87.1168946,67.5055139 86.806352,66.9355977 86.4393472,66.4203794 C86.0705779,65.9033966 85.6471107,65.442876 85.2183502,64.9788266 C86.0194089,64.4565505 86.8204676,63.9325099 87.5121306,63.4049404 C88.2020291,62.8791354 88.7790031,62.3480371 89.1989413,61.640494 C89.6153507,60.9347155 89.8747243,60.0595501 89.9629466,59.2831936 C90.0529334,58.5086017 89.96824,57.8363476 89.7723864,57.2187914 C89.5747684,56.5977062 89.2677547,56.0295545 88.7348919,55.3943538 C88.205558,54.7591531 87.4556683,54.0604323 86.9739744,53.6528452 C86.4887517,53.2417292 86.2734892,53.1217468 86.0564623,53.0017644 C86.7498897,52.3630348 87.4433172,51.7260697 88.0273489,51.0820468 C88.6113807,50.4415527 89.0807234,49.7940009 89.3383326,48.96824 C89.5977062,48.1460079 89.6382885,47.1473313 89.5606528,46.3092192 C89.4847816,45.4711072 89.2906925,44.7953242 88.9819144,44.2289369 C88.6713719,43.6572563 88.2461403,43.1967358 87.711513,42.7309219 C87.1733569,42.2615792 86.525805,41.790472 85.9258933,41.4869872 C85.3295104,41.1835024 84.7772386,41.0458756 83.6162329,40.8906043 C82.4534627,40.7300397 80.683723,40.5430084 78.5699162,40.5094839 C76.4596383,40.4794883 74.0088222,40.5994707 72.3943538,40.6418174 C70.7781209,40.6841641 70.0017644,40.6524041 69.225408,40.620644 C69.8200265,39.6431407 70.4199382,38.6691663 71.3021614,37.4799294 C72.1879135,36.2959859 73.3577415,34.9003088 74.3052492,33.4905161 C75.2545214,32.0842523 75.9797089,30.6709307 76.4896339,29.1340979 C76.9977944,27.5990296 77.292457,25.9422144 77.4053816,24.5588884 C77.5200706,23.1720335 77.4547861,22.0569034 77.2289369,20.8253198 C76.9995589,19.5902073 76.6131451,18.2421703 76.1014557,17.1640935 C75.5897662,16.0860168 74.9545655,15.2814292 74.3158359,14.6409352 C73.6753419,14.0022056 73.0295545,13.5310984 72.2620203,13.2770181 C71.4927217,13.0211734 70.6052051,12.98412 69.7688575,13.0070578 C68.9342744,13.0264667 68.1526246,13.1041023 67.4750772,13.3546537 C66.7975298,13.6034407 66.2223202,14.0251434 65.8164976,14.4521394 C65.407146,14.8808999 65.1689457,15.3149537 65.0860168,15.9236877 C65.0066167,16.5341861 65.0842523,17.3158359 64.9836789,18.367446 C64.8848699,19.419056 64.6078518,20.7406264 64.2267314,21.838112 C63.8491398,22.9320688 63.3656815,23.8019409 62.6563741,24.8288487 C61.9453022,25.8592854 61.0066167,27.0414645 59.5597706,28.4247905 C58.1111601,29.8116453 56.1526246,31.3978827 54.4217027,32.8817821 C52.6925452,34.367446 51.1874724,35.7490075 50.0846934,36.8729599 C48.9819144,37.9933833 48.2779003,38.8526687 47.5086017,39.9325099 C46.7428319,41.01588 45.9100132,42.3145126 45.0895457,43.336127 C44.2690781,44.3577415 43.4591972,45.1023379 42.4393472,45.5593295 C41.4159682,46.0180856 40.1861491,46.1892369 39.0692545,46.3074548 L35.9444199,46.5685929 C35.743273,48.671813 35.5438906,50.7750331 35.4380238,53.3299515 Z" id="Shape" fill="#518AEE"></path>
    </g>
</svg>