<?xml version="1.0" encoding="UTF-8"?>
<svg width="100px" height="100px" viewBox="0 0 100 100" version="1.1" xmlns="http://www.w3.org/2000/svg" xmlns:xlink="http://www.w3.org/1999/xlink">
    <!-- Generator: Sketch 50.2 (55047) - http://www.bohemiancoding.com/sketch -->
    <title>Homepage/Icons/Share</title>
    <desc>Created with Sketch.</desc>
    <defs>
        <path d="M87.2378419,66.2221016 C87.23198,66.2084238 87.2231871,66.1967 87.2183022,66.1839991 L70.7424012,23.8941598 C63.1873643,29.5577508 18.7628094,62.7743161 14.8509553,65.7785497 C13.3395571,66.9392097 12.8344551,67.4452888 13.9892531,70.4094659 C14.216891,70.9927269 13.9892531,70.4094659 16.4991316,76.8536691 C16.978832,78.0856492 18.9894703,77.3411854 18.5136778,76.1209292 C18.2919019,75.554277 18.2909249,74.9973947 19.4467,74.8479158 C19.7202562,74.8137212 23.8480243,74.2871255 30.0049935,73.5026053 L31.3385801,76.9240122 C32.2628094,79.2971125 34.9358446,80.4714503 37.3079679,79.547221 L43.7189535,77.0490664 C45.9816544,76.1678246 47.1491533,73.6931177 46.4496309,71.4089231 C61.6222319,69.4754668 79.1005211,67.2518454 87.2378419,66.2221016 Z M44.1986539,71.9189101 C44.6607686,73.1059488 44.0735997,74.4405124 42.887538,74.903604 L36.4677594,77.4056665 C35.2807208,77.8677812 33.9442032,77.2806122 33.4830656,76.0935736 L32.3566001,73.2026704 C35.8600738,72.7561876 39.8696266,72.2462006 44.1156101,71.7049501 L44.1986539,71.9189101 Z" id="path-1"></path>
        <path d="M19.9107686,68.5492835 C19.4398611,68.732957 18.8849327,68.590317 18.569366,68.1623969 C18.1893183,67.6514329 18.2958098,66.9294399 18.8057968,66.5513461 L67.1558836,30.5757707 C67.6639166,30.195723 68.3888406,30.3002605 68.7669344,30.8131785 C69.1469822,31.3231654 69.0404907,32.0461355 68.5295267,32.4252063 L20.1813938,68.3998046 C20.096396,68.4633087 20.0055363,68.513135 19.9107686,68.5492835 Z" id="path-2"></path>
    </defs>
    <g id="Homepage/Icons/Share" stroke="none" stroke-width="1" fill="none" fill-rule="evenodd">
        <path d="M94.7684542,62.3327182 C95.3390143,63.798198 94.5994355,65.4532132 93.11637,66.0306122 L92.7724707,66.1664134 C91.2884281,66.7428354 89.6236431,66.0237733 89.0530829,64.5592705 L72.7510855,22.7139601 C72.1805254,21.2504342 72.9201042,19.594442 74.4031698,19.017043 L74.748046,18.8831958 C76.2311116,18.3048198 77.8958967,19.0248589 78.4664568,20.4893617 L94.7684542,62.3327182 Z" id="Shape" fill="#518AEE" fill-rule="nonzero"></path>
        <path d="M13.8905775,76.9083804 C14.4611376,78.3719062 13.7205818,80.0269214 12.2384933,80.6043205 L11.893617,80.7391446 C10.4105515,81.3175206 8.74674338,80.5984585 8.17618324,79.1329787 L5.2325228,71.5769648 C4.66196266,70.113439 5.40154147,68.4584238 6.88460703,67.8810248 L7.22948328,67.7462006 C8.71352584,67.1678246 10.3773339,67.8868867 10.9478941,69.3504125 L13.8905775,76.9083804 Z" id="Shape" fill="#1F2D3D" fill-rule="nonzero"></path>
        <g id="Shape" fill-rule="nonzero">
            <use fill="#518AEE" fill-rule="evenodd" xlink:href="#path-1"></use>
            <use fill-opacity="0.25" fill="#D8D8D8" fill-rule="evenodd" xlink:href="#path-1"></use>
        </g>
        <g id="Path">
            <use fill="#518AEE" xlink:href="#path-2"></use>
            <use fill-opacity="0.5" fill="#D8D8D8" xlink:href="#path-2"></use>
        </g>
    </g>
</svg>