<?xml version="1.0" encoding="UTF-8"?>
<svg width="100px" height="100px" viewBox="0 0 100 100" version="1.1" xmlns="http://www.w3.org/2000/svg" xmlns:xlink="http://www.w3.org/1999/xlink">
    <!-- Generator: Sketch 50.2 (55047) - http://www.bohemiancoding.com/sketch -->
    <title>Homepage/Icons/Sign up</title>
    <desc>Created with Sketch.</desc>
    <defs>
        <path d="M25.0719726,15.3279298 L25.0719726,60.9279298 L10,60.9279298 L10,20.1279298 C10,17.4879883 12.144043,15.3279298 14.7839843,15.3279298 L25.0719726,15.3279298 Z" id="path-1"></path>
        <path d="M90,20.1279298 L90,60.9279298 L74.9280274,60.9279298 L74.9280274,15.3279298 L85.2160157,15.3279298 C87.855957,15.3279298 90,17.4879883 90,20.1279298 Z" id="path-2"></path>
        <path d="M90,64.1279296 L90,71.3439454 C90,73.9839845 87.855957,76.1279298 85.2160157,76.1279298 L14.7839843,76.1279298 C12.144043,76.1279298 10,73.9839843 10,71.3439453 L10,64.1279296 L90,64.1279296 Z" id="path-3"></path>
    </defs>
    <g id="Homepage/Icons/Sign-up" stroke="none" stroke-width="1" fill="none" fill-rule="evenodd">
        <path d="M67.3859374,86.8 L64.1759765,86.8 C61.8649413,84.3529298 60.3969726,81.8800781 59.7211914,79.328125 L40.2966797,79.328125 C39.6202149,81.8883789 38.1447266,84.3611328 35.8080078,86.8 L32.6140626,86.8 C31.7296875,86.8 31.0140626,87.515625 31.0140626,88.4 C31.0140626,89.284375 31.7296875,90 32.6140626,90 L36.4959962,90 L63.504004,90 L67.3859376,90 C68.2703126,90 68.9859376,89.284375 68.9859376,88.4 C68.9859376,87.515625 68.2703125,86.8 67.3859374,86.8 Z" id="Shape" fill="#518AEE" fill-rule="nonzero"></path>
        <g id="Shape" fill-rule="nonzero">
            <use fill="#518AEE" fill-rule="evenodd" xlink:href="#path-1"></use>
            <use fill-opacity="0.5" fill="#FFFFFF" fill-rule="evenodd" xlink:href="#path-1"></use>
        </g>
        <g id="Shape" fill-rule="nonzero">
            <use fill="#518AEE" fill-rule="evenodd" xlink:href="#path-2"></use>
            <use fill-opacity="0.5" fill="#FFFFFF" fill-rule="evenodd" xlink:href="#path-2"></use>
        </g>
        <path d="M71.7280274,6.6 C71.7280274,5.72001952 71.0240235,5 70.1280274,5 L29.8719726,5 C28.9919922,5 28.2719726,5.72001952 28.2719726,6.6 L28.2719726,60.9279298 L71.7280274,60.9279298 L71.7280274,6.6 Z M44.2879883,46.1279298 L39.1519531,51.263965 C38.8639648,51.5679688 38.4480469,51.7279298 38.0320312,51.7279298 C37.6,51.7279298 37.2,51.5679688 36.895996,51.263965 L34.1280272,48.4959962 C33.5040038,47.8719728 33.5040038,46.8479493 34.1280272,46.2240235 C34.751953,45.6000002 35.7599608,45.6000002 36.3839842,46.2240235 L38.032031,47.8719728 L42.032031,43.8719728 C42.6559568,43.2479494 43.6639646,43.2479494 44.287988,43.8719728 C44.9120114,44.4959962 44.9120117,45.5040038 44.2879883,46.1279298 Z M44.2879883,31.7839843 L39.1519531,36.9200195 C38.8639648,37.2080078 38.4480469,37.3839843 38.0320312,37.3839843 C37.6,37.3839843 37.2,37.2080077 36.895996,36.9200195 L34.1280272,34.1359374 C33.5040038,33.5120117 33.5040038,32.5040038 34.1280272,31.8799805 C34.751953,31.2559571 35.7599608,31.2559571 36.3839842,31.8799805 L38.032031,33.5120117 L42.032031,29.5120117 C42.6559568,28.8879883 43.6639646,28.8879883 44.287988,29.5120117 C44.9120117,30.1359374 44.9120117,31.159961 44.2879883,31.7839843 Z M44.2879883,17.4399414 L39.1519531,22.559961 C38.8639648,22.8639648 38.4480469,23.0399414 38.0320312,23.0399414 C37.6,23.0399414 37.2,22.8639648 36.895996,22.559961 L34.1280272,19.7919922 C33.5040038,19.1679688 33.5040038,18.159961 34.1280272,17.5359374 C34.751953,16.895996 35.7599608,16.895996 36.3839842,17.5359374 L38.032031,19.1679686 L42.032031,15.1679686 C42.6559568,14.5439453 43.6639646,14.5439453 44.287988,15.1679686 C44.9120114,15.791992 44.9120117,16.8 44.2879883,17.4399414 Z M64.7519531,49.1679688 L49.3280274,49.1679688 C48.4480469,49.1679688 47.7280274,48.4479493 47.7280274,47.5679688 C47.7280274,46.6879883 48.4480469,45.9679688 49.3280274,45.9679688 L64.7519531,45.9679688 C65.6320312,45.9679688 66.3519531,46.6879883 66.3519531,47.5679688 C66.3519531,48.4479493 65.6320312,49.1679688 64.7519531,49.1679688 Z M64.7519531,34.8080078 L49.3280274,34.8080078 C48.4480469,34.8080078 47.7280274,34.104004 47.7280274,33.2080078 C47.7280274,32.3279298 48.4480469,31.6080078 49.3280274,31.6080078 L64.7519531,31.6080078 C65.6320312,31.6080078 66.3519531,32.3279298 66.3519531,33.2080078 C66.3519531,34.1040038 65.6320312,34.8080078 64.7519531,34.8080078 Z M64.7519531,20.4639648 L49.3280274,20.4639648 C48.4480469,20.4639648 47.7280274,19.7439453 47.7280274,18.8639648 C47.7280274,17.9839843 48.4480469,17.2639648 49.3280274,17.2639648 L64.7519531,17.2639648 C65.6320312,17.2639648 66.3519531,17.9839843 66.3519531,18.8639648 C66.3519531,19.7439453 65.6320312,20.4639648 64.7519531,20.4639648 Z" id="Shape" fill="#1F2D3D" fill-rule="nonzero"></path>
        <g id="Shape" fill-rule="nonzero">
            <use fill="#518AEE" fill-rule="evenodd" xlink:href="#path-3"></use>
            <use fill-opacity="0.25" fill="#FFFFFF" fill-rule="evenodd" xlink:href="#path-3"></use>
        </g>
    </g>
</svg>