<?xml version="1.0" encoding="UTF-8"?>
<svg width="360px" height="360px" viewBox="0 0 360 360" version="1.1" xmlns="http://www.w3.org/2000/svg" xmlns:xlink="http://www.w3.org/1999/xlink">
    <title>Artboard</title>
    <defs>
        <linearGradient x1="-1.11022302e-14%" y1="50%" x2="100%" y2="50%" id="linearGradient-1">
            <stop stop-color="#344B66" stop-opacity="0" offset="0%"></stop>
            <stop stop-color="#344B66" offset="100%"></stop>
        </linearGradient>
    </defs>
    <g id="Artboard" stroke="none" stroke-width="1" fill="none" fill-rule="evenodd">
        <g id="simple" transform="translate(168.000000, 180.000000) rotate(-45.000000) translate(-168.000000, -180.000000) translate(-2.000000, 10.000000)" fill-rule="nonzero">
            <path d="M65.8037119,78.9746075 L79.9839233,93.1548511 L26.8274617,146.31251 C24.6772065,148.462765 24.6220718,151.914761 26.6620575,154.131772 L26.8274617,154.304187 L58.7941727,186.270899 C61.0010135,188.47774 64.5790096,188.47774 66.7858505,186.270899 L66.7858505,186.270899 L92.0928299,160.963919 C94.2996706,158.757078 97.8776667,158.757078 100.084508,160.963919 L100.084508,160.963919 L105.412293,166.291704 C107.619134,168.498545 107.619134,172.076541 105.412293,174.283382 L105.412293,174.283382 L70.1157162,209.579959 C67.9088753,211.7868 64.3308793,211.7868 62.1240384,209.579959 L62.1240384,209.579959 L36.8170589,184.27298 C34.6102181,182.066139 31.032222,182.066139 28.8253811,184.27298 L28.8253811,184.27298 L23.497596,189.600765 C21.2907551,191.807606 21.2907551,195.385601 23.497596,197.592442 L23.497596,197.592442 L62.1240384,236.218885 C64.3308793,238.425725 67.9088753,238.425725 70.1157162,236.218885 L70.1157162,236.218885 L92.0928299,214.241771 C94.2996706,212.03493 97.8776667,212.03493 100.084508,214.241771 L100.084508,214.241771 L125.391488,239.54875 C127.598328,241.755591 127.598328,245.333587 125.391488,247.540428 L125.391488,247.540428 L113.403971,259.527945 C111.19713,261.734786 107.619134,261.734786 105.412293,259.527945 L105.412293,259.527945 L103.414374,257.530026 C101.207533,255.323185 101.207533,251.745188 103.414374,249.538347 L103.414374,249.538347 L105.412293,247.540428 C107.619134,245.333587 107.619134,241.755591 105.412293,239.54875 L105.412293,239.54875 L100.084508,234.220965 C97.8776667,232.014124 94.2996706,232.014124 92.0928299,234.220965 L92.0928299,234.220965 L76.7754477,249.538347 C74.5686067,251.745188 74.5686067,255.323185 76.7754477,257.530026 L76.7754477,257.530026 L132.051218,312.805796 C134.258059,315.012637 137.836056,315.012637 140.042897,312.805796 L140.042897,312.805796 L152.030413,300.818279 C154.237254,298.611439 157.81525,298.611439 160.022091,300.818279 L160.022091,300.818279 L172.009607,312.805796 C174.216448,315.012637 177.794444,315.012637 180.001286,312.805796 L180.001286,312.805796 L185.32907,307.478011 C187.535912,305.27117 191.113908,305.27117 193.320748,307.478011 L193.320748,307.478011 L211.715405,325.872698 C199.798784,334.53521 185.666491,339.074063 171.409997,339.324488 L170.324294,339.337382 C154.036177,339.37254 137.655291,333.810488 124.297463,322.403645 C121.478964,319.996803 118.85415,317.371989 116.447309,314.55349 C102.475583,298.192092 87.906438,282.428112 72.7398755,267.261549 C57.5733132,252.094986 41.8093329,237.525842 25.4479346,223.554116 C-4.23612921,198.205574 -7.75076284,153.592833 17.59778,123.908769 C20.0046217,121.09027 22.6294349,118.465457 25.4479339,116.058616 C27.0178807,114.717967 28.582327,113.37182 30.1412728,112.020171 L32.0024369,110.401598 L34.4621124,108.247415 L36.6217408,106.341688 L38.6087087,104.576371 L40.8549576,102.566767 L43.1474204,100.500419 L45.5187217,98.3464655 L47.7809753,96.275712 L50.1527624,94.0878875 L52.5109354,91.8953716 L55.3232747,89.2578304 L57.7511994,86.9606464 L65.8037119,78.9746075 Z M193.199214,206.370142 L261.026817,274.197713 L252.829981,282.472193 L250.743593,284.678151 L249.300979,286.213078 L247.035865,288.63921 L244.996649,290.840364 L242.788408,293.242327 L241.172871,295.011822 L238.531116,297.927866 L235.887273,300.874595 L233.659736,303.379685 L231.754009,305.539313 L231.223725,306.142969 C230.139356,307.378593 229.058542,308.617644 227.981221,309.86019 C227.300385,310.645442 226.620912,311.432129 225.942834,312.220211 L225.3683,312.889976 L225.287459,312.805796 L206.640211,294.158548 C204.43337,291.951708 204.43337,288.373712 206.640211,286.16687 L206.640211,286.16687 L225.287459,267.519622 C227.4943,265.312781 227.4943,261.734786 225.287459,259.527945 L225.287459,259.527945 L219.959674,254.20016 C217.752833,251.993319 214.174837,251.993319 211.967996,254.20016 L211.967996,254.20016 L206.640211,259.527945 C204.43337,261.734786 200.855374,261.734786 198.648534,259.527945 L198.648534,259.527945 L173.341554,234.220965 C171.134713,232.014124 171.134713,228.436129 173.341554,226.229288 L173.341554,226.229288 L193.199214,206.370142 Z M152.030413,247.540428 C154.237254,245.333587 157.81525,245.333587 160.022091,247.540428 L160.022091,247.540428 L185.32907,272.847407 C187.535912,275.054248 187.535912,278.632244 185.32907,280.839085 L185.32907,280.839085 L180.001286,286.16687 C177.794444,288.373712 174.216448,288.373712 172.009607,286.16687 L172.009607,286.16687 L160.022091,274.179354 C157.81525,271.972513 154.237254,271.972513 152.030413,274.179354 L152.030413,274.179354 L140.042897,286.16687 C137.836056,288.373712 134.258059,288.373712 132.051218,286.16687 L132.051218,286.16687 L126.723433,280.839085 C124.516592,278.632244 124.516592,275.054248 126.723433,272.847407 L126.723433,272.847407 L152.030413,247.540428 Z M170.065823,0.275515912 C186.353941,0.2401911 202.734827,5.80224213 216.092655,17.2090863 C218.911154,19.6159282 221.535967,22.2407414 223.942809,25.0592404 C237.914536,41.4206389 252.48368,57.1846194 267.650242,72.3511819 C282.816805,87.5177442 298.580785,102.086888 314.942184,116.058615 C344.626247,141.407157 348.140881,186.019899 322.792338,215.703961 C320.385496,218.52246 317.760683,221.147274 314.942184,223.554116 C312.120936,225.963305 309.317452,228.390257 306.53173,230.834973 L304.509819,232.615251 L301.781409,235.036359 L299.535161,237.045964 L297.242697,239.112311 L294.871396,241.266265 L292.609142,243.33702 L290.237356,245.524843 L287.879183,247.717359 L285.066843,250.3549 L282.638918,252.652084 L274.586406,260.638123 L259.371126,245.42305 L313.195914,191.598684 C315.34617,189.448429 315.401304,185.996432 313.361318,183.779421 L313.195914,183.607006 L281.229203,151.640295 C279.022363,149.433455 275.444367,149.433455 273.237526,151.640295 L273.237526,151.640295 L247.930546,176.947275 C245.723706,179.154116 242.145709,179.154116 239.938868,176.947275 L239.938868,176.947275 L234.611083,171.61949 C232.404242,169.412649 232.404242,165.834652 234.611083,163.627811 L234.611083,163.627811 L269.90766,128.331235 C272.114501,126.124394 275.692497,126.124394 277.899337,128.331235 L277.899337,128.331235 L303.206317,153.638215 C305.413158,155.845055 308.991154,155.845055 311.197995,153.638215 L311.197995,153.638215 L316.52578,148.310429 C318.732621,146.103589 318.732621,142.525593 316.52578,140.318752 L316.52578,140.318752 L277.899337,101.692309 C275.692497,99.4854683 272.114501,99.4854683 269.90766,101.692309 L269.90766,101.692309 L247.930546,123.669422 C245.723706,125.876264 242.145709,125.876264 239.938868,123.669422 L239.938868,123.669422 L214.631889,98.3624436 C212.425048,96.1556025 212.425048,92.5776066 214.631889,90.3707656 L214.631889,90.3707656 L226.619405,78.3832491 C228.826246,76.1764082 232.404242,76.1764082 234.611083,78.3832491 L234.611083,78.3832491 L236.609003,80.3811685 C238.815844,82.5880094 238.815844,86.1660053 236.609003,88.3728462 L236.609003,88.3728462 L234.611083,90.3707656 C232.404242,92.5776066 232.404242,96.1556025 234.611083,98.3624436 L234.611083,98.3624436 L239.938868,103.690229 C242.145709,105.89707 245.723706,105.89707 247.930546,103.690229 L247.930546,103.690229 L263.247928,88.3728462 C265.454769,86.1660053 265.454769,82.5880094 263.247928,80.3811685 L263.247928,80.3811685 L207.972157,25.1053974 C205.765317,22.8985565 202.187321,22.8985565 199.98048,25.1053974 L199.98048,25.1053974 L187.992963,37.092914 C185.786122,39.2997549 182.208126,39.2997549 180.001286,37.092914 L180.001286,37.092914 L168.013769,25.1053974 C165.806928,22.8985565 162.228932,22.8985565 160.022091,25.1053974 L160.022091,25.1053974 L154.694306,30.4331825 C152.487465,32.6400235 148.909468,32.6400235 146.702628,30.4331825 L146.702628,30.4331825 L129.451803,13.1831949 C141.20333,4.88299565 155.032285,0.533246361 168.980121,0.288243248 L170.065823,0.275515912 Z M193.320748,111.681906 C195.527589,109.475066 199.105585,109.475066 201.312426,111.681906 L201.312426,111.681906 L226.619405,136.988886 C228.826246,139.195727 228.826246,142.773723 226.619405,144.980563 L226.619405,144.980563 L221.29162,150.308349 C219.084779,152.515189 215.506783,152.515189 213.299943,150.308349 L213.299943,150.308349 L201.312426,138.320832 C199.105585,136.113991 195.527589,136.113991 193.320748,138.320832 L193.320748,138.320832 L187.992963,143.648617 C185.786122,145.855459 185.786122,149.433455 187.992963,151.640295 L187.992963,151.640295 L239.938868,203.5862 C242.145709,205.793041 245.723706,205.793041 247.930546,203.5862 L247.930546,203.5862 L273.237526,178.279221 C275.444367,176.07238 279.022363,176.07238 281.229203,178.279221 L281.229203,178.279221 L286.556989,183.607006 C288.763829,185.813847 288.763829,189.391843 286.556989,191.598684 L286.556989,191.598684 L246.051791,232.102773 L190.047696,176.099413 C183.827144,169.878861 170.771918,156.823634 164.283339,150.335056 L159.476112,145.527095 L193.320748,111.681906 Z M93.3032585,106.474186 L152.634543,165.805439 C152.912984,166.083879 153.198676,166.369571 153.490952,166.661848 L179.879879,193.050807 L146.702628,226.229288 C144.552373,228.379543 141.100377,228.434677 138.883366,226.394691 L138.71095,226.229288 L113.403971,200.922308 C111.19713,198.715467 111.19713,195.137471 113.403971,192.93063 L113.403971,192.93063 L118.731756,187.602844 C120.938597,185.396004 124.516592,185.396004 126.723433,187.602844 L126.723433,187.602844 L138.71095,199.590362 C140.917791,201.797202 144.495787,201.797202 146.702628,199.590362 L146.702628,199.590362 L152.030413,194.262576 C154.237254,192.055736 154.237254,188.47774 152.030413,186.270899 L152.030413,186.270899 L100.084508,134.324993 C97.8776667,132.118152 94.2996706,132.118152 92.0928299,134.324993 L92.0928299,134.324993 L66.7858505,159.631973 C64.5790096,161.838813 61.0010135,161.838813 58.7941727,159.631973 L58.7941727,159.631973 L53.4663875,154.304187 C51.2595467,152.097347 51.2595467,148.519351 53.4663875,146.31251 L53.4663875,146.31251 L93.3032585,106.474186 Z M115.63589,26.005322 L133.383165,43.7526454 C135.590006,45.9594863 135.590006,49.5374824 133.383165,51.7443232 L133.383165,51.7443232 L114.735917,70.3915713 C112.529076,72.5984121 112.529076,76.1764082 114.735917,78.3832491 L114.735917,78.3832491 L120.063702,83.7110342 C122.270543,85.9178751 125.848539,85.9178751 128.05538,83.7110342 L128.05538,83.7110342 L133.383165,78.3832491 C135.590006,76.1764082 139.168002,76.1764082 141.374842,78.3832491 L141.374842,78.3832491 L166.681822,103.690229 C168.888663,105.89707 168.888663,109.475066 166.681822,111.681906 L166.681822,111.681906 L146.155835,132.206818 L79.3633011,65.4150183 L87.5601374,57.1405382 L89.646525,54.9345802 L91.0891383,53.3996525 L93.3542522,50.9735204 L95.3934694,48.7723667 L97.6017091,46.3704038 L99.2172479,44.6009097 L101.859003,41.6848651 L104.502845,38.738136 L106.730382,36.2330463 L108.636109,34.0734181 L109.166393,33.469762 C110.320529,32.1546391 111.47068,30.8355873 112.616864,29.5125867 L114.447283,27.3925196 L115.63589,26.005322 Z M160.022091,51.7443232 C162.228932,49.5374824 165.806928,49.5374824 168.013769,51.7443232 L168.013769,51.7443232 L180.001286,63.7318399 C182.208126,65.9386807 185.786122,65.9386807 187.992963,63.7318399 L187.992963,63.7318399 L199.98048,51.7443232 C202.187321,49.5374824 205.765317,49.5374824 207.972157,51.7443232 L207.972157,51.7443232 L213.299943,57.0721084 C215.506783,59.2789492 215.506783,62.8569453 213.299943,65.0637861 L213.299943,65.0637861 L187.992963,90.3707656 C185.786122,92.5776066 182.208126,92.5776066 180.001286,90.3707656 L180.001286,90.3707656 L154.694306,65.0637861 C152.487465,62.8569453 152.487465,59.2789492 154.694306,57.0721084 L154.694306,57.0721084 L160.022091,51.7443232 Z" id="Combined-Shape" fill="#518AEE"></path>
            <path d="M9.81741964,165.66645 L332.81742,165.66645 C335.854986,165.66645 338.31742,168.128884 338.31742,171.16645 L338.31742,171.468389 C338.31742,174.505955 335.854986,176.968389 332.81742,176.968389 L9.81741964,176.968389 C6.77985352,176.968389 4.31741964,174.505955 4.31741964,171.468389 L4.31741964,171.16645 C4.31741964,168.128884 6.77985352,165.66645 9.81741964,165.66645 Z" id="Rectangle" fill="url(#linearGradient-1)" transform="translate(171.317420, 171.317420) rotate(45.000000) translate(-171.317420, -171.317420) "></path>
            <g id="Mark" transform="translate(290.083102, 290.083102) rotate(45.000000) translate(-290.083102, -290.083102) translate(271.246537, 271.246537)" fill="#344B66">
                <path d="M31.1755739,28.1890129 L21.7823835,18.7958225 C20.9576678,17.9711059 19.6205382,17.9711059 18.7958225,18.7958225 C17.9711059,19.6205382 17.9711059,20.9576678 18.7958225,21.7823835 L28.1890129,31.1755739 C27.0292305,32.390618 25.9024055,33.6386196 24.808537,34.9195785 C21.9920326,38.2178083 17.0350614,38.6083233 13.7368326,35.7918179 C13.4236653,35.5243914 13.1320197,35.2327458 12.8645932,34.9195794 C11.3121786,33.1016456 9.69338493,31.3500927 8.00821119,29.664919 C6.32303745,27.9797453 4.5714846,26.3609516 2.75355169,24.808537 C-0.544678116,21.9920326 -0.935193075,17.0350614 1.8813123,13.7368326 C2.14873878,13.4236653 2.44038438,13.1320197 2.75355075,12.8645932 C4.5714846,11.3121786 6.32303745,9.69338493 8.00821119,8.00821119 C9.69338493,6.32303745 11.3121786,4.5714846 12.8645932,2.75355169 C15.6810976,-0.544678116 20.6380688,-0.935193075 23.9362976,1.8813123 C24.2494649,2.14873878 24.5411105,2.44038438 24.808537,2.75355075 C26.3609516,4.5714846 27.9797453,6.32303745 29.664919,8.00821119 C31.3500927,9.69338493 33.1016456,11.3121786 34.9195785,12.8645932 C38.2178083,15.6810976 38.6083233,20.6380688 35.7918179,23.9362976 C35.5243914,24.2494649 35.2327458,24.5411105 34.9195794,24.808537 C33.6386205,25.9024055 32.390618,27.0292305 31.1755739,28.1890129 L31.1755739,28.1890129 Z" id="path-2"></path>
            </g>
        </g>
    </g>
</svg>