<?xml version="1.0" encoding="UTF-8"?>
<svg width="100px" height="100px" viewBox="0 0 100 100" version="1.1" xmlns="http://www.w3.org/2000/svg" xmlns:xlink="http://www.w3.org/1999/xlink">
    <!-- Generator: Sketch 50.2 (55047) - http://www.bohemiancoding.com/sketch -->
    <title>Homepage/Icons/Small Fee</title>
    <desc>Created with Sketch.</desc>
    <defs></defs>
    <g id="Homepage/Icons/Small-Fee" stroke="none" stroke-width="1" fill="none" fill-rule="evenodd">
        <path d="M75.1171416,30 C76.5713248,30.2138505 77.8651007,30.6094679 78.9985081,31.1868642 C80.1319156,31.7642604 80.7413803,32.5448029 80.8269205,33.5285151 C80.8269205,34.2128366 80.6558427,34.9185325 80.3136819,35.6456241 C79.9715212,36.3727157 79.522442,37.1211811 78.9664307,37.8910428 L56.7688633,70.0326072 C55.4002203,69.8187568 54.2561374,69.4231393 53.3365804,68.8457431 C52.4170234,68.2683468 51.9144824,67.4878043 51.8289422,66.5040922 C51.8289422,65.8197707 51.882404,65.1461518 51.9893292,64.4832154 C52.0962545,63.8202789 52.4277177,63.0611212 52.9837289,62.2057193 L75.1171416,30 Z M63.1201904,40.2006163 C63.1201904,43.4083733 62.1578777,45.9103862 60.2332235,47.7067301 C58.3085693,49.503074 55.8279411,50.4012325 52.7912645,50.4012325 C49.7118177,50.4012325 47.2204972,49.503074 45.317228,47.7067301 C43.4139589,45.9103862 42.4623386,43.4083733 42.4623386,40.2006163 C42.4623386,37.0356294 43.4139589,34.5550012 45.317228,32.7586572 C47.2204972,30.9623133 49.7118177,30.0641548 52.7912645,30.0641548 C55.8279411,30.0641548 58.3085693,30.9623133 60.2332235,32.7586572 C62.1578777,34.5550012 63.1201904,37.0356294 63.1201904,40.2006163 Z M50.2250717,40.2006163 C50.2250717,41.4837191 50.470996,42.4353394 50.9628521,43.0555057 C51.4547082,43.6756721 52.0641729,43.9857506 52.7912645,43.9857506 C53.5183561,43.9857506 54.1278207,43.6756721 54.6196768,43.0555057 C55.1115329,42.4353394 55.3574572,41.4837191 55.3574572,40.2006163 C55.3574572,38.9602836 55.1115329,38.0407403 54.6196768,37.441959 C54.1278207,36.8431777 53.5183561,36.5437916 52.7912645,36.5437916 C52.0641729,36.5437916 51.4547082,36.8431777 50.9628521,37.441959 C50.470996,38.0407403 50.2250717,38.9602836 50.2250717,40.2006163 Z M90.0010597,59.8961458 C90.0010597,63.1039028 89.038747,65.6059157 87.1140928,67.4022596 C85.1894386,69.1986036 82.7088104,70.0967621 79.6721337,70.0967621 C76.592687,70.0967621 74.1013665,69.1986036 72.1980973,67.4022596 C70.2948281,65.6059157 69.3432078,63.1039028 69.3432078,59.8961458 C69.3432078,56.7311589 70.2948281,54.2505307 72.1980973,52.4541868 C74.1013665,50.6578428 76.592687,49.7596843 79.6721337,49.7596843 C82.7088104,49.7596843 85.1894386,50.6578428 87.1140928,52.4541868 C89.038747,54.2505307 90.0010597,56.7311589 90.0010597,59.8961458 Z M77.105941,59.8961458 C77.105941,61.1792486 77.3518653,62.1308689 77.8437214,62.7510352 C78.3355775,63.3712016 78.9450422,63.6812801 79.6721337,63.6812801 C80.3992253,63.6812801 81.00869,63.3712016 81.5005461,62.7510352 C81.9924022,62.1308689 82.2383265,61.1792486 82.2383265,59.8961458 C82.2383265,58.6558131 81.9924022,57.7362699 81.5005461,57.1374886 C81.00869,56.5387073 80.3992253,56.2393211 79.6721337,56.2393211 C78.9450422,56.2393211 78.3355775,56.5387073 77.8437214,57.1374886 C77.3518653,57.7362699 77.105941,58.6558131 77.105941,59.8961458 Z" id="5%" fill="#1F2D3D"></path>
        <path d="M23.151738,70.6100006 C21.1843137,70.6100006 19.398689,70.4603075 17.7948105,70.1609169 C16.190932,69.8615262 14.8116172,69.412447 13.6568247,68.8136657 C12.5020322,68.2148844 11.6038737,67.4771113 10.9623223,66.6003244 C10.3207709,65.7235375 10,64.707763 10,63.5529705 C10,62.3554079 10.3421556,61.3503258 11.0264771,60.537694 C11.7107986,59.7250622 12.4806487,59.0835204 13.3360506,58.6130494 C14.5336132,59.5112214 15.8166968,60.2917639 17.1853398,60.9547003 C18.5539827,61.6176368 20.2861455,61.9491 22.3818801,61.9491 C24.3920745,61.9491 25.8248511,61.5000208 26.680253,60.6018488 C27.5356549,59.7036768 27.9633494,58.6130558 27.9633494,57.329953 C27.9633494,56.0896203 27.5891167,55.0631535 26.8406401,54.2505217 C26.0921634,53.4378899 24.7983875,53.0315801 22.9592735,53.0315801 C21.804481,53.0315801 20.8421683,53.1598885 20.0723066,53.416509 C19.3024449,53.6731296 18.4256712,54.0366699 17.441959,54.507141 C15.3462245,54.4216008 13.6889082,53.8549055 12.4699605,52.8070383 C11.2510129,51.759171 10.6415482,50.1446242 10.6415482,47.9633494 L10.6415482,47.4821883 C10.6415482,47.2897228 10.6629329,46.8941054 10.705703,46.2953241 L11.4755608,36.5437916 C11.6038711,34.7046776 12.1812587,33.2505162 13.207741,32.1812639 C14.2342232,31.1120115 15.6669998,30.5773934 17.5061139,30.5773934 L35.9827018,30.5773934 C36.2393224,31.0478644 36.4959391,31.6680215 36.7525596,32.4378831 C37.0091802,33.2077448 37.1374886,34.0203644 37.1374886,34.8757663 C37.1374886,36.5010298 36.7739482,37.655805 36.0468566,38.3401265 C35.319765,39.024448 34.4002218,39.3666036 33.2881994,39.3666036 L20.9704741,39.3666036 L20.5213904,45.3971566 C21.3340221,45.1833062 22.1573341,44.9908436 22.9913509,44.8197633 C23.8253677,44.6486829 24.8839117,44.563144 26.1670145,44.563144 C28.3910593,44.563144 30.3156846,44.8946072 31.9409482,45.5575437 C33.5662117,46.2204801 34.9027571,47.129331 35.9506244,48.2841235 C36.9984917,49.438916 37.7683418,50.7861538 38.2601979,52.3258771 C38.752054,53.8656005 38.9979783,55.5122244 38.9979783,57.2657982 C38.9979783,59.019372 38.6985922,60.7087654 38.0998108,62.3340289 C37.5010295,63.9592925 36.5601016,65.3813767 35.2769988,66.6003244 C33.993896,67.8192721 32.3579645,68.7922771 30.3691551,69.5193687 C28.3803458,70.2464603 25.9745641,70.6100006 23.151738,70.6100006 Z" id="Path" fill="#518AEE"></path>
    </g>
</svg>