<?xml version="1.0" encoding="UTF-8"?>
<svg width="100px" height="100px" viewBox="0 0 100 100" version="1.1" xmlns="http://www.w3.org/2000/svg" xmlns:xlink="http://www.w3.org/1999/xlink">
    <!-- Generator: Sketch 50.2 (55047) - http://www.bohemiancoding.com/sketch -->
    <title>Homepage/Icons/Tuition Fees</title>
    <desc>Created with Sketch.</desc>
    <defs>
        <path d="M57.0994389,52.3776725 L39.8953968,34.9242965 C38.3848929,33.3919012 35.935882,33.3919012 34.425378,34.9242965 C32.914874,36.4566919 32.914874,38.9411956 34.425378,40.473591 L51.62942,57.926967 C49.5052277,60.1846268 47.4413979,62.5035241 45.4379307,64.8836588 C40.2793782,71.0120599 31.2004666,71.7376709 25.1596142,66.5043566 C24.5860358,66.0074538 24.0518735,65.46555 23.5620694,64.8836589 C20.7187546,61.5057787 17.7538622,58.2512379 14.6673924,55.1200367 C11.5809227,51.9888354 8.3728754,48.9809737 5.04325064,46.0964515 C-0.997601858,40.8631373 -1.71284703,31.6526472 3.44570568,25.5242463 C3.93550979,24.9423552 4.46967213,24.4004514 5.04325051,23.9035487 C8.37287531,21.0190264 11.5809226,18.0111646 14.6673924,14.8799633 C17.7538622,11.7487621 20.7187545,8.49422142 23.5620693,5.11634123 C28.7206218,-1.01205986 37.7995334,-1.7376709 43.8403858,3.49564345 C44.4139642,3.99254616 44.9481265,4.53444999 45.4379306,5.11634109 C48.2812454,8.49422133 51.2461378,11.7487621 54.3326076,14.8799633 C57.4190773,18.0111646 60.6271246,21.0190263 63.9567494,23.9035485 C69.9976019,29.1368627 70.712847,38.3473528 65.5542943,44.4757537 C65.0644902,45.0576448 64.5303279,45.5995486 63.9567495,46.0964513 C61.6106167,48.1289543 59.3248465,50.2226947 57.0994389,52.3776725 Z" id="path-1"></path>
    </defs>
    <g id="Homepage/Icons/Tuition-Fees" stroke="none" stroke-width="1" fill="none" fill-rule="evenodd">
        <g id="Logo/Light" transform="translate(10.000000, 12.000000)">
            <g id="Mark/Trans/Primary" transform="translate(-30.642857, -35.000000)">
                <g id="Mark" transform="translate(34.750000, 35.000000)">
                    <mask id="mask-2" fill="white">
                        <use xlink:href="#path-1"></use>
                    </mask>
                    <use fill="#FFFFFF" fill-rule="evenodd" xlink:href="#path-1"></use>
                    <g id="Color/Primary" mask="url(#mask-2)" fill="#518AEE" fill-rule="evenodd">
                        <rect id="Rectangle" x="0" y="0" width="69" height="70"></rect>
                    </g>
                </g>
            </g>
        </g>
        <path d="M78.9787745,79.5407983 C78.2810108,79.3029243 77.6466896,79.0610894 77.075792,78.8152863 C76.5048944,78.5694831 76.0132955,78.2721451 75.6009806,77.9232632 C75.1886657,77.5743813 74.8675406,77.1581081 74.6375957,76.674431 C74.4076509,76.1907538 74.2926802,75.6000423 74.2926802,74.9022785 C74.2926802,73.8239164 74.6256988,72.9160442 75.291746,72.1786348 C75.9577932,71.4412254 76.9092749,70.937733 78.1462197,70.6681425 L78.1462197,49.0975595 L81.7170707,46.8048782 L81.7143118,70.5492061 C82.6975244,70.6760722 83.4864613,70.9298007 84.0811463,71.3103991 C84.6758313,71.6909975 84.9731693,72.2143124 84.9731693,72.8803596 C84.9731693,73.2926746 84.8780212,73.6455157 84.687722,73.9388936 C84.4974228,74.2322716 84.2674814,74.4820355 83.9978908,74.688193 C83.649009,74.4661773 83.1811971,74.2719164 82.5944412,74.1054046 C82.0076854,73.9388928 81.3654352,73.8556382 80.6676715,73.8556382 C79.9540495,73.8556382 79.4307345,73.9547508 79.0977109,74.1529792 C78.7646873,74.3512075 78.598178,74.6009715 78.598178,74.9022785 C78.598178,75.1401525 78.7012552,75.3344134 78.9074127,75.4850669 C79.1135701,75.6357204 79.4228017,75.7744782 79.8351166,75.9013443 L81.0958425,76.3057281 C82.5865196,76.7814761 83.7322622,77.3880457 84.5331046,78.1254551 C85.3339471,78.8628645 85.7343623,79.8658848 85.7343623,81.1345462 C85.7343623,82.2129083 85.3934147,83.1287095 84.7115093,83.8819771 C84.0296038,84.6352448 83.030548,85.1466662 81.7143118,85.4162567 L81.7143118,87.3192392 C81.5715874,87.3509558 81.349575,87.3906008 81.048268,87.4381756 C80.7469609,87.4857504 80.4377293,87.5095375 80.120564,87.5095375 C79.5020916,87.5095375 79.0184217,87.4024958 78.6695399,87.1884092 C78.320658,86.9743226 78.1462197,86.5184043 78.1462197,85.8206405 L78.1462197,85.5827677 C77.5753221,85.5193346 77.0559716,85.4162575 76.5881528,85.2735331 C76.1203339,85.1308087 75.7159542,84.9484413 75.3750014,84.7264256 C75.0340487,84.5044099 74.7684267,84.2427524 74.5781275,83.9414453 C74.3878283,83.6401383 74.2926802,83.2991906 74.2926802,82.9185922 C74.2926802,82.4587025 74.4274734,82.0662163 74.6970639,81.7411218 C74.9666545,81.4160274 75.260028,81.1662634 75.5771933,80.9918225 C76.0212248,81.3407043 76.5643623,81.6420069 77.2066221,81.8957392 C77.8488819,82.1494714 78.5505997,82.2763356 79.3117965,82.2763356 C80.0888515,82.2763356 80.6359535,82.1574004 80.9531188,81.9195264 C81.2702842,81.6816524 81.4288645,81.4041369 81.4288645,81.0869716 C81.4288645,80.7698063 81.3020002,80.5279713 81.048268,80.3614595 C80.7945357,80.1949477 80.4377301,80.0324029 79.9778403,79.8738203 L78.9787745,79.5407983 Z" id="$" fill="#518AEE"></path>
    </g>
</svg>