<?xml version="1.0" encoding="UTF-8"?>
<svg width="100px" height="100px" viewBox="0 0 100 100" version="1.1" xmlns="http://www.w3.org/2000/svg" xmlns:xlink="http://www.w3.org/1999/xlink">
    <!-- Generator: Sketch 50.2 (55047) - http://www.bohemiancoding.com/sketch -->
    <title>Homepage/Icons/Zero Taxes</title>
    <desc>Created with Sketch.</desc>
    <defs>
        <path d="M35.7369615,55.3287982 C35.7369615,55.69161 35.9183673,56.0544218 36.0997732,56.4172336 C36.2811791,56.5986395 36.8253968,56.9614512 37.5510204,57.1428571 L37.5510204,53.6961451 C37.0068027,53.6961451 36.462585,53.877551 36.0997732,54.2403628 C35.7369615,54.6031746 35.7369615,54.9659864 35.7369615,55.3287982 Z" id="path-1"></path>
        <path d="M40.8163265,61.6780045 C40.8163265,61.1337868 40.6349206,60.952381 40.4535147,60.5895692 C40.0907029,60.4081633 39.7278912,60.0453515 38.8208617,59.8639456 L38.8208617,63.3106576 C39.3650794,63.3106576 39.9092971,63.1292517 40.2721088,62.7664399 C40.6349206,62.4036281 40.8163265,62.0408163 40.8163265,61.6780045 Z" id="path-2"></path>
        <path d="M37.9138322,70.5668934 C44.4444444,70.5668934 49.7052154,65.3061224 49.7052154,58.7755102 C49.7052154,52.244898 44.4444444,46.984127 37.9138322,46.984127 C31.38322,46.984127 26.122449,52.244898 26.122449,58.7755102 C26.122449,65.3061224 31.38322,70.5668934 37.9138322,70.5668934 Z M34.2857143,58.0498866 C33.5600907,57.5056689 33.1972789,56.5986395 33.1972789,55.5102041 C33.1972789,54.4217687 33.5600907,53.5147392 34.2857143,52.7891156 C35.0113379,52.0634921 36.0997732,51.7006803 37.3696145,51.7006803 L37.3696145,50.7936508 L38.6394558,50.7936508 L38.6394558,51.7006803 C40.0907029,51.8820862 41.3605442,52.244898 42.6303855,53.1519274 L41.3605442,54.9659864 C40.4535147,54.4217687 39.5464853,54.0589569 38.6394558,53.877551 L38.6394558,57.5056689 C40.0907029,57.8684807 41.1791383,58.4126984 41.9047619,58.9569161 C42.6303855,59.5011338 42.9931973,60.4081633 42.9931973,61.4965986 C42.9931973,62.585034 42.6303855,63.4920635 41.723356,64.2176871 C40.9977324,64.9433107 39.9092971,65.3061224 38.4580499,65.3061224 L38.4580499,66.7573696 L37.1882086,66.7573696 L37.1882086,65.3061224 C35.3741497,65.1247166 33.7414966,64.399093 32.4716553,63.1292517 L33.9229025,61.4965986 C35.0113379,62.4036281 36.0997732,62.9478458 37.3696145,63.1292517 L37.3696145,59.3197279 C36.0997732,59.138322 35.0113379,58.7755102 34.2857143,58.0498866 Z" id="path-3"></path>
        <circle id="path-4" cx="56.9614512" cy="58.7755102" r="3.44671202"></circle>
        <circle id="path-5" cx="19.047619" cy="58.7755102" r="3.44671202"></circle>
    </defs>
    <g id="Homepage/Icons/Zero-Taxes" stroke="none" stroke-width="1" fill="none" fill-rule="evenodd">
        <g id="Group" transform="translate(12.000000, 10.000000)" fill-rule="nonzero">
            <path d="M5.44217687,70.2040816 L5.44217687,47.1655329 C7.61904762,47.1655329 9.43310658,45.3514739 9.43310658,43.1746032 L17.5963719,43.1746032 C17.9591837,42.0861678 18.5034014,40.9977324 19.2290249,40.0907029 L21.0430839,37.9138322 L2.35827664,37.9138322 C1.08843537,37.9138322 0,39.0022676 0,40.2721088 L0,77.2789116 C0,78.5487528 1.08843537,79.6371882 2.35827664,79.6371882 L63.6734694,79.6371882 L63.6734694,74.1950113 L9.43310658,74.1950113 C9.43310658,72.0181406 7.61904762,70.2040816 5.44217687,70.2040816 Z" id="Shape" fill="#518AEE"></path>
            <path d="M70.4761905,47.345886 C69.120998,47.3144443 67.9156727,46.5801118 67.2154169,45.4536904 C66.7566358,44.8042485 66.4852608,44.0165627 66.4852608,43.1746018 L58.3219955,43.1746018 L33.7414966,43.1746018 L37.5510205,37.9138308 L54.8752834,37.9138308 L73.5600907,37.9138308 C74.829932,37.9138308 75.9183673,39.0022662 75.9183673,40.2721075 L75.9183673,77.2789102 C75.9183673,78.5487515 74.829932,79.6371868 73.5600907,79.6371868 L12.244898,79.6371868 L12.244898,74.19501 L66.4852608,74.19501 C66.4852608,72.0181392 68.2993197,70.2040802 70.4761905,70.2040802 L70.4761905,47.345886 Z" id="Combined-Shape" fill="#518AEE"></path>
            <g id="Shape">
                <use fill="#518AEE" fill-rule="evenodd" xlink:href="#path-1"></use>
                <use fill-opacity="0.5" fill="#FFFFFF" fill-rule="evenodd" xlink:href="#path-1"></use>
            </g>
            <g id="Shape">
                <use fill="#518AEE" fill-rule="evenodd" xlink:href="#path-2"></use>
                <use fill-opacity="0.5" fill="#FFFFFF" fill-rule="evenodd" xlink:href="#path-2"></use>
            </g>
            <g id="Shape">
                <use fill="#518AEE" fill-rule="evenodd" xlink:href="#path-3"></use>
                <use fill-opacity="0.5" fill="#FFFFFF" fill-rule="evenodd" xlink:href="#path-3"></use>
            </g>
            <g id="Oval">
                <use fill="#518AEE" fill-rule="evenodd" xlink:href="#path-4"></use>
                <use fill-opacity="0.5" fill="#FFFFFF" fill-rule="evenodd" xlink:href="#path-4"></use>
            </g>
            <g id="Oval">
                <use fill="#518AEE" fill-rule="evenodd" xlink:href="#path-5"></use>
                <use fill-opacity="0.5" fill="#FFFFFF" fill-rule="evenodd" xlink:href="#path-5"></use>
            </g>
            <path d="M29.569161,15.9637188 L35.3741497,24.1269841 L26.4852608,35.1927438 L21.2244898,41.9047619 C18.8662132,44.8072562 19.4104308,48.9795918 22.3129252,51.1564626 L23.7641723,52.244898 L35.9183673,35.3741497 L39.5464853,30.2947846 L43.1746032,35.3741497 L52.7891156,35.3741497 L43.9002268,24.30839 L49.7052154,16.1451247 C52.9705215,16.6893424 56.2358277,15.600907 58.2312925,12.8798186 C60.7709751,9.25170068 60.0453515,4.1723356 56.4172336,1.63265306 C52.7891156,-0.907029478 47.7097506,-0.181405896 45.170068,3.44671202 C43.1746032,6.16780045 43.1746032,9.61451247 44.8072562,12.3356009 L39.7278912,18.6848073 L34.6485261,12.3356009 C36.2811791,9.61451247 36.2811791,6.16780045 34.2857143,3.44671202 C31.7460317,-0.181405896 26.6666667,-0.907029478 23.0385488,1.63265306 C19.4104308,4.1723356 18.6848073,9.25170068 21.2244898,12.8798186 C23.2199546,15.600907 26.4852608,16.6893424 29.569161,15.9637188 Z M47.7097506,5.44217687 C49.3424036,3.26530612 52.244898,2.72108844 54.4217687,4.3537415 C56.5986395,5.98639456 57.1428571,8.88888889 55.5102041,11.0657596 C53.877551,13.2426304 50.9750567,13.7868481 48.7981859,12.154195 C46.8027211,10.521542 46.2585034,7.61904762 47.7097506,5.44217687 Z M39.7278912,22.8571429 C40.4535147,22.8571429 41.1791383,23.5827664 41.1791383,24.30839 C41.1791383,25.0340136 40.4535147,25.7596372 39.7278912,25.7596372 C39.0022676,25.7596372 38.276644,25.2154195 38.276644,24.30839 C38.276644,23.4013605 39.0022676,22.8571429 39.7278912,22.8571429 Z M25.0340136,4.3537415 C27.2108844,2.72108844 30.1133787,3.26530612 31.7460317,5.44217687 C33.3786848,7.61904762 32.8344671,10.521542 30.6575964,12.154195 C28.4807256,13.7868481 25.5782313,13.2426304 23.9455782,11.0657596 C22.3129252,8.88888889 22.8571429,5.80498866 25.0340136,4.3537415 Z" id="Shape" fill="#1F2D3D"></path>
        </g>
    </g>
</svg>