<?xml version="1.0" standalone="no"?>
<!DOCTYPE svg PUBLIC "-//W3C//DTD SVG 20010904//EN"
 "http://www.w3.org/TR/2001/REC-SVG-20010904/DTD/svg10.dtd">
<svg version="1.0" xmlns="http://www.w3.org/2000/svg"
 width="400.000000pt" height="400.000000pt" viewBox="0 0 400.000000 400.000000"
 preserveAspectRatio="xMidYMid meet">
<metadata>
Created by potrace 1.11, written by Peter Selinger 2001-2013
</metadata>
<g transform="translate(0.000000,400.000000) scale(0.100000,-0.100000)"
fill="#000000" stroke="none">
<path d="M1830 3981 c-206 -44 -334 -126 -515 -332 -60 -68 -114 -129 -120
-135 -265 -292 -490 -514 -808 -798 -187 -168 -186 -166 -244 -252 -142 -208
-179 -490 -97 -734 45 -133 128 -255 245 -360 46 -41 131 -117 189 -169 255
-229 571 -548 805 -816 127 -145 159 -177 235 -229 160 -112 310 -157 508
-151 161 4 303 49 437 137 56 37 160 138 250 243 52 61 160 181 175 195 3 3
28 29 54 58 l49 52 -507 508 c-279 279 -515 520 -526 537 -28 43 -35 123 -16
182 17 51 67 107 120 134 40 20 142 17 187 -4 21 -11 251 -233 545 -527 280
-280 511 -510 514 -510 3 0 35 28 71 63 72 68 118 109 229 207 184 160 259
249 309 365 12 28 26 59 31 70 37 78 58 304 39 412 -23 132 -81 273 -148 363
-40 53 -127 140 -225 224 -303 262 -629 591 -968 976 -126 144 -273 238 -438
282 -107 28 -271 32 -380 9z"/>
</g>
</svg>
