<?xml version="1.0" encoding="UTF-8"?>
<svg width="1200px" height="400px" viewBox="0 0 1200 400" version="1.1" xmlns="http://www.w3.org/2000/svg" xmlns:xlink="http://www.w3.org/1999/xlink">
    <!-- Generator: Sketch 53.2 (72643) - https://sketchapp.com -->
    <title>Stars</title>
    <desc>Created with Sketch.</desc>
    <g id="Stars" stroke="none" stroke-width="1" fill="none" fill-rule="evenodd">
        <rect fill="#101B2F" x="0" y="0" width="1200" height="400"></rect>
        <polygon id="Star" fill="#FFFFFF" points="34 46 36 40 42 38 36 36 34 30 32 36 26 38 32 40"></polygon>
        <polygon id="Star" fill="#FFFFFF" points="128 197 130 191 136 189 130 187 128 181 126 187 120 189 126 191"></polygon>
        <polygon id="Star" fill="#FFFFFF" points="207 145 209 139 215 137 209 135 207 129 205 135 199 137 205 139"></polygon>
        <circle id="Dot" fill-opacity="0.5" fill="#FFFFFF" cx="88" cy="67" r="4"></circle>
        <circle id="Dot" fill-opacity="0.5" fill="#FFFFFF" cx="188" cy="47" r="4"></circle>
        <circle id="Dot" fill-opacity="0.5" fill="#FFFFFF" cx="168" cy="227" r="4"></circle>
        <circle id="Dot" fill-opacity="0.5" fill="#FFFFFF" cx="48" cy="157" r="4"></circle>
        <circle id="Dot" fill-opacity="0.5" fill="#FFFFFF" cx="78" cy="207" r="4"></circle>
        <circle id="Dot" fill-opacity="0.5" fill="#FFFFFF" cx="138" cy="127" r="4"></circle>
        <polygon id="Star" fill="#FFFFFF" transform="translate(473.857350, 61.838803) rotate(120.000000) translate(-473.857350, -61.838803) " points="473.85735 69.8388026 475.85735 63.8388026 481.85735 61.8388026 475.85735 59.8388026 473.85735 53.8388026 471.85735 59.8388026 465.85735 61.8388026 471.85735 63.8388026"></polygon>
        <polygon id="Star" fill="#FFFFFF" transform="translate(296.087514, 67.745191) rotate(120.000000) translate(-296.087514, -67.745191) " points="296.087514 75.7451905 298.087514 69.7451905 304.087514 67.7451905 298.087514 65.7451905 296.087514 59.7451905 294.087514 65.7451905 288.087514 67.7451905 294.087514 69.7451905"></polygon>
        <polygon id="Star" fill="#FFFFFF" transform="translate(301.620835, 162.161197) rotate(120.000000) translate(-301.620835, -162.161197) " points="301.620835 170.161197 303.620835 164.161197 309.620835 162.161197 303.620835 160.161197 301.620835 154.161197 299.620835 160.161197 293.620835 162.161197 299.620835 164.161197"></polygon>
        <circle id="Dot" fill-opacity="0.5" fill="#FFFFFF" transform="translate(421.742613, 94.104174) rotate(120.000000) translate(-421.742613, -94.104174) " cx="421.742613" cy="94.1041744" r="4"></circle>
        <circle id="Dot" fill-opacity="0.5" fill="#FFFFFF" transform="translate(389.063121, 190.706715) rotate(120.000000) translate(-389.063121, -190.706715) " cx="389.063121" cy="190.706715" r="4"></circle>
        <circle id="Dot" fill-opacity="0.5" fill="#FFFFFF" transform="translate(243.178549, 83.386207) rotate(120.000000) translate(-243.178549, -83.386207) " cx="243.178549" cy="83.3862067" r="4"></circle>
        <circle id="Dot" fill-opacity="0.5" fill="#FFFFFF" transform="translate(363.800327, 14.463158) rotate(120.000000) translate(-363.800327, -14.463158) " cx="363.800327" cy="14.4631582" r="4"></circle>
        <circle id="Dot" fill-opacity="0.5" fill="#FFFFFF" transform="translate(305.499057, 15.443920) rotate(120.000000) translate(-305.499057, -15.443920) " cx="305.499057" cy="15.4439203" r="4"></circle>
        <circle id="Dot" fill-opacity="0.5" fill="#FFFFFF" transform="translate(344.781089, 107.405445) rotate(120.000000) translate(-344.781089, -107.405445) " cx="344.781089" cy="107.405445" r="4"></circle>
        <polygon id="Star" fill="#FFFFFF" transform="translate(223.857350, 321.838803) rotate(120.000000) translate(-223.857350, -321.838803) " points="223.85735 329.838803 225.85735 323.838803 231.85735 321.838803 225.85735 319.838803 223.85735 313.838803 221.85735 319.838803 215.85735 321.838803 221.85735 323.838803"></polygon>
        <polygon id="Star" fill="#FFFFFF" transform="translate(46.087514, 327.745191) rotate(120.000000) translate(-46.087514, -327.745191) " points="46.0875139 335.745191 48.0875139 329.745191 54.0875139 327.745191 48.0875139 325.745191 46.0875139 319.745191 44.0875139 325.745191 38.0875139 327.745191 44.0875139 329.745191"></polygon>
        <circle id="Dot" fill-opacity="0.5" fill="#FFFFFF" transform="translate(171.742613, 354.104174) rotate(120.000000) translate(-171.742613, -354.104174) " cx="171.742613" cy="354.104174" r="4"></circle>
        <circle id="Dot" fill-opacity="0.5" fill="#FFFFFF" transform="translate(113.800327, 274.463158) rotate(120.000000) translate(-113.800327, -274.463158) " cx="113.800327" cy="274.463158" r="4"></circle>
        <circle id="Dot" fill-opacity="0.5" fill="#FFFFFF" transform="translate(55.499057, 275.443920) rotate(120.000000) translate(-55.499057, -275.443920) " cx="55.4990566" cy="275.44392" r="4"></circle>
        <circle id="Dot" fill-opacity="0.5" fill="#FFFFFF" transform="translate(94.781089, 367.405445) rotate(120.000000) translate(-94.781089, -367.405445) " cx="94.7810889" cy="367.405445" r="4"></circle>
        <polygon id="Star" fill="#FFFFFF" transform="translate(455.757983, 164.779302) rotate(50.000000) translate(-455.757983, -164.779302) " points="455.757983 172.779302 457.757983 166.779302 463.757983 164.779302 457.757983 162.779302 455.757983 156.779302 453.757983 162.779302 447.757983 164.779302 453.757983 166.779302"></polygon>
        <polygon id="Star" fill="#FFFFFF" transform="translate(400.507307, 333.848408) rotate(50.000000) translate(-400.507307, -333.848408) " points="400.507307 341.848408 402.507307 335.848408 408.507307 333.848408 402.507307 331.848408 400.507307 325.848408 398.507307 331.848408 392.507307 333.848408 398.507307 335.848408"></polygon>
        <polygon id="Star" fill="#FFFFFF" transform="translate(491.121839, 360.940964) rotate(50.000000) translate(-491.121839, -360.940964) " points="491.121839 368.940964 493.121839 362.940964 499.121839 360.940964 493.121839 358.940964 491.121839 352.940964 489.121839 358.940964 483.121839 360.940964 489.121839 362.940964"></polygon>
        <circle id="Dot" fill-opacity="0.5" fill="#FFFFFF" transform="translate(468.253225, 224.786542) rotate(50.000000) translate(-468.253225, -224.786542) " cx="468.253225" cy="224.786542" r="4"></circle>
        <circle id="Dot" fill-opacity="0.5" fill="#FFFFFF" transform="translate(547.852875, 288.535235) rotate(50.000000) translate(-547.852875, -288.535235) " cx="547.852875" cy="288.535235" r="4"></circle>
        <circle id="Dot" fill-opacity="0.5" fill="#FFFFFF" transform="translate(397.109123, 388.916115) rotate(50.000000) translate(-397.109123, -388.916115) " cx="397.109123" cy="388.916115" r="4"></circle>
        <circle id="Dot" fill-opacity="0.5" fill="#FFFFFF" transform="translate(373.597721, 251.995650) rotate(50.000000) translate(-373.597721, -251.995650) " cx="373.597721" cy="251.99565" r="4"></circle>
        <circle id="Dot" fill-opacity="0.5" fill="#FFFFFF" transform="translate(454.429939, 301.656021) rotate(50.000000) translate(-454.429939, -301.656021) " cx="454.429939" cy="301.656021" r="4"></circle>
        <polygon id="Star" fill="#FFFFFF" transform="translate(538.000000, 187.000000) rotate(-90.000000) translate(-538.000000, -187.000000) " points="538 195 540 189 546 187 540 185 538 179 536 185 530 187 536 189"></polygon>
        <polygon id="Star" fill="#FFFFFF" transform="translate(689.000000, 93.000000) rotate(-90.000000) translate(-689.000000, -93.000000) " points="689 101 691 95 697 93 691 91 689 85 687 91 681 93 687 95"></polygon>
        <polygon id="Star" fill="#FFFFFF" transform="translate(637.000000, 14.000000) rotate(-90.000000) translate(-637.000000, -14.000000) " points="637 22 639 16 645 14 639 12 637 6 635 12 629 14 635 16"></polygon>
        <circle id="Dot" fill-opacity="0.5" fill="#FFFFFF" transform="translate(567.000000, 133.000000) rotate(-90.000000) translate(-567.000000, -133.000000) " cx="567" cy="133" r="4"></circle>
        <circle id="Dot" fill-opacity="0.5" fill="#FFFFFF" transform="translate(547.000000, 33.000000) rotate(-90.000000) translate(-547.000000, -33.000000) " cx="547" cy="33" r="4"></circle>
        <circle id="Dot" fill-opacity="0.5" fill="#FFFFFF" transform="translate(727.000000, 53.000000) rotate(-90.000000) translate(-727.000000, -53.000000) " cx="727" cy="53" r="4"></circle>
        <circle id="Dot" fill-opacity="0.5" fill="#FFFFFF" transform="translate(657.000000, 173.000000) rotate(-90.000000) translate(-657.000000, -173.000000) " cx="657" cy="173" r="4"></circle>
        <circle id="Dot" fill-opacity="0.5" fill="#FFFFFF" transform="translate(707.000000, 143.000000) rotate(-90.000000) translate(-707.000000, -143.000000) " cx="707" cy="143" r="4"></circle>
        <circle id="Dot" fill-opacity="0.5" fill="#FFFFFF" transform="translate(627.000000, 83.000000) rotate(-90.000000) translate(-627.000000, -83.000000) " cx="627" cy="83" r="4"></circle>
        <polygon id="Star" fill="#FFFFFF" transform="translate(720.492693, 297.151592) rotate(-130.000000) translate(-720.492693, -297.151592) " points="720.492693 305.151592 722.492693 299.151592 728.492693 297.151592 722.492693 295.151592 720.492693 289.151592 718.492693 295.151592 712.492693 297.151592 718.492693 299.151592"></polygon>
        <polygon id="Star" fill="#FFFFFF" transform="translate(629.878161, 270.059036) rotate(-130.000000) translate(-629.878161, -270.059036) " points="629.878161 278.059036 631.878161 272.059036 637.878161 270.059036 631.878161 268.059036 629.878161 262.059036 627.878161 268.059036 621.878161 270.059036 627.878161 272.059036"></polygon>
        <circle id="Dot" fill-opacity="0.5" fill="#FFFFFF" transform="translate(573.147125, 342.464765) rotate(-130.000000) translate(-573.147125, -342.464765) " cx="573.147125" cy="342.464765" r="4"></circle>
        <circle id="Dot" fill-opacity="0.5" fill="#FFFFFF" transform="translate(723.890877, 242.083885) rotate(-130.000000) translate(-723.890877, -242.083885) " cx="723.890877" cy="242.083885" r="4"></circle>
        <circle id="Dot" fill-opacity="0.5" fill="#FFFFFF" transform="translate(747.402279, 379.004350) rotate(-130.000000) translate(-747.402279, -379.004350) " cx="747.402279" cy="379.00435" r="4"></circle>
        <circle id="Dot" fill-opacity="0.5" fill="#FFFFFF" transform="translate(766.420873, 323.883637) rotate(-130.000000) translate(-766.420873, -323.883637) " cx="766.420873" cy="323.883637" r="4"></circle>
        <circle id="Dot" fill-opacity="0.5" fill="#FFFFFF" transform="translate(666.570061, 329.343979) rotate(-130.000000) translate(-666.570061, -329.343979) " cx="666.570061" cy="329.343979" r="4"></circle>
        <polygon id="Star" fill="#FFFFFF" transform="translate(941.748327, 266.574150) rotate(170.000000) translate(-941.748327, -266.574150) " points="941.748327 274.57415 943.748327 268.57415 949.748327 266.57415 943.748327 264.57415 941.748327 258.57415 939.748327 264.57415 933.748327 266.57415 939.748327 268.57415"></polygon>
        <polygon id="Star" fill="#FFFFFF" transform="translate(822.955523, 134.191108) rotate(170.000000) translate(-822.955523, -134.191108) " points="822.955523 142.191108 824.955523 136.191108 830.955523 134.191108 824.955523 132.191108 822.955523 126.191108 820.955523 132.191108 814.955523 134.191108 820.955523 136.191108"></polygon>
        <polygon id="Star" fill="#FFFFFF" transform="translate(754.185416, 199.119317) rotate(170.000000) translate(-754.185416, -199.119317) " points="754.185416 207.119317 756.185416 201.119317 762.185416 199.119317 756.185416 197.119317 754.185416 191.119317 752.185416 197.119317 746.185416 199.119317 752.185416 201.119317"></polygon>
        <circle id="Dot" fill-opacity="0.5" fill="#FFFFFF" transform="translate(883.532911, 247.391727) rotate(170.000000) translate(-883.532911, -247.391727) " cx="883.532911" cy="247.391727" r="4"></circle>
        <circle id="Dot" fill-opacity="0.5" fill="#FFFFFF" transform="translate(788.525100, 284.452699) rotate(170.000000) translate(-788.525100, -284.452699) " cx="788.5251" cy="284.452699" r="4"></circle>
        <circle id="Dot" fill-opacity="0.5" fill="#FFFFFF" transform="translate(776.964583, 103.714340) rotate(170.000000) translate(-776.964583, -103.714340) " cx="776.964583" cy="103.71434" r="4"></circle>
        <circle id="Dot" fill-opacity="0.5" fill="#FFFFFF" transform="translate(907.296885, 151.813102) rotate(170.000000) translate(-907.296885, -151.813102) " cx="907.296885" cy="151.813102" r="4"></circle>
        <circle id="Dot" fill-opacity="0.5" fill="#FFFFFF" transform="translate(869.070244, 107.782159) rotate(170.000000) translate(-869.070244, -107.782159) " cx="869.070244" cy="107.782159" r="4"></circle>
        <circle id="Dot" fill-opacity="0.5" fill="#FFFFFF" transform="translate(823.873633, 196.985670) rotate(170.000000) translate(-823.873633, -196.985670) " cx="823.873633" cy="196.98567" r="4"></circle>
        <polygon id="Star" fill="#FFFFFF" transform="translate(1151.748327, 166.574150) rotate(170.000000) translate(-1151.748327, -166.574150) " points="1151.74833 174.57415 1153.74833 168.57415 1159.74833 166.57415 1153.74833 164.57415 1151.74833 158.57415 1149.74833 164.57415 1143.74833 166.57415 1149.74833 168.57415"></polygon>
        <polygon id="Star" fill="#FFFFFF" transform="translate(1032.955523, 34.191108) rotate(170.000000) translate(-1032.955523, -34.191108) " points="1032.95552 42.1911078 1034.95552 36.1911078 1040.95552 34.1911078 1034.95552 32.1911078 1032.95552 26.1911078 1030.95552 32.1911078 1024.95552 34.1911078 1030.95552 36.1911078"></polygon>
        <polygon id="Star" fill="#FFFFFF" transform="translate(964.185416, 99.119317) rotate(170.000000) translate(-964.185416, -99.119317) " points="964.185416 107.119317 966.185416 101.119317 972.185416 99.119317 966.185416 97.119317 964.185416 91.119317 962.185416 97.119317 956.185416 99.119317 962.185416 101.119317"></polygon>
        <circle id="Dot" fill-opacity="0.5" fill="#FFFFFF" transform="translate(1093.532911, 147.391727) rotate(170.000000) translate(-1093.532911, -147.391727) " cx="1093.53291" cy="147.391727" r="4"></circle>
        <circle id="Dot" fill-opacity="0.5" fill="#FFFFFF" transform="translate(998.525100, 184.452699) rotate(170.000000) translate(-998.525100, -184.452699) " cx="998.5251" cy="184.452699" r="4"></circle>
        <circle id="Dot" fill-opacity="0.5" fill="#FFFFFF" transform="translate(986.964583, 3.714340) rotate(170.000000) translate(-986.964583, -3.714340) " cx="986.964583" cy="3.71434027" r="4"></circle>
        <circle id="Dot" fill-opacity="0.5" fill="#FFFFFF" transform="translate(1117.296885, 51.813102) rotate(170.000000) translate(-1117.296885, -51.813102) " cx="1117.29689" cy="51.8131017" r="4"></circle>
        <circle id="Dot" fill-opacity="0.5" fill="#FFFFFF" transform="translate(1079.070244, 7.782159) rotate(170.000000) translate(-1079.070244, -7.782159) " cx="1079.07024" cy="7.78215934" r="4"></circle>
        <circle id="Dot" fill-opacity="0.5" fill="#FFFFFF" transform="translate(1033.873633, 96.985670) rotate(170.000000) translate(-1033.873633, -96.985670) " cx="1033.87363" cy="96.9856702" r="4"></circle>
        <polygon id="Star" fill="#FFFFFF" transform="translate(1051.586385, 307.727640) rotate(100.000000) translate(-1051.586385, -307.727640) " points="1051.58639 315.72764 1053.58639 309.72764 1059.58639 307.72764 1053.58639 305.72764 1051.58639 299.72764 1049.58639 305.72764 1043.58639 307.72764 1049.58639 309.72764"></polygon>
        <polygon id="Star" fill="#FFFFFF" transform="translate(1089.078182, 394.557157) rotate(100.000000) translate(-1089.078182, -394.557157) " points="1089.07818 402.557157 1091.07818 396.557157 1097.07818 394.557157 1091.07818 392.557157 1089.07818 386.557157 1087.07818 392.557157 1081.07818 394.557157 1087.07818 396.557157"></polygon>
        <circle id="Dot" fill-opacity="0.5" fill="#FFFFFF" transform="translate(1178.678858, 289.520407) rotate(100.000000) translate(-1178.678858, -289.520407) " cx="1178.67886" cy="289.520407" r="4"></circle>
        <circle id="Dot" fill-opacity="0.5" fill="#FFFFFF" transform="translate(1181.010195, 391.474146) rotate(100.000000) translate(-1181.010195, -391.474146) " cx="1181.0102" cy="391.474146" r="4"></circle>
        <circle id="Dot" fill-opacity="0.5" fill="#FFFFFF" transform="translate(1007.217763, 340.521319) rotate(100.000000) translate(-1007.217763, -340.521319) " cx="1007.21776" cy="340.521319" r="4"></circle>
        <circle id="Dot" fill-opacity="0.5" fill="#FFFFFF" transform="translate(1096.992087, 234.499761) rotate(100.000000) translate(-1096.992087, -234.499761) " cx="1096.99209" cy="234.499761" r="4"></circle>
        <circle id="Dot" fill-opacity="0.5" fill="#FFFFFF" transform="translate(1042.542254, 255.361585) rotate(100.000000) translate(-1042.542254, -255.361585) " cx="1042.54225" cy="255.361585" r="4"></circle>
        <circle id="Dot" fill-opacity="0.5" fill="#FFFFFF" transform="translate(1110.907984, 328.341904) rotate(100.000000) translate(-1110.907984, -328.341904) " cx="1110.90798" cy="328.341904" r="4"></circle>
        <polygon id="Star" fill="#FFFFFF" transform="translate(868.642258, 363.865493) scale(1, -1) rotate(40.000000) translate(-868.642258, -363.865493) " points="868.642258 371.865493 870.642258 365.865493 876.642258 363.865493 870.642258 361.865493 868.642258 355.865493 866.642258 361.865493 860.642258 363.865493 866.642258 365.865493"></polygon>
        <polygon id="Star" fill="#FFFFFF" transform="translate(962.584725, 352.919583) scale(1, -1) rotate(40.000000) translate(-962.584725, -352.919583) " points="962.584725 360.919583 964.584725 354.919583 970.584725 352.919583 964.584725 350.919583 962.584725 344.919583 960.584725 350.919583 954.584725 352.919583 960.584725 354.919583"></polygon>
        <circle id="Dot" fill-opacity="0.5" fill="#FFFFFF" transform="translate(874.858107, 309.044300) scale(1, -1) rotate(40.000000) translate(-874.858107, -309.044300) " cx="874.858107" cy="309.0443" r="4"></circle>
        <circle id="Dot" fill-opacity="0.5" fill="#FFFFFF" transform="translate(818.769859, 382.216074) scale(1, -1) rotate(40.000000) translate(-818.769859, -382.216074) " cx="818.769859" cy="382.216074" r="4"></circle>
        <circle id="Dot" fill-opacity="0.5" fill="#FFFFFF" transform="translate(916.155534, 404.932372) scale(1, -1) rotate(40.000000) translate(-916.155534, -404.932372) " cx="916.155534" cy="404.932372" r="4"></circle>
        <polygon id="Star" fill="#FFFFFF" transform="translate(900.492693, 16.848408) scale(1, -1) rotate(-130.000000) translate(-900.492693, -16.848408) " points="900.492693 24.8484085 902.492693 18.8484085 908.492693 16.8484085 902.492693 14.8484085 900.492693 8.84840849 898.492693 14.8484085 892.492693 16.8484085 898.492693 18.8484085"></polygon>
        <polygon id="Star" fill="#FFFFFF" transform="translate(809.878161, 43.940964) scale(1, -1) rotate(-130.000000) translate(-809.878161, -43.940964) " points="809.878161 51.9409638 811.878161 45.9409638 817.878161 43.9409638 811.878161 41.9409638 809.878161 35.9409638 807.878161 41.9409638 801.878161 43.9409638 807.878161 45.9409638"></polygon>
        <circle id="Dot" fill-opacity="0.5" fill="#FFFFFF" transform="translate(903.890877, 71.916115) scale(1, -1) rotate(-130.000000) translate(-903.890877, -71.916115) " cx="903.890877" cy="71.9161154" r="4"></circle>
        <polygon id="Star" fill="#FFFFFF" transform="translate(245.242017, 197.779302) scale(1, -1) rotate(-130.000000) translate(-245.242017, -197.779302) " points="245.242017 205.779302 247.242017 199.779302 253.242017 197.779302 247.242017 195.779302 245.242017 189.779302 243.242017 195.779302 237.242017 197.779302 243.242017 199.779302"></polygon>
        <polygon id="Star" fill="#FFFFFF" transform="translate(300.492693, 366.848408) scale(1, -1) rotate(-130.000000) translate(-300.492693, -366.848408) " points="300.492693 374.848408 302.492693 368.848408 308.492693 366.848408 302.492693 364.848408 300.492693 358.848408 298.492693 364.848408 292.492693 366.848408 298.492693 368.848408"></polygon>
        <polygon id="Star" fill="#FFFFFF" transform="translate(209.878161, 393.940964) scale(1, -1) rotate(-130.000000) translate(-209.878161, -393.940964) " points="209.878161 401.940964 211.878161 395.940964 217.878161 393.940964 211.878161 391.940964 209.878161 385.940964 207.878161 391.940964 201.878161 393.940964 207.878161 395.940964"></polygon>
        <circle id="Dot" fill-opacity="0.5" fill="#FFFFFF" transform="translate(232.746775, 257.786542) scale(1, -1) rotate(-130.000000) translate(-232.746775, -257.786542) " cx="232.746775" cy="257.786542" r="4"></circle>
        <circle id="Dot" fill-opacity="0.5" fill="#FFFFFF" transform="translate(153.147125, 321.535235) scale(1, -1) rotate(-130.000000) translate(-153.147125, -321.535235) " cx="153.147125" cy="321.535235" r="4"></circle>
        <circle id="Dot" fill-opacity="0.5" fill="#FFFFFF" transform="translate(327.402279, 284.995650) scale(1, -1) rotate(-130.000000) translate(-327.402279, -284.995650) " cx="327.402279" cy="284.99565" r="4"></circle>
        <circle id="Dot" fill-opacity="0.5" fill="#FFFFFF" transform="translate(346.420873, 340.116363) scale(1, -1) rotate(-130.000000) translate(-346.420873, -340.116363) " cx="346.420873" cy="340.116363" r="4"></circle>
    </g>
</svg>