<?xml version="1.0" encoding="UTF-8"?>
<svg width="1720px" height="400px" viewBox="0 0 1720 400" version="1.1" xmlns="http://www.w3.org/2000/svg" xmlns:xlink="http://www.w3.org/1999/xlink">
    <!-- Generator: Sketch 58 (84663) - https://sketch.com -->
    <title>logo</title>
    <desc>Created with Sketch.</desc>
    <defs>
        <path d="M297.910116,269.370887 L208.149897,179.610668 C200.269006,171.729777 187.491558,171.729777 179.610668,179.610668 C171.729777,187.491558 171.729777,200.269006 179.610668,208.149897 L269.370887,297.910116 C258.288144,309.520938 247.520337,321.446695 237.067465,333.687388 C210.153278,365.204879 162.785043,368.936593 131.267552,342.022405 C128.27497,339.466905 125.488036,336.679971 122.932536,333.687389 C108.09785,316.315433 92.6288465,299.577795 76.5255257,283.474474 C60.4222052,267.371154 43.6845673,251.902151 26.3126121,237.067465 C-5.20487926,210.153278 -8.93659321,162.785043 17.9775949,131.267552 C20.5330946,128.27497 23.3200285,125.488036 26.3126113,122.932536 C43.6845668,108.09785 60.422205,92.6288465 76.5255257,76.5255257 C92.6288463,60.4222052 108.097849,43.6845673 122.932535,26.3126121 C149.846722,-5.20487926 197.214957,-8.93659321 228.732448,17.9775949 C231.72503,20.5330946 234.511964,23.3200285 237.067464,26.3126113 C251.90215,43.6845668 267.371154,60.422205 283.474474,76.5255257 C299.577795,92.6288463 316.315433,108.097849 333.687388,122.932535 C365.204879,149.846722 368.936593,197.214957 342.022405,228.732448 C339.466905,231.72503 336.679971,234.511964 333.687389,237.067464 C321.446696,247.520337 309.520938,258.288144 297.910116,269.370887 L297.910116,269.370887 Z" id="path-1"></path>
        <path d="M50.1723972,143.699579 C40.9097545,143.699579 32.6764178,142.549994 25.4721401,140.250789 C18.2678624,137.951584 11.5139534,134.055768 5.21021048,128.563223 C1.73671946,125.497617 0,122.112727 0,118.408453 C0,115.47058 1.09349003,112.884014 3.28050289,110.648676 C5.46751576,108.413338 8.10475642,107.295685 11.192304,107.295685 C13.6366125,107.295685 15.8235925,108.062076 17.7533098,109.594879 C22.8992224,113.810087 27.9164119,116.875648 32.8050289,118.791652 C37.6936459,120.707656 43.4827108,121.665643 50.1723972,121.665643 C57.3766749,121.665643 63.5838388,120.068997 68.7940754,116.875657 C74.0043119,113.682317 76.6093911,109.722635 76.6093911,104.996492 C76.6093911,99.2484803 74.0364734,94.7459386 68.8905608,91.4887318 C63.7446481,88.2315251 55.5756344,85.7726902 44.3832744,84.1121534 C16.2094028,80.0246783 2.12267834,61.6073126 2.12267834,39.6371338 C2.12267834,31.5899172 4.24533546,24.5966076 8.49071337,18.6569953 C12.7360913,12.717383 18.5251561,8.18290833 25.8580816,5.05343519 C33.1910071,1.92396205 41.3600209,0.359248947 50.3653679,0.359248947 C58.4701803,0.359248947 66.0924491,1.57269992 73.2324028,3.99963828 C80.3723566,6.42657663 86.3222288,9.61986867 91.082198,13.5796102 C94.8129846,16.5174829 96.67835,19.9023725 96.67835,23.7343804 C96.67835,26.6722532 95.5848599,29.2588197 93.3978471,31.4941577 C91.2108342,33.7294956 88.6379165,34.8471479 85.6790167,34.8471479 C83.7492995,34.8471479 82.01258,34.2723553 80.4688063,33.1227529 C77.1239631,30.4403474 72.4605497,27.9815125 66.4784263,25.7461745 C60.4963028,23.5108366 55.1253371,22.3931844 50.3653679,22.3931844 C42.2605556,22.3931844 35.9890686,23.8940316 31.550719,26.8957712 C27.1123694,29.8975107 24.8932278,33.8252599 24.8932278,38.6791366 C24.8932278,44.1716813 26.7626321,50.1404794 32.6482402,54.7255896 C38.5338483,59.3106998 44.3832744,61.2828184 53.2599293,63.4194141 C64.250559,66.0648399 73.1680461,67.7942529 79.7934086,70.7959925 C86.4187711,73.797732 91.4037992,77.8851458 94.7486424,83.0583565 C98.0934856,88.2315672 99.7658821,95.0971451 99.7658821,103.655296 C99.7658821,111.702513 97.4824176,118.759688 92.9154202,124.827034 C88.3484227,130.89438 82.2699046,135.556586 74.6796835,138.813793 C67.0894624,142.071 58.9204486,143.699579 50.1723972,143.699579 Z M164.989998,37.3618905 C175.925063,37.3618905 184.737306,39.0543353 191.426992,42.4392756 C198.116679,45.8242159 201.461472,50.3267577 201.461472,55.947036 C201.461472,58.7571752 200.625274,61.21601 198.952852,63.3236144 C197.28043,65.4312187 195.09345,66.4850051 192.391846,66.4850051 C190.333481,66.4850051 188.661085,66.1976088 187.374606,65.6228076 C186.088128,65.0480065 184.833831,64.2816164 183.611677,63.3236144 C182.389522,62.3656124 181.199548,61.5672894 180.041718,60.9286214 C178.755239,60.2899534 176.857713,59.7151608 174.34908,59.2042265 C171.840448,58.6932921 169.814275,58.4378287 168.270501,58.4378287 C158.621915,58.4378287 151.063969,61.4075903 145.596437,67.3472026 C140.128905,73.2868149 137.39518,81.0465145 137.39518,90.6265344 C137.39518,99.8233534 140.161067,107.455321 145.692923,113.522667 C151.224779,119.590013 158.300302,122.623641 166.919706,122.623641 C173.223449,122.623641 177.919024,121.85725 181.006571,120.324447 C181.778458,119.941247 182.839787,119.270655 184.190589,118.312653 C185.541391,117.354651 186.795688,116.620194 187.953519,116.10926 C189.111349,115.598325 190.526454,115.342862 192.198875,115.342862 C195.415071,115.342862 197.955827,116.364715 199.82122,118.408453 C201.686614,120.45219 202.619296,123.07069 202.619296,126.26403 C202.619296,129.329636 200.818254,132.203599 197.216115,134.886005 C193.613976,137.56841 188.854078,139.707916 182.936279,141.304586 C177.018479,142.901256 170.714831,143.699579 164.025145,143.699579 C154.119263,143.699579 145.403504,141.400409 137.877607,136.801999 C130.35171,132.203589 124.530483,125.848938 120.413753,117.737855 C116.297023,109.626771 114.238689,100.589755 114.238689,90.6265344 C114.238689,80.2801129 116.393508,71.0834319 120.703209,63.0362152 C125.012911,54.9889986 131.027106,48.6982133 138.745975,44.1636705 C146.464844,39.6291278 155.212764,37.3618905 164.989998,37.3618905 Z M273.632535,37.3618905 C286.368669,37.3618905 295.180912,41.2257739 300.069529,48.9536565 C304.958146,56.6815392 307.402418,67.3790675 307.402418,81.0465624 L307.402418,131.892263 C307.402418,135.213337 306.308928,137.991501 304.121915,140.226839 C301.934902,142.462177 299.169016,143.579829 295.824173,143.579829 C292.479329,143.579829 289.713443,142.462177 287.52643,140.226839 C285.339417,137.991501 284.245927,135.213337 284.245927,131.892263 L284.245927,81.0465624 C284.245927,74.0212146 282.862984,68.4968193 280.097056,64.473211 C277.331128,60.4496027 272.474746,58.4378287 265.527764,58.4378287 C258.323486,58.4378287 252.695228,60.5773344 248.642822,64.8564099 C244.590416,69.1354854 242.564243,74.532149 242.564243,81.0465624 L242.564243,131.892263 C242.564243,135.213337 241.470753,137.991501 239.28374,140.226839 C237.096728,142.462177 234.330841,143.579829 230.985998,143.579829 C227.641155,143.579829 224.875268,142.462177 222.688255,140.226839 C220.501242,137.991501 219.407752,135.213337 219.407752,131.892263 L219.407752,11.6875657 C219.407752,8.3664922 220.501242,5.58832813 222.688255,3.35299017 C224.875268,1.11765221 227.641155,0 230.985998,0 C234.330841,0 237.096728,1.11765221 239.28374,3.35299017 C241.470753,5.58832813 242.564243,8.3664922 242.564243,11.6875657 L242.564243,54.0310416 C246.037734,49.4326321 250.443856,45.5048829 255.78274,42.2476762 C261.121625,38.9904694 267.071497,37.3618905 273.632535,37.3618905 Z M431.675587,90.6265344 C431.675587,100.845222 429.359961,110.00997 424.728639,118.121054 C420.097318,126.232137 413.761508,132.522923 405.72102,136.993598 C397.680531,141.464274 388.836126,143.699579 379.18754,143.699579 C369.410306,143.699579 360.53374,141.464274 352.557576,136.993598 C344.581411,132.522923 338.277763,126.232137 333.646441,118.121054 C329.01512,110.00997 326.699494,100.845222 326.699494,90.6265344 C326.699494,80.4078465 329.01512,71.2430984 333.646441,63.1320149 C338.277763,55.0209315 344.581411,48.6982133 352.557576,44.1636705 C360.53374,39.6291278 369.410306,37.3618905 379.18754,37.3618905 C388.836126,37.3618905 397.680531,39.6291278 405.72102,44.1636705 C413.761508,48.6982133 420.097318,55.0209315 424.728639,63.1320149 C429.359961,71.2430984 431.675587,80.4078465 431.675587,90.6265344 Z M408.519096,90.6265344 C408.519096,84.3675881 407.200475,78.779327 404.563195,73.8615835 C401.925915,68.94384 398.388153,65.1438225 393.949803,62.4614169 C389.511454,59.7790114 384.590749,58.4378287 379.18754,58.4378287 C373.784332,58.4378287 368.863627,59.7790114 364.425277,62.4614169 C359.986928,65.1438225 356.449166,68.94384 353.811886,73.8615835 C351.174605,78.779327 349.855985,84.3675881 349.855985,90.6265344 C349.855985,96.8854806 351.174605,102.441809 353.811886,107.295685 C356.449166,112.149562 359.986928,115.917647 364.425277,118.600052 C368.863627,121.282458 373.784332,122.623641 379.18754,122.623641 C384.590749,122.623641 389.511454,121.282458 393.949803,118.600052 C398.388153,115.917647 401.925915,112.149562 404.563195,107.295685 C407.200475,102.441809 408.519096,96.8854806 408.519096,90.6265344 Z M476.058861,131.892263 C476.058861,135.213337 474.933209,137.991501 472.681873,140.226839 C470.430536,142.462177 467.632488,143.579829 464.287645,143.579829 C461.071449,143.579829 458.369886,142.462177 456.182873,140.226839 C453.99586,137.991501 452.90237,135.213337 452.90237,131.892263 L452.90237,11.6875657 C452.90237,8.3664922 454.028021,5.58832813 456.279358,3.35299017 C458.530695,1.11765221 461.328743,0 464.673586,0 C467.889782,0 470.591345,1.11765221 472.778358,3.35299017 C474.965371,5.58832813 476.058861,8.3664922 476.058861,11.6875657 L476.058861,131.892263 Z M586.631106,37.3618905 C589.975949,37.3618905 592.741835,38.4476098 594.928848,40.6190809 C597.115861,42.7905521 598.209351,45.6006491 598.209351,49.0494562 L598.209351,131.892263 C598.209351,135.213337 597.115861,137.991501 594.928848,140.226839 C592.741835,142.462177 589.975949,143.579829 586.631106,143.579829 C583.286262,143.579829 580.552537,142.49411 578.429848,140.322639 C576.307159,138.151168 575.181508,133.608692 575.05286,130.287618 C571.836665,133.991892 567.494866,137.153252 562.027334,139.77179 C556.559802,142.390329 550.802898,143.699579 544.756451,143.699579 C535.879752,143.699579 527.839384,141.432341 520.635106,136.897799 C513.430829,132.363256 507.738248,126.072471 503.557194,118.025254 C499.37614,109.978037 497.285644,100.845222 497.285644,90.6265344 C497.285644,80.4078465 499.343979,71.2430984 503.460709,63.1320149 C507.577439,55.0209315 513.205696,48.6982133 520.34565,44.1636705 C527.485604,39.6291278 535.365164,37.3618905 543.984568,37.3618905 C550.159663,37.3618905 555.948728,38.4795427 561.351936,40.7148807 C566.755144,42.9502186 571.322073,45.7922485 575.05286,49.2410557 C575.05286,45.7283827 576.14635,42.9502186 578.333363,40.7148807 C580.520376,38.4795427 583.286262,37.3618905 586.631106,37.3618905 Z M547.651012,122.623641 C556.01312,122.623641 562.831352,119.590013 568.105913,113.522667 C573.380473,107.455321 576.017714,99.8233534 576.017714,90.6265344 C576.017714,81.4297153 573.380473,73.7658144 568.105913,67.6346017 C562.831352,61.5033891 556.01312,58.4378287 547.651012,58.4378287 C539.417552,58.4378287 532.663643,61.5033891 527.389083,67.6346017 C522.114522,73.7658144 519.477282,81.4297153 519.477282,90.6265344 C519.477282,99.8233534 522.082361,107.455321 527.292597,113.522667 C532.502834,119.590013 539.288904,122.623641 547.651012,122.623641 Z M676.94142,37.3618905 C680.800855,37.3618905 684.049164,38.4476098 686.686444,40.6190809 C689.323724,42.7905521 690.642344,45.3451857 690.642344,48.2830585 C690.642344,52.2428 689.613177,55.2125616 687.554812,57.1924324 C685.496447,59.1723031 683.052175,60.1622237 680.221923,60.1622237 C678.292206,60.1622237 676.105226,59.7151628 673.660918,58.8210276 C673.274974,58.693294 672.406614,58.4378306 671.055812,58.0546298 C669.70501,57.671429 668.257744,57.4798315 666.71397,57.4798315 C663.369127,57.4798315 660.15298,58.501685 657.065432,60.5454225 C653.977885,62.5891601 651.437129,65.6866534 649.443087,69.8379953 C647.449046,73.9893372 646.452041,78.9389399 646.452041,84.6869518 L646.452041,131.892263 C646.452041,135.213337 645.358551,137.991501 643.171538,140.226839 C640.984525,142.462177 638.218638,143.579829 634.873795,143.579829 C631.528952,143.579829 628.763065,142.462177 626.576053,140.226839 C624.38904,137.991501 623.29555,135.213337 623.29555,131.892263 L623.29555,49.1692059 C623.29555,45.8481323 624.38904,43.0699683 626.576053,40.8346303 C628.763065,38.5992923 631.528952,37.4816401 634.873795,37.4816401 C638.218638,37.4816401 640.984525,38.5992923 643.171538,40.8346303 C645.358551,43.0699683 646.452041,45.8481323 646.452041,49.1692059 L646.452041,53.4562433 C649.41094,48.2191658 653.656255,44.2275508 659.188111,41.4812784 C664.719967,38.7350061 670.637678,37.3618905 676.94142,37.3618905 Z M868.947325,124.803084 C870.619747,125.824953 871.938367,127.166136 872.903226,128.826672 C873.868084,130.487209 874.350506,132.211587 874.350506,133.999857 C874.350506,136.299062 873.578631,138.406635 872.034857,140.322639 C870.10514,142.621843 867.146285,143.771429 863.158202,143.771429 C860.070655,143.771429 857.240445,143.068904 854.667489,141.663835 C845.404846,136.426757 840.773594,125.761162 840.773594,109.666729 C840.773594,105.068319 838.762972,96.7917819 836.238782,93.3568263 C833.714591,89.9218708 828.873759,85.7407487 823.213255,85.7407487 L787.127724,85.7407487 L787.127724,131.892263 C787.127724,135.341071 786.195041,138.151168 784.329648,140.322639 C782.464254,142.49411 779.987821,143.579829 776.900273,143.579829 C773.169487,143.579829 769.921178,142.462177 767.15525,140.226839 C764.389322,137.991501 763.006379,135.213337 763.006379,131.892263 L763.006379,12.1665643 C763.006379,8.8454908 764.13203,6.06732673 766.383367,3.83198877 C768.634704,1.59665081 771.432752,0.478998596 774.777595,0.478998596 L830.353173,0.478998596 C837.04286,0.478998596 843.346508,2.26724214 849.264308,5.84378287 C855.182107,9.4203236 859.909844,14.3379933 863.447658,20.5969396 C866.985473,26.8558859 868.754354,33.8811284 868.754354,41.6728778 C868.754354,48.0595577 867.017635,54.2864772 863.544144,60.3538231 C860.070653,66.421169 855.568047,71.24304 850.036191,74.8195807 C858.141003,80.439859 862.579286,96.9572519 863.351173,106.409538 C863.737117,108.453276 863.930085,110.433117 863.930085,112.349121 C864.444677,116.308862 864.95926,119.150892 865.473851,120.875296 C865.988443,122.599699 867.146256,123.908949 868.947325,124.803084 Z M829.38832,65.1078842 C831.70398,65.1078842 833.955283,64.0221649 836.142296,61.8506937 C838.329309,59.6792225 840.130351,56.7733268 841.545477,53.1329193 C842.960603,49.4925117 843.668156,45.5647625 843.668156,41.3495538 C843.668156,37.7730131 842.960603,34.4839223 841.545477,31.4821827 C840.130351,28.4804432 838.329309,26.0854741 836.142296,24.2972038 C833.955283,22.5089334 831.70398,21.6148116 829.38832,21.6148116 L787.127724,21.6148116 L787.127724,65.1078842 L829.38832,65.1078842 Z M977.975804,37.3618905 C981.320647,37.3618905 984.086533,38.4476098 986.273546,40.6190809 C988.460559,42.7905521 989.554049,45.6006491 989.554049,49.0494562 L989.554049,131.892263 C989.554049,135.213337 988.460559,137.991501 986.273546,140.226839 C984.086533,142.462177 981.320647,143.579829 977.975804,143.579829 C974.63096,143.579829 971.897235,142.49411 969.774546,140.322639 C967.651857,138.151168 966.526206,133.608692 966.397558,130.287618 C963.181363,133.991892 958.839564,137.153252 953.372032,139.77179 C947.9045,142.390329 942.147596,143.699579 936.101149,143.699579 C927.22445,143.699579 919.184082,141.432341 911.979804,136.897799 C904.775527,132.363256 899.082946,126.072471 894.901892,118.025254 C890.720838,109.978037 888.630342,100.845222 888.630342,90.6265344 C888.630342,80.4078465 890.688677,71.2430984 894.805407,63.1320149 C898.922137,55.0209315 904.550394,48.6982133 911.690348,44.1636705 C918.830302,39.6291278 926.709862,37.3618905 935.329266,37.3618905 C941.504361,37.3618905 947.293426,38.4795427 952.696634,40.7148807 C958.099842,42.9502186 962.666771,45.7922485 966.397558,49.2410557 C966.397558,45.7283827 967.491048,42.9502186 969.678061,40.7148807 C971.865074,38.4795427 974.63096,37.3618905 977.975804,37.3618905 Z M938.99571,122.623641 C947.357818,122.623641 954.17605,119.590013 959.450611,113.522667 C964.725171,107.455321 967.362412,99.8233534 967.362412,90.6265344 C967.362412,81.4297153 964.725171,73.7658144 959.450611,67.6346017 C954.17605,61.5033891 947.357818,58.4378287 938.99571,58.4378287 C930.76225,58.4378287 924.008341,61.5033891 918.733781,67.6346017 C913.45922,73.7658144 910.82198,81.4297153 910.82198,90.6265344 C910.82198,99.8233534 913.427059,107.455321 918.637295,113.522667 C923.847532,119.590013 930.633602,122.623641 938.99571,122.623641 Z M1036.44594,131.892263 C1036.44594,135.213337 1035.35245,137.991501 1033.16544,140.226839 C1030.97843,142.462177 1028.21254,143.579829 1024.8677,143.579829 C1021.52285,143.579829 1018.75697,142.462177 1016.56996,140.226839 C1014.38294,137.991501 1013.28945,135.213337 1013.28945,131.892263 L1013.28945,49.1692059 C1013.28945,45.8481323 1014.38294,43.0699683 1016.56996,40.8346303 C1018.75697,38.5992923 1021.52285,37.4816401 1024.8677,37.4816401 C1028.21254,37.4816401 1030.97843,38.5992923 1033.16544,40.8346303 C1035.35245,43.0699683 1036.44594,45.8481323 1036.44594,49.1692059 L1036.44594,131.892263 Z M1024.67473,23.2314319 C1020.3007,23.2314319 1017.2132,22.5289077 1015.41213,21.1238381 C1013.61106,19.7187685 1012.71054,17.2280007 1012.71054,13.65146 L1012.71054,10.0110707 C1012.71054,6.43452992 1013.67538,3.94376213 1015.6051,2.53869256 C1017.53482,1.13362299 1020.62232,0.431098736 1024.8677,0.431098736 C1029.37037,0.431098736 1032.5222,1.13362299 1034.32327,2.53869256 C1036.12433,3.94376213 1037.02486,6.43452992 1037.02486,10.0110707 L1037.02486,13.65146 C1037.02486,17.3557343 1036.09217,19.878435 1034.22678,21.2196378 C1032.36139,22.5608406 1029.1774,23.2314319 1024.67473,23.2314319 Z M1054.19925,125.880831 C1053.04142,124.348028 1052.46252,122.432053 1052.46252,120.132848 C1052.46252,116.811774 1054.13491,114.001677 1057.47976,111.702473 C1059.28083,110.55287 1061.14619,109.978078 1063.07591,109.978078 C1065.77751,109.978078 1068.35043,111.191529 1070.79474,113.618467 C1074.65417,117.578208 1078.67436,120.516037 1082.85541,122.432041 C1087.03646,124.348045 1092.08582,125.306033 1098.00362,125.306033 C1108.03814,124.922832 1113.05533,121.154747 1113.05533,114.001666 C1113.05533,110.297392 1111.35078,107.487295 1107.94161,105.571291 C1104.53244,103.655287 1099.2258,101.739311 1092.02152,99.8233074 C1084.55995,97.7795698 1078.48143,95.7358629 1073.78579,93.6921254 C1069.09014,91.6483878 1065.03779,88.5508945 1061.62863,84.3995526 C1058.21946,80.2482107 1056.5149,74.6599496 1056.5149,67.6346017 C1056.5149,61.5033891 1058.28378,56.1705914 1061.8216,51.6360486 C1065.35941,47.1015059 1069.99066,43.5888847 1075.71549,41.0980795 C1081.44032,38.6072744 1087.51884,37.3618905 1093.95123,37.3618905 C1100.51227,37.3618905 1107.07321,38.5753415 1113.63425,41.0022798 C1120.19529,43.4292182 1125.34112,47.0057053 1129.07191,51.7318484 C1130.74433,53.7755859 1131.58053,56.0747562 1131.58053,58.6294281 C1131.58053,61.5673009 1130.35839,63.9942028 1127.91408,65.9102068 C1126.11301,67.3152764 1124.05468,68.0178006 1121.73902,68.0178006 C1118.90877,68.0178006 1116.59314,67.1236789 1114.79207,65.3354085 C1112.47641,62.5252693 1109.48539,60.2899649 1105.81893,58.6294281 C1102.15247,56.9688914 1098.00364,56.1386354 1093.37232,56.1386354 C1083.59508,56.1386354 1078.70654,59.6512567 1078.70654,66.6766046 C1078.70654,69.4867437 1079.60706,71.753981 1081.40813,73.4783846 C1083.2092,75.2027882 1085.49266,76.5439708 1088.25859,77.5019728 C1091.02452,78.4599748 1094.91606,79.6414929 1099.93332,81.0465624 C1106.8803,82.9625664 1112.66937,84.9424075 1117.30069,86.986145 C1121.93201,89.0298826 1125.85571,92.1593088 1129.07191,96.3745175 C1132.2881,100.589726 1133.89618,106.146054 1133.89618,113.043669 C1133.89618,119.302615 1132.03081,124.763144 1128.30002,129.425421 C1124.56924,134.087697 1119.77718,137.632251 1113.9237,140.059189 C1108.07023,142.486128 1102.05603,143.699579 1095.88094,143.699579 C1087.39018,143.699579 1079.47846,142.29453 1072.14553,139.484391 C1064.81261,136.674252 1058.83057,132.139777 1054.19925,125.880831 Z M1245.81922,88.1357417 C1245.69057,91.201348 1244.46843,93.6921158 1242.15277,95.6081197 C1239.83711,97.5241237 1237.13555,98.4821113 1234.048,98.4821113 L1170.36765,98.4821113 C1171.91142,106.018394 1175.44919,111.925984 1180.98104,116.205059 C1186.5129,120.484135 1192.75222,122.623641 1199.6992,122.623641 C1204.97377,122.623641 1209.09043,122.144647 1212.04933,121.186645 C1215.00823,120.228643 1217.35602,119.206789 1219.09277,118.121054 C1220.82951,117.035318 1222.01949,116.300861 1222.66273,115.91766 C1224.97839,114.768058 1227.16537,114.193265 1229.22373,114.193265 C1231.92534,114.193265 1234.24096,115.151253 1236.17068,117.067257 C1238.1004,118.983261 1239.06524,121.218565 1239.06524,123.773237 C1239.06524,127.222044 1237.2642,130.351471 1233.66206,133.16161 C1230.05992,136.099482 1225.2357,138.59025 1219.18925,140.633988 C1213.1428,142.677725 1207.03212,143.699579 1200.85703,143.699579 C1190.05061,143.699579 1180.6273,141.464274 1172.58681,136.993598 C1164.54632,132.522923 1158.33916,126.359869 1153.96514,118.504253 C1149.59111,110.648636 1147.40413,101.803217 1147.40413,91.9677304 C1147.40413,80.982641 1149.71976,71.3388991 1154.35108,63.0362152 C1158.9824,54.7335314 1165.09308,48.3788802 1172.6833,43.9720711 C1180.27352,39.565262 1188.37821,37.3618905 1196.99761,37.3618905 C1205.48837,37.3618905 1213.49658,39.6610608 1221.02247,44.2594703 C1228.54837,48.8578798 1234.56257,55.0528663 1239.06524,62.8446158 C1243.56791,70.6363652 1245.81922,79.0666562 1245.81922,88.1357417 Z M1196.99761,58.4378287 C1182.07447,58.4378287 1173.26222,65.3992054 1170.56062,79.3221675 L1221.11896,79.3221675 L1221.11896,77.9809714 C1220.60437,72.6161603 1217.96713,68.0178198 1213.20716,64.1858119 C1208.44719,60.3538039 1203.04406,58.4378287 1196.99761,58.4378287 Z" id="path-3"></path>
    </defs>
    <g id="logo" stroke="none" stroke-width="1" fill="none" fill-rule="evenodd">
        <g id="Logos/_Helpers/Mark" transform="translate(3.000000, 20.000000)">
            <mask id="mask-2" fill="white">
                <use xlink:href="#path-1"></use>
            </mask>
            <use id="Mark" fill="#518AEE" fill-rule="evenodd" xlink:href="#path-1"></use>
            <g id="Colors/Color/1.-Primary/500" mask="url(#mask-2)" fill="#518AEE" fill-rule="nonzero">
                <rect id="Background" x="0" y="0" width="360" height="360"></rect>
            </g>
        </g>
        <g id="Logos/_Helpers/Type" transform="translate(471.000000, 128.000000)">
            <mask id="mask-4" fill="white">
                <use xlink:href="#path-3"></use>
            </mask>
            <use id="Type" fill="#4A4A4A" fill-rule="evenodd" xlink:href="#path-3"></use>
            <g id="Colors/Tint/7.-Black" mask="url(#mask-4)" fill="#101B2F" fill-rule="nonzero">
                <rect id="Background" x="0" y="0" width="1246" height="144"></rect>
            </g>
        </g>
    </g>
</svg>