<?xml version="1.0" encoding="UTF-8"?>
<svg width="800px" height="800px" viewBox="0 0 800 800" version="1.1" xmlns="http://www.w3.org/2000/svg" xmlns:xlink="http://www.w3.org/1999/xlink">
    <!-- Generator: Sketch 50.2 (55047) - http://www.bohemiancoding.com/sketch -->
    <title>Mark/Trans/Primary</title>
    <desc>Created with Sketch.</desc>
    <defs>
        <path d="M331.01124,299.300986 L231.277663,199.567409 C222.521118,190.810864 208.323954,190.810864 199.567409,199.567409 C190.810864,208.323954 190.810864,222.521118 199.567409,231.277663 L299.300986,331.01124 C286.986827,343.912153 275.022597,357.162995 263.408294,370.763764 C233.503642,405.783199 180.87227,409.929548 145.852836,380.024895 C142.527744,377.18545 139.431151,374.088857 136.591707,370.763765 C120.108722,351.461592 102.920941,332.864217 85.0283619,314.971638 C67.1357835,297.07906 48.5384081,279.891278 29.2362356,263.408294 C-5.78319918,233.503642 -9.92954801,180.87227 19.9751054,145.852836 C22.8145495,142.527744 25.9111428,139.431151 29.2362348,136.591707 C48.5384076,120.108722 67.1357833,102.920941 85.0283619,85.0283619 C102.92094,67.1357835 120.108722,48.5384081 136.591706,29.2362356 C166.496358,-5.78319918 219.12773,-9.92954801 254.147164,19.9751054 C257.472256,22.8145495 260.568849,25.9111428 263.408293,29.2362348 C279.891278,48.5384076 297.079059,67.1357833 314.971638,85.0283619 C332.864216,102.92094 351.461592,120.108722 370.763764,136.591706 C405.783199,166.496358 409.929548,219.12773 380.024895,254.147164 C377.18545,257.472256 374.088857,260.568849 370.763765,263.408293 C357.162995,275.022596 343.912154,286.986827 331.01124,299.300986 Z" id="path-1"></path>
    </defs>
    <g id="Mark/Trans/Primary" stroke="none" stroke-width="1" fill="none" fill-rule="evenodd">
        <g id="Mark" transform="translate(200.000000, 200.000000)">
            <mask id="mask-2" fill="white">
                <use xlink:href="#path-1"></use>
            </mask>
            <use fill="#FFFFFF" fill-rule="evenodd" xlink:href="#path-1"></use>
            <g id="Color/Primary" mask="url(#mask-2)" fill="#518AEE" fill-rule="evenodd">
                <rect id="Rectangle" x="0" y="0" width="400" height="400"></rect>
            </g>
        </g>
    </g>
</svg>